<svg width="18" height="17" viewBox="0 0 18 17" fill="none" xmlns="http://www.w3.org/2000/svg">
<circle cx="13.4446" cy="11.5556" r="2.11111" stroke="#3880FF" stroke-width="2"/>
<path d="M15.2227 13.3334L17.0004 15.1112" stroke="#3880FF" stroke-width="2" stroke-linecap="round"/>
<path fill-rule="evenodd" clip-rule="evenodd" d="M0.111328 7.2C0.111328 4.67976 0.111328 3.41965 0.601799 2.45704C1.03323 1.61031 1.72164 0.921901 2.56837 0.490471C3.53097 0 4.79109 0 7.31133 0H10.6891C13.2093 0 14.4695 0 15.4321 0.490471C16.2788 0.921901 16.9672 1.61031 17.3986 2.45704C17.8891 3.41965 17.8891 4.67976 17.8891 7.2V8.8C17.8891 9.05045 17.8891 9.28846 17.8886 9.51497C17.1154 7.83386 15.4163 6.66667 13.4447 6.66667C10.7446 6.66667 8.55577 8.8555 8.55577 11.5556C8.55577 13.5272 9.72296 15.2263 11.4041 15.9995C11.1776 16 10.9396 16 10.6891 16H3.31133C2.19122 16 1.63117 16 1.20335 15.782C0.827023 15.5903 0.521062 15.2843 0.329315 14.908C0.111328 14.4802 0.111328 13.9201 0.111328 12.8V7.2ZM3.55577 6.22222C3.55577 5.66994 4.00349 5.22222 4.55577 5.22222H9.88911C10.4414 5.22222 10.8891 5.66994 10.8891 6.22222C10.8891 6.77451 10.4414 7.22222 9.88911 7.22222H4.55577C4.00349 7.22222 3.55577 6.77451 3.55577 6.22222ZM3.55577 9.77778C3.55577 9.22549 4.00349 8.77778 4.55577 8.77778H7.22244C7.77472 8.77778 8.22244 9.22549 8.22244 9.77778C8.22244 10.3301 7.77472 10.7778 7.22244 10.7778H4.55577C4.00349 10.7778 3.55577 10.3301 3.55577 9.77778Z" fill="#3880FF"/>
</svg>
