<svg width="41" height="41" viewBox="0 0 41 41" fill="currentColor" xmlns="http://www.w3.org/2000/svg">
<path fill-rule="evenodd" clip-rule="evenodd" d="M16.1202 0.00366211C19.5475 0.00366211 22.2132 1.93305 22.2132 7.07757C22.2132 12.0937 21.3246 17.7528 16.1202 17.7528C10.7891 17.7528 9.90042 12.0938 9.90042 7.07757C9.90042 1.93298 12.6929 0.00366211 16.1202 0.00366211ZM30.4638 35.2447C30.2099 35.1159 29.956 34.8587 30.2099 34.473C30.337 34.087 30.4638 33.8298 30.7176 33.5726C30.9715 33.3154 31.2254 33.3153 31.6063 33.5726C32.2411 33.9586 32.7488 34.473 33.2565 35.116C34.5258 32.8009 35.7951 31.772 36.9377 31.1288H28.3057V30.0999H38.2065V30.4859H38.3336H38.2065V31.1291H37.5717C36.0485 32.6725 34.7792 34.7303 33.6367 37.4313C33.5096 37.6885 33.129 37.6885 32.8751 37.3025C32.1135 36.1448 31.2248 35.5019 30.4632 35.2447L30.4638 35.2447ZM38.4609 20.454C38.4609 21.4829 37.1917 21.4829 37.1917 20.454V19.1679C37.1917 18.6534 36.8107 18.6534 36.8107 19.1679V21.2257C36.8107 22.2546 35.5414 22.2546 35.5414 21.2257V19.4251C35.5414 19.0391 35.0337 18.9106 35.0337 19.4251V21.3545C35.0337 22.3834 33.8912 22.3834 33.8912 21.3545V19.2967C33.8912 18.9107 33.2563 18.7822 33.2563 19.1679V20.84C33.2563 21.9977 31.9871 21.9977 31.9871 20.84V18.6534H26.1483C25.5135 18.6534 24.879 19.2966 24.879 19.9395V37.6885C24.879 38.3317 25.5138 38.8462 26.1483 38.8462H38.715C39.3498 38.8462 39.9843 38.3318 39.9843 37.6885V19.9395C39.9843 19.2963 39.3495 18.6534 38.715 18.6534H38.4612V20.454L38.4609 20.454ZM28.9413 17.6245C28.8142 17.2385 28.9413 16.7241 29.7029 16.8528C31.7338 17.11 31.3532 16.5956 32.6225 15.9524C34.0189 15.052 37.192 14.9235 38.2075 16.7241C38.3346 16.8528 38.3346 17.1101 38.4613 17.6245H38.7152C39.9845 17.6245 41 18.6534 41 19.9396V37.6886C41 38.9747 39.9846 40.0037 38.7152 40.0037H26.1484C24.8791 40.0037 23.8636 38.9748 23.8636 37.6886V35.888L19.0403 39.4892V31.6437L21.7059 20.583L20.0557 18.6536L23.8636 20.0685V19.9398C23.8636 18.6536 24.8791 17.6247 26.1484 17.6247H28.9409L28.9413 17.6245ZM26.6565 23.7983H27.672V24.8272H26.6565V23.7983ZM26.6565 30.1005H27.672V31.1294H26.6565V30.1005ZM26.6565 28.0427H27.672V29.0716H26.6565V28.0427ZM38.2073 28.0427H28.3065V29.0716H38.2073V28.0427ZM26.6565 25.8561H27.672V26.885H26.6565V25.8561ZM38.2073 25.8561H28.3065V26.885H38.2073V25.8561ZM38.2073 23.7983H28.3065V24.8272H38.2073V23.7983ZM1.52297 22.7694L12.0586 18.6538L10.4083 20.5832L13.074 31.6439V39.4893L0 32.9298L1.5232 22.7693L1.52297 22.7694ZM17.1361 25.3417L17.8977 22.7694L16.1207 21.7405L14.2166 22.7694L14.9782 25.3417V39.4892H17.263L17.1359 25.3417H17.1361Z" fill="currentColor"/>
</svg>
