<svg width="16" height="14" viewBox="0 0 16 14" fill="none" xmlns="http://www.w3.org/2000/svg">
<path d="M9.81593 6.06285L13.1769 4.12241C13.4808 3.94694 13.8694 4.05107 14.0449 4.355L14.1221 4.48879C14.6218 5.35426 14.6404 6.4161 14.1713 7.29853C13.5998 8.37359 12.2942 8.82356 11.1817 8.32888L9.90535 7.76133C9.19267 7.44443 9.14046 6.45283 9.81593 6.06285Z" stroke="#4C5861"/>
<path d="M8.1929 8.87431V12.7552C8.1929 13.1061 7.9084 13.3906 7.55746 13.3906H7.40297C6.40361 13.3906 5.47473 12.8758 4.94507 12.0283C4.29979 10.9959 4.56291 9.64022 5.54755 8.92411L6.67726 8.10251C7.30804 7.64375 8.1929 8.09434 8.1929 8.87431Z" stroke="#4C5861"/>
<path d="M9.81593 7.93715L13.1769 9.87759C13.4808 10.0531 13.5849 10.4417 13.4095 10.7456L13.3322 10.8794C12.8325 11.7449 11.9222 12.2919 10.9235 12.3269C9.70672 12.3695 8.66423 11.4638 8.53638 10.253L8.38971 8.86384C8.30781 8.08819 9.14046 7.54717 9.81593 7.93715Z" stroke="#4C5861"/>
<path d="M6.56991 7.93715L3.20897 9.87759C2.90504 10.0531 2.51641 9.94893 2.34094 9.645L2.2637 9.51121C1.76401 8.64574 1.74543 7.5839 2.21452 6.70147C2.78601 5.62641 4.09161 5.17644 5.2041 5.67112L6.48048 6.23867C7.19317 6.55557 7.24537 7.54717 6.56991 7.93715Z" stroke="#4C5861"/>
<path d="M6.56969 6.06285L3.20876 4.12241C2.90483 3.94694 2.8007 3.55831 2.97617 3.25438L3.05341 3.12059C3.55309 2.25511 4.46338 1.7081 5.46214 1.67313C6.6789 1.63052 7.72139 2.53622 7.84924 3.747L7.99591 5.13616C8.07781 5.91181 7.24516 6.45283 6.56969 6.06285Z" stroke="#4C5861"/>
<path d="M8.1929 5.12618V1.2453C8.1929 0.89436 8.4774 0.609863 8.82834 0.609863H8.98283C9.9822 0.609863 10.9111 1.12469 11.4407 1.97215C12.086 3.0046 11.8229 4.36027 10.8383 5.07638L9.70854 5.89798C9.07776 6.35673 8.1929 5.90614 8.1929 5.12618Z" stroke="#4C5861"/>
</svg>
