<svg width="20" height="23" viewBox="0 0 20 23" fill="currentColor" xmlns="http://www.w3.org/2000/svg">
<path d="M19.8039 2.08797C19.9122 2.08797 20 2.17578 20 2.28411C20 2.39216 19.9122 2.47997 19.8039 2.47997H19.016C18.9055 2.47997 18.8125 2.57161 18.8084 2.67665L18.0991 21.1179C18.0619 22.0874 17.2446 22.8727 16.2745 22.8727H3.72547C2.75411 22.8727 1.93814 22.0876 1.90089 21.1179L1.19157 2.67665C1.18719 2.56805 1.09282 2.47997 0.983952 2.47997H0.196135C0.0878081 2.47997 0 2.39216 0 2.28411C0 2.17578 0.0878081 2.08797 0.196135 2.08797H5.74776C5.85718 2.08797 5.97726 2.00892 6.01721 1.90935L6.31619 1.162C6.54707 0.584817 7.22299 0.127197 7.84316 0.127197H12.157C12.7794 0.127197 13.4523 0.582926 13.684 1.162L14.0544 2.08799L19.8039 2.08797ZM6.56223 2.08797H13.4376C13.5454 2.08797 13.5995 2.00701 13.5596 1.90689L13.3197 1.30754C13.1476 0.877256 12.6189 0.519166 12.1569 0.519166H7.843C7.38317 0.519166 6.8514 0.879426 6.68019 1.30754L6.44028 1.90689C6.40144 2.00454 6.45506 2.08797 6.56229 2.08797H6.56223ZM9.80377 6.2057V19.5391C9.80377 19.6474 9.89157 19.7352 9.9999 19.7352C10.1082 19.7352 10.196 19.6474 10.196 19.5391V6.2057C10.196 6.09738 10.1082 6.00957 9.9999 6.00957C9.89157 6.00957 9.80377 6.09738 9.80377 6.2057ZM5.49017 6.21145L5.88244 19.5448C5.88545 19.6531 5.97572 19.7382 6.08404 19.7349C6.19237 19.7319 6.27744 19.6417 6.27416 19.5333L5.88216 6.19996C5.87888 6.09163 5.78861 6.00628 5.68028 6.00956C5.57223 6.01284 5.48689 6.10311 5.49017 6.21144V6.21145ZM14.1176 6.19996L13.7256 19.5333C13.7224 19.6417 13.8074 19.7319 13.9158 19.7349C14.0241 19.7382 14.1144 19.6531 14.1174 19.5448L14.5096 6.21145C14.5129 6.10312 14.4276 6.01286 14.3195 6.00957C14.2112 6.00629 14.1209 6.09164 14.1176 6.19997V6.19996Z" fill="currentColor"/>
</svg>
