<svg width="30" height="29" viewBox="0 0 30 29" fill="none" xmlns="http://www.w3.org/2000/svg">
<path d="M17.5 2.41675H7.5C6.83696 2.41675 6.20107 2.67136 5.73223 3.12457C5.26339 3.57779 5 4.19247 5 4.83341V24.1667C5 24.8077 5.26339 25.4224 5.73223 25.8756C6.20107 26.3288 6.83696 26.5834 7.5 26.5834H22.5C23.163 26.5834 23.7989 26.3288 24.2678 25.8756C24.7366 25.4224 25 24.8077 25 24.1667V9.66675M17.5 2.41675L25 9.66675M17.5 2.41675V9.66675H25M20 15.7084H10M20 20.5417H10M12.5 10.8751H10" stroke="#1E1E1E" stroke-width="2" stroke-linecap="round" stroke-linejoin="round"/>
</svg>
