<svg width="40" height="41" viewBox="0 0 40 41" fill="currentColor" xmlns="http://www.w3.org/2000/svg">
<path d="M14.4941 5.13154C15.7952 5.32537 17.028 5.84039 18.0834 6.63073C17.6973 5.65093 17.8436 4.53976 18.4698 3.69516C17.7791 3.31716 17.0495 3.01689 16.2931 2.80029C16.1357 3.83907 15.4547 4.72146 14.4941 5.13162L14.4941 5.13154Z" fill="currentColor"/>
<path d="M8.56819 6.63072C9.62355 5.84041 10.8564 5.32539 12.1575 5.13154C11.1994 4.71141 10.5267 3.82028 10.3805 2.77808C9.62448 2.99438 8.89451 3.29465 8.2041 3.67294C8.83092 4.52665 8.96911 5.64844 8.56817 6.63072H8.56819Z" fill="currentColor"/>
<path d="M19.7402 8.29926C20.5248 9.36241 21.036 10.6044 21.2285 11.915C21.6455 10.9499 22.5301 10.2722 23.5647 10.1249C23.35 9.36335 23.0519 8.62799 22.6764 7.9325C22.1558 8.31891 21.5244 8.52461 20.8774 8.51868C20.4879 8.51899 20.1021 8.44439 19.7402 8.29925V8.29926Z" fill="currentColor"/>
<path d="M14.4942 21.0524C15.284 21.392 15.8932 22.0543 16.1689 22.8733L17.0572 22.0815L17.9456 21.3433C17.8145 20.7455 17.8638 20.1222 18.0878 19.5532C17.0312 20.3442 15.7967 20.8592 14.4941 21.0524L14.4942 21.0524Z" fill="currentColor"/>
<path d="M5.42405 11.9151C5.61647 10.6045 6.12771 9.36253 6.91227 8.29939C6.55471 8.44297 6.17328 8.51726 5.78845 8.51881C5.14211 8.51632 4.51376 8.30282 3.99818 7.91016C3.62295 8.60589 3.32488 9.34095 3.10986 10.1028C4.14103 10.2614 5.01697 10.9474 5.42413 11.9151L5.42405 11.9151Z" fill="currentColor"/>
<path d="M6.91235 17.8849C6.12782 16.8217 5.61656 15.5798 5.42413 14.2692C5.00708 15.2343 4.12247 15.9119 3.08789 16.0592C3.30261 16.8208 3.60068 17.5562 3.9762 18.2517C4.82399 17.6212 5.93725 17.4819 6.91235 17.8849V17.8849Z" fill="currentColor"/>
<path d="M12.1578 21.0522C10.8568 20.8583 9.62387 20.3433 8.56851 19.553C8.95458 20.5328 8.80833 21.6439 8.18213 22.4886C8.87278 22.8665 9.60245 23.1668 10.3588 23.3834C10.5162 22.3446 11.1972 21.4622 12.1578 21.0521L12.1578 21.0522Z" fill="currentColor"/>
<path d="M21.228 14.269C21.0355 15.5796 20.5243 16.8216 19.7397 17.8847C20.6584 17.5139 21.6995 17.621 22.5249 18.1709L22.7957 18.0233C23.113 17.4021 23.3705 16.752 23.5642 16.0812C22.5247 15.9298 21.6391 15.2428 21.2279 14.2689L21.228 14.269Z" fill="currentColor"/>
<path d="M3.14689e-05 31.9393V39.9938H2.50078V32.9773H2.36321C1.50987 32.8088 0.703338 32.4545 0 31.9392L3.14689e-05 31.9393Z" fill="currentColor"/>
<path d="M7.49805 32.6465V40.0031H9.9988V31.7784C9.24308 32.0999 8.46878 32.3749 7.68025 32.6019L7.49805 32.6465Z" fill="currentColor"/>
<path d="M17.5013 38.5979V29.6085H16.142C15.996 29.6082 15.8671 29.5121 15.8244 29.3713C15.7816 29.2305 15.8346 29.0782 15.9554 28.9955L17.5012 27.944V27.1252C16.7505 27.7607 16.0663 28.2976 15.3869 28.7764C15.258 28.8704 15.1294 28.9509 15.0005 29.0405V40.0035H17.2215C17.219 39.9826 17.219 39.9617 17.2215 39.9408L17.5013 38.5979Z" fill="currentColor"/>
<path d="M24.9998 22.8334V21.2047C24.4935 21.4822 24.0002 21.7775 23.5116 22.0996C23.3716 22.3633 23.1934 22.6046 22.983 22.8156C22.8361 22.9654 22.6741 23.0987 22.499 23.2139V24.5295L24.9998 22.8334Z" fill="currentColor"/>
<path d="M32.5021 23.7594V18.8102C31.676 18.94 30.8853 19.092 30.1522 19.2578L30.0013 19.298L30.001 22.041L32.5021 23.7594Z" fill="currentColor"/>
<path d="M37.499 18.3499V27.1651L39.9998 28.8655V18.3004C39.1648 18.3004 38.3563 18.3004 37.5257 18.3497L37.499 18.3499Z" fill="currentColor"/>
<path d="M37.499 32.8792L38.907 39.9402C38.9091 39.9611 38.9091 39.982 38.907 40.003H39.9998V29.608H37.499V32.8792Z" fill="currentColor"/>
<path d="M12.9926 20.8285H13.3257H13.6588V13.9017L18.5451 18.8015C18.6836 18.6258 18.8417 18.4669 19.0158 18.327L14.1518 13.4047L21.0059 13.405V13.0695V12.7339L14.1298 12.7336L18.9937 7.85626C18.8193 7.71643 18.6616 7.55755 18.5228 7.38182L13.6364 12.3042L13.6368 5.35486H13.3037H12.9706L12.9703 12.2817L8.12861 7.3819C7.9898 7.55763 7.83208 7.71651 7.65764 7.85634L12.544 12.7787L5.64551 12.7784V13.1139V13.4495L12.5217 13.4498L7.65772 18.3721V18.3718C7.83216 18.5116 7.98988 18.6708 8.12869 18.8462L13.015 13.9464L12.9926 20.8285Z" fill="currentColor"/>
<path d="M15.6579 2.35292C15.6579 3.65011 14.614 4.70199 13.326 4.70199C12.038 4.70199 10.9941 3.65011 10.9941 2.35292C10.9941 1.05542 12.038 0.00354004 13.326 0.00354004C14.614 0.00354004 15.6579 1.05542 15.6579 2.35292Z" fill="currentColor"/>
<path d="M14.5613 24.31C14.8724 24.0372 15.1832 23.7597 15.4986 23.4731L15.6141 23.3701V23.3704C15.4539 22.5532 14.8767 21.8828 14.0965 21.6078C13.316 21.3328 12.4496 21.4945 11.8188 22.0326C11.1879 22.571 10.8874 23.4054 11.0284 24.2259C11.1693 25.0465 11.7311 25.7304 12.5048 26.0238C13.1623 25.5225 13.8328 24.9588 14.5612 24.3099L14.5613 24.31Z" fill="currentColor"/>
<path d="M26.3189 13.0922C26.3189 14.3897 25.2747 15.4413 23.9867 15.4413C22.699 15.4413 21.6548 14.3897 21.6548 13.0922C21.6548 11.7947 22.699 10.7432 23.9867 10.7432C25.2747 10.7432 26.3189 11.7947 26.3189 13.0922Z" fill="currentColor"/>
<path d="M4.99756 13.0922C4.99756 14.3897 3.95338 15.4413 2.66569 15.4413C1.37768 15.4413 0.333496 14.3897 0.333496 13.0922C0.333496 11.7947 1.37768 10.7432 2.66569 10.7432C3.95338 10.7432 4.99756 11.7947 4.99756 13.0922Z" fill="currentColor"/>
<path d="M22.5122 7.15818C22.95 6.71776 23.1961 6.12036 23.1964 5.49702C23.1964 4.874 22.951 4.27598 22.5135 3.83522C22.0763 3.3945 21.4829 3.14697 20.8641 3.14697C20.2457 3.14697 19.6524 3.3945 19.2148 3.83522C18.7776 4.27595 18.5319 4.874 18.5322 5.49702C18.5325 6.12035 18.7786 6.71774 19.2164 7.15818C19.6517 7.60172 20.2451 7.85111 20.8641 7.85111C21.4831 7.85111 22.0765 7.60172 22.5122 7.15818H22.5122Z" fill="currentColor"/>
<path d="M5.77463 18.3363C4.9994 18.3416 4.27713 18.7346 3.84833 19.3854C3.41918 20.0359 3.33894 20.8587 3.63453 21.5806C3.93013 22.3029 4.56251 22.8298 5.32193 22.9868C6.08136 23.1438 6.86868 22.91 7.42234 22.3635C7.86759 21.9243 8.1195 21.3237 8.12259 20.6961C8.12538 20.0684 7.87875 19.4657 7.43752 19.0225C6.99661 18.5792 6.39771 18.332 5.77456 18.3364L5.77463 18.3363Z" fill="currentColor"/>
<path d="M18.5503 20.8519C19.5976 20.0178 20.6972 19.2525 21.8418 18.5608C21.5356 18.4166 21.2026 18.3402 20.8645 18.337C20.2182 18.3364 19.6013 18.6073 19.1619 19.0849C18.7226 19.5622 18.5007 20.2026 18.5503 20.8519L18.5503 20.8519Z" fill="currentColor"/>
<path d="M7.43595 3.83848C6.99876 3.39744 6.40574 3.1496 5.78695 3.14929C5.1685 3.14929 4.57485 3.3965 4.13732 3.83723C3.69981 4.27765 3.4541 4.87536 3.4541 5.49871C3.4541 6.12172 3.69981 6.71943 4.13732 7.16018C4.57482 7.6006 5.16849 7.84812 5.78695 7.84781C6.40572 7.8475 6.99874 7.59967 7.43595 7.15863C7.87625 6.72008 8.12382 6.12233 8.12382 5.49875C8.12382 4.87516 7.87625 4.27739 7.43595 3.83855V3.83848Z" fill="currentColor"/>
<path d="M32.5019 15.5034C31.6136 15.642 30.7919 15.8121 30.0012 16H30.0009C28.2868 16.4014 26.6124 16.9602 24.9993 17.6693C24.1448 18.051 23.31 18.4768 22.4986 18.9444C20.7216 19.9975 19.0484 21.2186 17.5013 22.5913C16.613 23.352 15.8046 24.1039 15.0006 24.8287C13.3882 26.256 11.838 27.5137 9.99902 28.3324H9.99871C9.18813 28.6995 8.35249 29.0075 7.49796 29.2544C6.42031 29.5837 5.30173 29.7585 4.17545 29.7735C3.61246 29.7769 3.051 29.7186 2.50075 29.599C1.55509 29.4367 0.681922 28.9854 0 28.3055V31.0398C0.175371 31.2258 0.373982 31.3884 0.590877 31.523C0.83628 31.685 1.09655 31.8229 1.36798 31.9347C1.53777 32.0068 1.71128 32.0695 1.8879 32.1226C2.08868 32.1891 2.29349 32.2428 2.50078 32.2836C3.04426 32.3973 3.59826 32.4528 4.15319 32.4494C5.28629 32.4356 6.41201 32.264 7.498 31.939C8.35069 31.6975 9.18602 31.3984 9.99874 31.0442C11.7624 30.2876 13.4393 29.3409 15.0006 28.2206C15.9156 27.5717 16.7286 26.905 17.5014 26.2383C19.2115 24.7572 20.6996 23.2805 22.4986 21.9826C22.6895 21.8441 22.885 21.7098 23.0848 21.5753V21.5756C23.7011 21.158 24.3403 20.7753 24.9994 20.4301C26.5849 19.6148 28.2652 19.0018 30.001 18.6044C30.7737 18.4165 31.6044 18.2555 32.5017 18.1212H32.502C34.1579 17.8765 35.8264 17.727 37.4993 17.6736C38.2943 17.6424 39.125 17.6243 40 17.6243V14.9393C39.1117 14.9393 38.2986 14.9393 37.4993 14.9974V14.9977C35.8249 15.0673 34.1563 15.2362 32.502 15.5033L32.5019 15.5034Z" fill="currentColor"/>
<path d="M17.23 28.9374H38.9115L28.0684 21.554L17.23 28.9374Z" fill="currentColor"/>
<path d="M19.9755 29.6088L17.9678 39.6681H25.9768L28.0689 34.0298L30.1657 39.6681H38.1747L36.1669 29.6088H19.9755Z" fill="currentColor"/>
</svg>
