<svg width="40" height="40" viewBox="0 0 40 40" fill="currentColor" xmlns="http://www.w3.org/2000/svg">
<path d="M10.4906 21.3118C10.4906 20.7031 10.7325 20.1194 11.1628 19.6888C11.5934 19.2585 12.1771 19.0167 12.7857 19.0167H27.2122C27.8208 19.0167 28.4045 19.2585 28.8351 19.6888C29.2655 20.1194 29.5073 20.7032 29.5073 21.3118C29.5676 22.3586 29.2801 23.3961 28.6896 24.2626H33.1139C33.6572 24.2626 34.0975 23.8223 34.0975 23.279V0.98362C34.0975 0.440287 33.6572 0 33.1139 0H6.88401C6.34068 0 5.90039 0.440287 5.90039 0.98362V23.279C5.90039 23.8223 6.34068 24.2626 6.88401 24.2626H11.3082C10.7178 23.3961 10.4303 22.3586 10.4906 21.3118H10.4906ZM13.4415 13.1146C13.3086 13.1148 13.1889 13.0349 13.1379 12.9123C13.0873 12.7896 13.1154 12.6482 13.2094 12.5545L14.193 11.5709C14.3212 11.4427 14.529 11.4427 14.6573 11.5709C14.7855 11.6991 14.7855 11.907 14.6573 12.0352L13.6736 13.0188C13.6122 13.0803 13.5284 13.1148 13.4415 13.1146H13.4415ZM20.8869 15.6418L20.2311 16.2976C20.1029 16.4258 19.8951 16.4258 19.7669 16.2976C19.6386 16.1694 19.6386 15.9615 19.7669 15.8333L20.4226 15.1776C20.5508 15.0493 20.7587 15.0493 20.8869 15.1776C21.0151 15.3058 21.0151 15.5136 20.8869 15.6418ZM28.1001 13.0189L24.8214 16.2976C24.6931 16.4258 24.4853 16.4258 24.3571 16.2976C24.2289 16.1694 24.2289 15.9615 24.3571 15.8333L27.6358 12.5546C27.764 12.4263 27.9719 12.4263 28.1001 12.5546C28.2283 12.6828 28.2283 12.8906 28.1001 13.0189ZM28.1001 8.42863L22.8541 13.6746C22.7259 13.8028 22.5181 13.8028 22.3898 13.6746C22.2616 13.5464 22.2616 13.3385 22.3898 13.2103L27.6358 7.96434C27.764 7.83612 27.9719 7.83612 28.1001 7.96434C28.2283 8.09256 28.2283 8.30041 28.1001 8.42863ZM28.1001 3.37413C28.1619 3.43561 28.1964 3.51904 28.1964 3.60628C28.1964 3.69352 28.1619 3.77695 28.1001 3.83843L14.3294 17.6091C14.2012 17.7373 13.9934 17.7373 13.8651 17.6091C13.7369 17.4809 13.7369 17.273 13.8651 17.1448L27.6358 3.37414C27.6973 3.31237 27.7807 3.27783 27.868 3.27783C27.9552 3.27783 28.0386 3.31237 28.1001 3.37414L28.1001 3.37413ZM21.5426 5.34137C21.6044 5.40285 21.639 5.48628 21.639 5.57352C21.639 5.66076 21.6044 5.74419 21.5426 5.80567L17.936 9.41228C17.8078 9.5405 17.6 9.5405 17.4717 9.41228C17.3435 9.28406 17.3435 9.07621 17.4717 8.94799L21.0783 5.34138C21.1398 5.27961 21.2233 5.24507 21.3105 5.24507C21.3977 5.24507 21.4812 5.27961 21.5426 5.34138L21.5426 5.34137ZM11.57 9.60373L17.7996 3.37413C17.9279 3.24592 18.1357 3.24592 18.2639 3.37413C18.3921 3.50235 18.3921 3.71021 18.2639 3.83843L12.0343 10.068C11.9061 10.1962 11.6983 10.1962 11.57 10.068C11.4418 9.9398 11.4418 9.73195 11.57 9.60373Z" fill="currentColor"/>
<path d="M16.0657 27.541H23.9346C24.1158 27.541 24.2625 27.7222 24.2625 27.8689V29.1804C24.2625 29.3616 24.1158 29.5083 23.9346 29.5083H16.0657C15.8845 29.5083 15.7378 29.327 15.7378 29.1804V27.8689C15.7378 27.6877 15.8845 27.541 16.0657 27.541Z" fill="currentColor"/>
<path d="M22.1801 33.0893C22.3967 33.7304 22.3054 34.4353 21.9321 34.9997C26.7112 35.846 31.605 35.8094 36.3713 34.892C36.0282 34.3106 35.9714 33.6036 36.217 32.9745C33.7471 33.4373 31.2395 33.6683 28.7266 33.6651C26.5316 33.6659 24.341 33.4733 22.1802 33.0892L22.1801 33.0893Z" fill="currentColor"/>
<path d="M7.86816 32.8642C11.3202 33.1693 14.7974 32.9995 18.2035 32.3601C18.6326 31.8027 19.296 31.476 19.9995 31.476C20.703 31.476 21.3663 31.8027 21.7955 32.3601C25.2015 32.9986 28.6788 33.1684 32.1308 32.8642V24.9188H7.86816V32.8642ZM15.0814 27.8695C15.0814 27.3261 15.5217 26.8858 16.065 26.8858H23.934C24.4773 26.8858 24.9176 27.3261 24.9176 27.8695V29.181C24.9176 29.7243 24.4773 30.1646 23.934 30.1646H16.065C15.5217 30.1646 15.0814 29.7243 15.0814 29.181V27.8695Z" fill="currentColor"/>
<path d="M21.6395 35.6071V40.0006H31.8032C31.8902 40.0006 31.9736 39.9661 32.0351 39.9046C32.0966 39.8431 32.1311 39.7597 32.1311 39.6727V36.1428C31.1083 36.2274 29.9671 36.2845 28.7364 36.2845C26.3544 36.2871 23.9776 36.0602 21.6392 35.6071L21.6395 35.6071Z" fill="currentColor"/>
<path d="M21.6401 33.7711C21.6401 34.6765 20.9061 35.4104 20.0007 35.4104C19.0952 35.4104 18.3613 34.6765 18.3613 33.7711C18.3613 32.8656 19.0952 32.1317 20.0007 32.1317C20.9061 32.1317 21.6401 32.8656 21.6401 33.7711Z" fill="currentColor"/>
<path d="M19.0161 35.8358V40.0004H20.9834V35.8358C20.3636 36.1426 19.6359 36.1426 19.0161 35.8358Z" fill="currentColor"/>
<path d="M39.9999 33.7711C39.9999 34.6765 39.266 35.4104 38.3606 35.4104C37.4551 35.4104 36.7212 34.6765 36.7212 33.7711C36.7212 32.8656 37.4551 32.1317 38.3606 32.1317C39.266 32.1317 39.9999 32.8656 39.9999 33.7711Z" fill="currentColor"/>
<path d="M37.377 35.8358V40.0004H39.3442V35.8358C38.7245 36.1426 37.9967 36.1426 37.377 35.8358Z" fill="currentColor"/>
<path d="M28.8517 21.3119C28.8517 20.8771 28.6789 20.46 28.3716 20.1526C28.0642 19.8452 27.647 19.6725 27.2123 19.6725H12.7859C12.3511 19.6725 11.934 19.8452 11.6266 20.1526C11.3192 20.46 11.1465 20.8771 11.1465 21.3119C11.1465 23.3866 11.989 24.1041 12.2221 24.2627H27.7764C28.0094 24.1041 28.8519 23.3866 28.8519 21.3119H28.8517Z" fill="currentColor"/>
<path d="M0.655273 35.8358V40.0004H2.62251V35.8358C2.00278 36.1426 1.27505 36.1426 0.655273 35.8358Z" fill="currentColor"/>
<path d="M7.86805 36.143V39.6729C7.86805 39.7599 7.90259 39.8433 7.96407 39.9048C8.02554 39.9663 8.10897 40.0008 8.19592 40.0008H18.3596V35.6073C16.0212 36.0602 13.6444 36.2865 11.2623 36.2832C10.0316 36.2847 8.89057 36.2276 7.86768 36.143L7.86805 36.143Z" fill="currentColor"/>
<path d="M18.068 34.9991C17.6948 34.4347 17.6034 33.7297 17.8201 33.0886C15.6593 33.4727 13.4688 33.6653 11.2737 33.6645C8.76081 33.6683 6.25316 33.437 3.78328 32.9739C4.02889 33.6027 3.97239 34.3091 3.62988 34.8908C8.39577 35.8071 13.2892 35.8439 18.0683 34.9991L18.068 34.9991Z" fill="currentColor"/>
<path d="M3.27873 33.7711C3.27873 34.6765 2.54482 35.4104 1.63937 35.4104C0.733911 35.4104 0 34.6765 0 33.7711C0 32.8656 0.733911 32.1317 1.63937 32.1317C2.54482 32.1317 3.27873 32.8656 3.27873 33.7711Z" fill="currentColor"/>
</svg>
