<svg width="45" height="42" viewBox="0 0 45 42" fill="none" xmlns="http://www.w3.org/2000/svg">
<path fill-rule="evenodd" clip-rule="evenodd" d="M22.5002 9.1875C17.2985 9.1875 12.7444 12.0946 9.61502 14.7846C8.02522 16.1511 6.74298 17.5136 5.85828 18.5335C5.41507 19.0444 5.0694 19.4719 4.83255 19.7745C4.71407 19.9258 4.62266 20.0461 4.55975 20.1301C4.52829 20.1721 4.50393 20.205 4.48687 20.2282L4.46675 20.2557L4.46083 20.2639L3.94775 21.0231L4.45892 21.7334L4.46083 21.736L4.46675 21.7443L4.48687 21.7717C4.50393 21.795 4.52829 21.8279 4.55975 21.8699C4.62266 21.9539 4.71407 22.0741 4.83255 22.2255C5.0694 22.5281 5.41507 22.9556 5.85828 23.4664C6.74298 24.4863 8.02522 25.8489 9.61502 27.2155C12.7444 29.9054 17.2985 32.8125 22.5002 32.8125C27.7018 32.8125 32.2558 29.9054 35.3852 27.2155C36.975 25.8489 38.2573 24.4863 39.1419 23.4664C39.5852 22.9556 39.9307 22.5281 40.1677 22.2255C40.2861 22.0741 40.3776 21.9539 40.4404 21.8699C40.4719 21.8279 40.4962 21.795 40.5133 21.7717L40.5334 21.7443L40.5394 21.736L40.542 21.7325L41.0691 21L40.5412 20.2666L40.5394 20.2639L40.5334 20.2557L40.5133 20.2282C40.4962 20.205 40.4719 20.1721 40.4404 20.1301C40.3776 20.0461 40.2861 19.9258 40.1677 19.7745C39.9307 19.4719 39.5852 19.0444 39.1419 18.5335C38.2573 17.5136 36.975 16.1511 35.3852 14.7846C32.2558 12.0946 27.7018 9.1875 22.5002 9.1875ZM8.04416 21.8148C7.77532 21.5049 7.54646 21.2294 7.36078 21C7.54646 20.7706 7.77532 20.4951 8.04416 20.1852C8.86732 19.2363 10.0564 17.9739 11.5204 16.7154C14.4985 14.1554 18.3819 11.8125 22.5002 11.8125C26.6182 11.8125 30.5017 14.1554 33.4798 16.7154C34.9438 17.9739 36.1329 19.2363 36.9561 20.1852C37.2249 20.4951 37.4537 20.7706 37.6395 21C37.4537 21.2294 37.2249 21.5049 36.9561 21.8148C36.1329 22.7636 34.9438 24.0261 33.4798 25.2845C30.5017 27.8446 26.6182 30.1875 22.5002 30.1875C18.3819 30.1875 14.4985 27.8446 11.5204 25.2845C10.0564 24.0261 8.86732 22.7636 8.04416 21.8148ZM26.7187 21C26.7187 23.1745 24.8301 24.9375 22.5 24.9375C20.1701 24.9375 18.2813 23.1745 18.2813 21C18.2813 18.8254 20.1701 17.0625 22.5 17.0625C24.8301 17.0625 26.7187 18.8254 26.7187 21ZM29.5312 21C29.5312 24.6244 26.3833 27.5625 22.5 27.5625C18.6168 27.5625 15.4688 24.6244 15.4688 21C15.4688 17.3756 18.6168 14.4375 22.5 14.4375C26.3833 14.4375 29.5312 17.3756 29.5312 21Z" fill="#007BBE"/>
</svg>
