<svg width="34" height="41" viewBox="0 0 34 41" fill="currentColor" xmlns="http://www.w3.org/2000/svg">
<path d="M18.0453 0.00412848C17.9111 0.00178941 17.7822 0.00847253 17.6513 0.0191653C15.8212 0.169866 14.2872 1.57664 14.0602 3.4472C13.8011 5.58508 15.3515 7.5322 17.5146 7.78848C18.5333 7.90911 19.4971 7.58866 20.2724 7.03999C20.6069 7.21976 20.9664 7.38216 21.3635 7.42927C22.0808 7.51415 22.7444 7.30096 23.318 6.9501C23.64 7.6057 24.1983 8.1293 24.9847 8.22254C25.2059 8.24894 25.4051 8.19949 25.606 8.16273C25.6702 8.40064 25.6996 8.64792 25.8938 8.88115C25.981 8.98574 26.1488 9.18055 26.6818 9.5548V9.55513C26.7586 9.62731 26.8638 9.66273 26.9696 9.65204C27.0751 9.64101 27.1709 9.58521 27.2311 9.49899C27.2916 9.41278 27.3109 9.30452 27.2838 9.20327C27.2571 9.10169 27.1864 9.01681 27.0907 8.97104C26.5915 8.62051 26.5655 8.55101 26.4542 8.41702C26.3044 8.23691 26.2316 7.98195 26.1816 7.71329V7.71362C26.161 7.61338 26.0977 7.5265 26.0081 7.47504C25.9181 7.42324 25.8106 7.41222 25.7122 7.44429C25.5001 7.51079 25.2877 7.54421 25.0756 7.51914C24.4327 7.44262 23.941 6.9825 23.7877 6.39811C23.7576 6.28082 23.6694 6.18625 23.5534 6.14716C23.437 6.10773 23.3088 6.12912 23.2121 6.20363C22.7383 6.58757 22.1001 6.79074 21.4392 6.71254C21.0661 6.66844 20.7435 6.55449 20.4543 6.36837C20.3211 6.27515 20.1415 6.28149 20.015 6.38307C19.3612 6.90702 18.5103 7.17869 17.606 7.07176C15.8328 6.86158 14.5753 5.27673 14.7876 3.52371C15 1.77077 16.6055 0.529379 18.3788 0.739215C19.3285 0.851823 20.1124 1.35505 20.6211 2.07145V2.07179C20.7131 2.20044 20.8788 2.2549 21.0303 2.20645C21.335 2.11255 21.659 2.09116 21.9999 2.1316C23.1715 2.27027 24.0316 3.21825 24.0606 4.34698C24.0647 4.46727 24.1293 4.57754 24.2328 4.6407C24.3363 4.70386 24.4651 4.71154 24.5757 4.66142C24.8328 4.53577 25.1358 4.47563 25.4395 4.51172C26.2783 4.61097 26.8735 5.37416 26.7727 6.20315C26.7771 6.16773 26.7747 6.18377 26.7575 6.278V6.27834C26.7196 6.46746 26.84 6.65258 27.0304 6.69736C27.3784 6.77722 27.7877 7.02081 28.0305 7.43082C28.3187 7.91734 28.3863 8.58333 28.3789 9.24227C28.3768 9.3375 28.413 9.42972 28.48 9.49856C28.5466 9.56706 28.6383 9.60682 28.735 9.60883C28.9356 9.61318 29.102 9.45546 29.106 9.2573C29.1138 8.54823 29.0546 7.75261 28.6515 7.07161C28.361 6.58074 27.9294 6.29804 27.4846 6.12867C27.5414 4.97453 26.7077 3.94802 25.5301 3.80833C25.2342 3.77324 24.9684 3.86981 24.6968 3.94299C24.483 2.64514 23.4745 1.57688 22.0905 1.41315C21.7337 1.37072 21.3931 1.42852 21.0604 1.50304C20.436 0.726477 19.528 0.163103 18.4541 0.0361577C18.3188 0.0201184 18.1791 0.00875764 18.0449 0.00608444L18.0453 0.00412848ZM26.5604 10.9322V11.2316H29.9091V10.9322H26.5604ZM26.7424 11.965L26.0301 23.0573H30.5452L29.818 11.965H26.7424ZM9.45469 17.2794L0 23.6265V40.0037H4.99973V31.2159H10.7425V40.0037H34V23.7908H20.1669L20.1665 23.7914C19.9657 23.7914 19.803 23.6304 19.803 23.4319C19.7367 21.4199 19.7374 18.4881 19.7272 17.2427C17.1443 19.0248 11.4929 22.809 10.0907 23.6714C9.97943 23.7426 9.83772 23.7479 9.72105 23.6855C9.60436 23.6233 9.53131 23.503 9.5303 23.372L9.45454 17.2307L9.45469 17.2794ZM19.1518 27.0697H22.1369V28.941H19.1518V27.0697ZM23.9246 27.0697H26.9097V28.941H23.9246V27.0697ZM28.6974 27.0697H31.6825V28.941H28.6974V27.0697ZM19.1518 32.7282H22.1369V34.6145H19.1518V32.7282ZM23.9246 32.7282H26.9097V34.6145H23.9246V32.7282ZM28.6974 32.7282H31.6825V34.6145H28.6974V32.7282Z" fill="currentColor"/>
</svg>
