<?xml version="1.0" encoding="utf-8"?>
<!-- Generator: Adobe Illustrator 27.6.1, SVG Export Plug-In . SVG Version: 6.00 Build 0)  -->
<svg version="1.1" id="Слой_1" xmlns="http://www.w3.org/2000/svg" xmlns:xlink="http://www.w3.org/1999/xlink" x="0px" y="0px"
	 viewBox="0 0 803.9 720" style="enable-background:new 0 0 803.9 720;" xml:space="preserve">
<style type="text/css">
	.st0{display:none;}
	.st1{display:inline;}
	.st2{fill:#1C3500;}
	.st3{display:none;fill:#FFFFFF;}
	.st4{display:inline;fill:#FFFFFF;}
	.st5{fill:url(#SVGID_1_);}
	.st6{fill:#8FFDFF;}
	.st7{fill:url(#SVGID_00000093893726489466358180000002344910336181005235_);}
	.st8{fill:#FFDE4C;}
	.st9{fill:#21A327;}
	.st10{fill:#0051BF;}
	.st11{fill:#E56200;}
	.st12{fill:url(#SVGID_00000020401101423091147630000018204963195303531160_);}
	.st13{display:inline;fill:url(#SVGID_00000104698914540191962790000011191338109976920767_);}
	.st14{display:inline;fill:#FFDE4C;}
	.st15{display:inline;fill:#21A327;}
	.st16{display:inline;fill:#0051BF;}
	.st17{display:inline;fill:#E56200;}
	.st18{fill:#FFFFFF;}
	.st19{fill:url(#SVGID_00000078763868933139051810000000474674591059006395_);}
	.st20{fill:url(#SVGID_00000122708206054928983590000002158653024658214033_);}
	.st21{fill:#0071BC;}
	.st22{display:inline;fill:url(#SVGID_00000045611774543592808830000013491858380716446875_);}
	.st23{display:inline;fill:url(#SVGID_00000025438961306553677240000013468459647392603285_);}
	.st24{display:inline;fill:#0071BC;}
</style>
<g id="Слой_2_00000150065916742605470780000003158843658159077268_" class="st0">
	<g id="Слой_3" class="st1">
		<rect x="-717.8" y="-262.2" class="st2" width="1920" height="1080"/>
	</g>
</g>
<g id="Слой_1_00000165203785600462674480000008618135795918852757_">
	<path class="st3" d="M229.9,415.1h-61.8c-14.7,0-26.7-12-26.7-26.7V337c0-14.7,12-26.7,26.7-26.7h61.8c14.7,0,26.7,12,26.7,26.7
		v51.4C256.6,403.2,244.7,415.1,229.9,415.1z"/>
	<g>
		<g class="st0">
			<path class="st4" d="M132.9,441.3l8.6,23.4l0.9,3.3h-1.9l-10.2-26.8L132.9,441.3L132.9,441.3z M141.8,464.7l8.6-23.4h2.5
				l-10.2,26.8h-1.9L141.8,464.7z"/>
			<path class="st4" d="M160.2,458.4v-0.6c0-1.5,0.2-2.8,0.6-4c0.4-1.2,1-2.3,1.8-3.2s1.8-1.6,2.9-2.1c1.1-0.5,2.3-0.7,3.7-0.7
				s2.6,0.2,3.7,0.7c1.1,0.5,2.1,1.2,2.9,2.1s1.4,2,1.8,3.2c0.4,1.2,0.6,2.6,0.6,4v0.6c0,1.5-0.2,2.8-0.6,4s-1,2.3-1.8,3.2
				s-1.8,1.6-2.9,2.1s-2.3,0.7-3.7,0.7s-2.6-0.2-3.7-0.7s-2.1-1.2-2.9-2.1s-1.4-2-1.8-3.2C160.4,461.2,160.2,459.8,160.2,458.4z
				 M162.4,457.8v0.6c0,1.1,0.2,2.1,0.5,3.1s0.7,1.8,1.3,2.6s1.3,1.3,2.1,1.8s1.8,0.6,2.9,0.6c1.1,0,2.1-0.2,2.9-0.6
				c0.8-0.4,1.5-1,2.1-1.8s1-1.6,1.3-2.6s0.4-2,0.4-3.1v-0.6c0-1.1-0.2-2.1-0.4-3.1s-0.7-1.8-1.3-2.6s-1.3-1.4-2.2-1.8
				c-0.8-0.4-1.8-0.7-2.9-0.7s-2.1,0.2-2.9,0.7c-0.8,0.4-1.6,1-2.1,1.8s-1,1.6-1.3,2.6S162.4,456.7,162.4,457.8z"/>
			<path class="st4" d="M190.1,439.8V468h-2.2v-28.2H190.1z M202.9,448.2l-9.5,9.2l-4,3.8l-0.3-2.2l3.2-3.4l7.8-7.5L202.9,448.2
				L202.9,448.2z M200.9,468l-8.5-10.3l1.2-1.9l9.9,12.2H200.9L200.9,468z"/>
			<path class="st4" d="M213.9,451.4V468h-2.2v-19.9h2.2V451.4z M221.1,448l-0.1,2c-0.2,0-0.5-0.1-0.7-0.1s-0.5,0-0.8,0
				c-1,0-1.8,0.2-2.6,0.5c-0.7,0.3-1.3,0.8-1.8,1.5s-0.9,1.3-1.1,2.2c-0.3,0.8-0.4,1.7-0.5,2.7l-0.8,0.3c0-1.3,0.1-2.5,0.4-3.6
				c0.3-1.1,0.7-2.1,1.3-2.9c0.6-0.8,1.3-1.5,2.2-2s1.9-0.7,3.1-0.7c0.3,0,0.6,0,0.8,0.1S221,448,221.1,448z"/>
			<path class="st4" d="M243,459.8h1.2c0,1.2-0.2,2.4-0.5,3.5s-0.8,2-1.4,2.8c-0.6,0.8-1.5,1.4-2.5,1.8s-2.2,0.6-3.7,0.6
				c-1,0-1.9-0.1-2.7-0.4s-1.5-0.7-2.1-1.3s-1-1.4-1.4-2.3c-0.3-1-0.5-2.1-0.5-3.5v-12.7h2.2v12.8c0,1.1,0.1,2,0.4,2.7
				c0.2,0.7,0.6,1.3,1,1.7s0.9,0.7,1.5,0.9s1.2,0.3,1.8,0.3c1.7,0,3-0.3,3.9-0.9c1-0.6,1.6-1.5,2-2.5C242.8,462,243,460.9,243,459.8
				z M242.6,463.4v-15.3h2.2V468h-2.2V463.4z"/>
			<path class="st4" d="M254.8,458.3v-0.4c0-1.5,0.2-2.9,0.5-4.2s0.9-2.3,1.5-3.2c0.7-0.9,1.5-1.6,2.5-2s2.1-0.7,3.3-0.7
				s2.2,0.2,3.1,0.6c0.9,0.4,1.7,0.9,2.4,1.6c0.7,0.7,1.2,1.6,1.6,2.5c0.4,1,0.7,2.1,0.9,3.3v4.9c-0.2,1.1-0.4,2.2-0.8,3.1
				c-0.4,0.9-0.9,1.8-1.6,2.4c-0.7,0.7-1.5,1.2-2.4,1.6c-0.9,0.4-2,0.6-3.2,0.6s-2.3-0.2-3.3-0.7s-1.8-1.2-2.5-2.1s-1.2-2-1.5-3.2
				S254.8,459.8,254.8,458.3z M269.1,448.2h2.1v19.5c0,1.7-0.3,3.2-1,4.5s-1.6,2.2-2.8,2.8c-1.2,0.7-2.7,1-4.3,1
				c-0.8,0-1.7-0.1-2.6-0.4s-1.7-0.6-2.5-1.1s-1.5-1.1-2-1.9l1.3-1.3c0.8,1,1.7,1.7,2.6,2.2c0.9,0.5,2,0.7,3,0.7
				c1.3,0,2.4-0.2,3.3-0.8s1.6-1.2,2-2.2c0.5-0.9,0.7-2.1,0.7-3.4v-15.2L269.1,448.2z M257.1,457.9v0.4c0,1.2,0.1,2.2,0.4,3.2
				s0.6,1.9,1.1,2.6c0.5,0.7,1.1,1.3,1.9,1.7s1.6,0.6,2.6,0.6c1.3,0,2.4-0.2,3.2-0.7c0.9-0.5,1.6-1.1,2.1-1.9s0.9-1.7,1.1-2.6v-5.7
				c-0.1-0.7-0.3-1.3-0.6-2s-0.7-1.3-1.2-1.9s-1.1-1-1.9-1.4s-1.7-0.5-2.8-0.5c-1,0-1.9,0.2-2.7,0.6c-0.8,0.4-1.4,1-1.9,1.7
				s-0.8,1.6-1.1,2.6C257.2,455.7,257.1,456.8,257.1,457.9z"/>
		</g>
	</g>
	<g class="st0">
		<g class="st1">
			
				<linearGradient id="SVGID_1_" gradientUnits="userSpaceOnUse" x1="1451.8385" y1="4106.4912" x2="1393.6237" y2="4065.1514" gradientTransform="matrix(0.5264 0.8772 -0.4655 0.2926 1333.9353 -2085.8547)">
				<stop  offset="0" style="stop-color:#0051BF"/>
				<stop  offset="0.3407" style="stop-color:#2883D7"/>
				<stop  offset="0.7869" style="stop-color:#57BFF4"/>
				<stop  offset="1" style="stop-color:#6AD7FF"/>
			</linearGradient>
			<path class="st5" d="M203.5,396.6c-28.5-9.9-49-29.8-48.1-50.9c0.2-5,2.5-13.5,10.6-18.9c7.1-4.8,15.6-3.5,19.5-1.8
				C204.4,333.3,209.5,363.2,203.5,396.6z"/>
		</g>
		<g class="st1">
			<circle class="st6" cx="178.8" cy="348.2" r="12.6"/>
		</g>
	</g>
	<g class="st0">
		<g class="st1">
			
				<linearGradient id="SVGID_00000132785615987317683030000011851535433216528554_" gradientUnits="userSpaceOnUse" x1="3114.03" y1="1724.8594" x2="3057.9521" y2="1685.037" gradientTransform="matrix(-0.2904 0.9929 -0.5005 -0.1527 1965.9657 -2449.0757)">
				<stop  offset="0" style="stop-color:#FF0E00"/>
				<stop  offset="0.3451" style="stop-color:#F64100"/>
				<stop  offset="0.7883" style="stop-color:#EA7D00"/>
				<stop  offset="1" style="stop-color:#E69500"/>
			</linearGradient>
			<path style="fill:url(#SVGID_00000132785615987317683030000011851535433216528554_);" d="M204.1,397.2
				c-11.8-28.2-11.4-56.6,3.8-69.5c3.6-3.1,11-6.8,20-4.1c8,2.3,12.6,9.6,14,13.8C248.5,357.2,231.1,380.3,204.1,397.2z"/>
			
				<ellipse transform="matrix(0.6021 -0.7984 0.7984 0.6021 -189.3374 313.9081)" class="st8" cx="220.3" cy="346.9" rx="11.8" ry="11.4"/>
		</g>
		<g class="st1">
			<path class="st9" d="M242.6,378.6c26.9,4,28.6,17.7,3.2,27.7c-28.6,10.8-61.1,10.9-89.8,0.5c-6.5-2.7-13.6-5.5-17.8-11.5
				c-5.5-8.8,6.1-13.5,12.9-15.2c1.8-0.4,3.7-0.8,5.5-1.2c-0.8,0.5-1.6,0.9-2.5,1.3c-3.8,2.1-8,4.4-10.9,7.6c-2,2.3-1.3,3.4,1.3,5.2
				c4.2,2.7,9.2,4.1,14.1,5.5c6.8,1.7,13.9,3,21,3.8c14.1,1.7,28.4,1.6,42.5-0.2c10.4-1.4,21.1-3.2,30.6-7.4c2.1-1,3.9-2,5.2-3.6
				c0.6-0.9,0.5-1.3-0.1-2.3c-1.4-2-3.5-3.4-5.6-4.9C249.2,382,245.8,380.3,242.6,378.6L242.6,378.6z"/>
		</g>
		<g class="st1">
			<path class="st10" d="M161.6,372.1c-29.1,13.1,7.8,20.8,20.9,21.8c11.6,1.2,23.4,1.2,35.1,0c7-0.4,42.5-5.6,29.4-17.2
				c-2.2-1.8-4.9-3.2-7.6-4.5c7.6,1.9,17.8,8.1,8.7,15.8c-18.8,13.4-62.1,12.7-83.6,5.8C148,389.1,140.9,378.1,161.6,372.1
				L161.6,372.1z"/>
		</g>
		<g class="st1">
			<path class="st11" d="M169.1,374.3c-1.9,1.1-9,4.8-7,7.3c6.4,5.6,27.8,5.8,36.8,5.9c8.9-0.2,30.3-0.3,36.8-5.9
				c2-2.5-5.2-6.2-7-7.3c4.6,0.4,12.9,2.9,10.5,9.1c-2.5,4.8-8,6.6-12.7,8.3c-13.4,4.1-27.6,4.6-41.5,3c-8.1-1.2-16.8-2.8-23.6-7.8
				c-2.4-1.8-4.5-5.5-2.2-8.3C161.7,375.6,165.6,374.9,169.1,374.3L169.1,374.3z"/>
		</g>
	</g>
	<path class="st3" d="M229.9,627.5h-66.7c-14.7,0-26.7-12-26.7-26.7v-58.5c0-14.7,12-26.7,26.7-26.7H230c14.7,0,26.7,12,26.7,26.7
		v58.5C256.6,615.6,244.7,627.5,229.9,627.5z"/>
	<g>
		<g class="st0">
			<path class="st4" d="M130.3,638.7l8.6,23.4l0.9,3.3h-1.9l-10.2-26.8L130.3,638.7L130.3,638.7z M139.2,662.1l8.6-23.4h2.5
				l-10.1,26.8h-1.9L139.2,662.1z"/>
			<path class="st4" d="M157.6,655.8v-0.6c0-1.5,0.2-2.8,0.6-4c0.4-1.2,1-2.3,1.8-3.2s1.8-1.6,2.9-2.1c1.1-0.5,2.3-0.7,3.7-0.7
				s2.6,0.2,3.7,0.7c1.1,0.5,2.1,1.2,2.9,2.1s1.4,2,1.8,3.2c0.4,1.2,0.6,2.6,0.6,4v0.6c0,1.5-0.2,2.8-0.6,4s-1,2.3-1.8,3.2
				s-1.8,1.6-2.9,2.1s-2.3,0.7-3.7,0.7s-2.6-0.2-3.7-0.7s-2.1-1.2-2.9-2.1s-1.4-2-1.8-3.2C157.8,658.6,157.6,657.3,157.6,655.8z
				 M159.8,655.3v0.6c0,1.1,0.2,2.1,0.5,3.1s0.7,1.8,1.3,2.6s1.3,1.3,2.1,1.8s1.8,0.6,2.9,0.6c1.1,0,2.1-0.2,2.9-0.6
				c0.8-0.4,1.5-1,2.1-1.8s1-1.6,1.3-2.6s0.4-2,0.4-3.1v-0.6c0-1.1-0.2-2.1-0.4-3.1s-0.7-1.8-1.3-2.6s-1.3-1.4-2.2-1.8
				c-0.8-0.4-1.8-0.7-2.9-0.7s-2.1,0.2-2.9,0.7c-0.8,0.4-1.6,1-2.1,1.8s-1,1.6-1.3,2.6C160,653.1,159.8,654.2,159.8,655.3z"/>
			<path class="st4" d="M187.5,637.3v28.2h-2.2v-28.2H187.5z M200.3,645.6l-9.5,9.2l-4,3.8l-0.3-2.2l3.2-3.4l7.8-7.5L200.3,645.6
				L200.3,645.6z M198.3,665.5l-8.5-10.3l1.2-1.9l9.9,12.2H198.3L198.3,665.5z"/>
			<path class="st4" d="M211.4,648.9v16.6h-2.2v-19.9h2.2V648.9z M218.5,645.5l-0.1,2c-0.2,0-0.5-0.1-0.7-0.1s-0.5,0-0.8,0
				c-1,0-1.8,0.2-2.6,0.5c-0.7,0.3-1.3,0.8-1.8,1.5s-0.9,1.3-1.1,2.2c-0.3,0.8-0.4,1.7-0.5,2.7l-0.8,0.3c0-1.3,0.1-2.5,0.4-3.6
				c0.3-1.1,0.7-2.1,1.3-2.9c0.6-0.8,1.3-1.5,2.2-2s1.9-0.7,3.1-0.7c0.3,0,0.6,0,0.8,0.1S218.4,645.4,218.5,645.5z"/>
			<path class="st4" d="M240.4,657.2h1.2c0,1.2-0.2,2.4-0.5,3.5s-0.8,2-1.4,2.8c-0.6,0.8-1.5,1.4-2.5,1.8s-2.2,0.6-3.7,0.6
				c-1,0-1.9-0.1-2.7-0.4s-1.5-0.7-2.1-1.3s-1-1.4-1.4-2.3c-0.3-1-0.5-2.1-0.5-3.5v-12.7h2.2v12.8c0,1.1,0.1,2,0.4,2.7
				c0.2,0.7,0.6,1.3,1,1.7s0.9,0.7,1.5,0.9s1.2,0.3,1.8,0.3c1.7,0,3-0.3,3.9-0.9c1-0.6,1.6-1.5,2-2.5
				C240.2,659.5,240.4,658.4,240.4,657.2z M240,660.9v-15.3h2.2v19.9H240V660.9z"/>
			<path class="st4" d="M252.2,655.7v-0.4c0-1.5,0.2-2.9,0.5-4.2s0.9-2.3,1.5-3.2c0.7-0.9,1.5-1.6,2.5-2s2.1-0.7,3.3-0.7
				s2.2,0.2,3.1,0.6c0.9,0.4,1.7,0.9,2.4,1.6c0.7,0.7,1.2,1.6,1.6,2.5c0.4,1,0.7,2.1,0.9,3.3v4.9c-0.2,1.1-0.4,2.2-0.8,3.1
				c-0.4,0.9-0.9,1.8-1.6,2.4c-0.7,0.7-1.5,1.2-2.4,1.6c-0.9,0.4-2,0.6-3.2,0.6s-2.3-0.2-3.3-0.7s-1.8-1.2-2.5-2.1s-1.2-2-1.5-3.2
				S252.2,657.2,252.2,655.7z M266.5,645.6h2.1v19.5c0,1.7-0.3,3.2-1,4.5s-1.6,2.2-2.8,2.8c-1.2,0.7-2.7,1-4.3,1
				c-0.8,0-1.7-0.1-2.6-0.4s-1.7-0.6-2.5-1.1s-1.5-1.1-2-1.9l1.3-1.3c0.8,1,1.7,1.7,2.6,2.2c0.9,0.5,2,0.7,3,0.7
				c1.3,0,2.4-0.2,3.3-0.8s1.6-1.2,2-2.2c0.5-0.9,0.7-2.1,0.7-3.4V650L266.5,645.6z M254.5,655.4v0.4c0,1.2,0.1,2.2,0.4,3.2
				s0.6,1.9,1.1,2.6c0.5,0.7,1.1,1.3,1.9,1.7s1.6,0.6,2.6,0.6c1.3,0,2.4-0.2,3.2-0.7c0.9-0.5,1.6-1.1,2.1-1.9s0.9-1.7,1.1-2.6V653
				c-0.1-0.7-0.3-1.3-0.6-2s-0.7-1.3-1.2-1.9s-1.1-1-1.9-1.4s-1.7-0.5-2.8-0.5c-1,0-1.9,0.2-2.7,0.6c-0.8,0.4-1.4,1-1.9,1.7
				s-0.8,1.6-1.1,2.6C254.6,653.1,254.5,654.2,254.5,655.4z"/>
		</g>
	</g>
	<g class="st0">
		<g class="st1">
			
				<linearGradient id="SVGID_00000110438156440649483710000006285392288793605287_" gradientUnits="userSpaceOnUse" x1="1432.6309" y1="3809.2917" x2="1374.4159" y2="3767.9519" gradientTransform="matrix(0.7246 0.7221 -0.38 0.3974 599.1895 -1949.4824)">
				<stop  offset="0" style="stop-color:#0051BF"/>
				<stop  offset="0.3407" style="stop-color:#2883D7"/>
				<stop  offset="0.7869" style="stop-color:#57BFF4"/>
				<stop  offset="1" style="stop-color:#6AD7FF"/>
			</linearGradient>
			<path style="fill:url(#SVGID_00000110438156440649483710000006285392288793605287_);" d="M207.9,601.8c-30-2.7-54.8-17-59-37.6
				c-1-4.9-0.9-13.7,5.6-21c5.7-6.4,14.2-7.2,18.5-6.5C193.3,540.3,205.5,568,207.9,601.8z"/>
		</g>
		<g class="st1">
			<circle class="st6" cx="172.1" cy="561" r="12.6"/>
		</g>
	</g>
	<g class="st0">
		
			<linearGradient id="SVGID_00000150098232531856799230000008925159917462791566_" gradientUnits="userSpaceOnUse" x1="2981.918" y1="1545.3079" x2="2925.8398" y2="1505.4854" gradientTransform="matrix(-3.920000e-02 1.0337 -0.5227 -2.590000e-02 1123.3851 -2456.0132)">
			<stop  offset="0" style="stop-color:#FF0E00"/>
			<stop  offset="0.3451" style="stop-color:#F64100"/>
			<stop  offset="0.7883" style="stop-color:#EA7D00"/>
			<stop  offset="1" style="stop-color:#E69500"/>
		</linearGradient>
		<path style="display:inline;fill:url(#SVGID_00000150098232531856799230000008925159917462791566_);" d="M208.6,602.3
			c-18.3-24.4-24.9-52.1-13.3-68.3c2.8-3.8,9-9.2,18.4-8.9c8.3,0.3,14.6,6.3,16.9,10C241.9,552.7,230.7,579.4,208.6,602.3z"/>
		
			<ellipse transform="matrix(0.389 -0.9212 0.9212 0.389 -376.885 531.0903)" class="st14" cx="211.9" cy="549.7" rx="11.8" ry="11.4"/>
	</g>
	<g>
		<g class="st0">
			<path class="st15" d="M238.5,575.2c26.8-4.4,32.6,8.1,11.6,25.4c-23.8,19.1-54.7,29.1-85.2,27.9c-7-0.6-14.6-1.1-20.5-5.5
				c-7.9-6.7,1.7-14.7,7.6-18.3c1.6-1,3.2-1.9,4.9-2.8c-0.6,0.7-1.3,1.3-1.9,2c-2.9,3.2-6.2,6.6-8,10.5c-1.2,2.8-0.2,3.6,2.8,4.6
				c4.8,1.3,10,1.1,15.1,0.9c7-0.5,14.1-1.4,21.1-2.8c13.9-2.7,27.5-7.1,40.3-13.2c9.4-4.5,19-9.5,26.8-16.4c1.7-1.6,3.1-3,3.8-5
				c0.3-1,0-1.4-0.8-2.2c-1.9-1.5-4.4-2.2-6.8-2.9C245.9,576.4,242.1,575.8,238.5,575.2L238.5,575.2z"/>
		</g>
		<g class="st0">
			<path class="st16" d="M159.7,593.8c-23.6,21.3,13.7,17.5,26.5,14.3c11.4-2.5,22.6-6,33.3-10.7c6.5-2.5,38.6-18.3,22.6-25.3
				c-2.7-1.1-5.6-1.6-8.5-1.9c7.8-0.5,19.4,2.3,13.1,12.3c-13.7,18.5-55.1,31.1-77.6,31.1C152,614.1,141.9,605.8,159.7,593.8
				L159.7,593.8z"/>
		</g>
		<g class="st0">
			<path class="st17" d="M167.5,593.7c-1.5,1.7-7,7.3-4.4,9.1c7.8,3.3,28.2-3,36.7-5.6c8.4-2.9,28.7-9.6,33.1-16.9
				c1.1-3-6.8-4.3-8.9-4.8c4.5-1,13.1-1.2,12.8,5.4c-0.9,5.3-5.6,8.7-9.5,11.8c-11.5,8-24.8,12.8-38.5,15.5
				c-8.1,1.3-16.8,2.5-24.8-0.2c-2.8-0.9-6-3.8-4.6-7.2C160.8,597.1,164.3,595.3,167.5,593.7L167.5,593.7z"/>
		</g>
	</g>
	<g>
		<g class="st0">
			<path class="st4" d="M333.3,443.7l8.6,23.4l0.9,3.3h-1.9l-10.2-26.8L333.3,443.7L333.3,443.7z M342.2,467.1l8.6-23.4h2.5
				l-10.2,26.8h-1.9L342.2,467.1z"/>
			<path class="st4" d="M360.6,460.8v-0.6c0-1.5,0.2-2.8,0.6-4s1-2.3,1.8-3.2s1.8-1.6,2.9-2.1s2.3-0.7,3.7-0.7
				c1.4,0,2.6,0.2,3.7,0.7s2.1,1.2,2.9,2.1s1.4,2,1.8,3.2s0.6,2.6,0.6,4v0.6c0,1.5-0.2,2.8-0.6,4s-1,2.3-1.8,3.2s-1.8,1.6-2.9,2.1
				s-2.3,0.7-3.7,0.7c-1.4,0-2.6-0.2-3.7-0.7s-2.1-1.2-2.9-2.1s-1.4-2-1.8-3.2S360.6,462.3,360.6,460.8z M362.8,460.2v0.6
				c0,1.1,0.2,2.1,0.4,3.1s0.7,1.8,1.3,2.6c0.6,0.8,1.3,1.3,2.1,1.8s1.8,0.6,2.9,0.6s2.1-0.2,2.9-0.6c0.8-0.4,1.6-1,2.1-1.8
				s1-1.6,1.3-2.6s0.4-2,0.4-3.1v-0.6c0-1.1-0.2-2.1-0.4-3.1s-0.7-1.8-1.3-2.6c-0.6-0.8-1.3-1.4-2.2-1.8s-1.8-0.7-2.9-0.7
				s-2.1,0.2-2.9,0.7c-0.8,0.4-1.6,1-2.1,1.8s-1,1.6-1.3,2.6S362.8,459.1,362.8,460.2z"/>
			<path class="st4" d="M390.6,442.2v28.2h-2.2v-28.2H390.6z M403.3,450.6l-9.5,9.2l-4,3.8l-0.3-2.2l3.2-3.4l7.8-7.5L403.3,450.6
				L403.3,450.6z M401.4,470.4l-8.5-10.3l1.2-1.9l9.9,12.2H401.4L401.4,470.4z"/>
			<path class="st4" d="M414.4,453.8v16.6h-2.2v-19.9h2.2V453.8z M421.5,450.4l-0.1,2c-0.2,0-0.5-0.1-0.7-0.1s-0.5,0-0.8,0
				c-1,0-1.8,0.2-2.6,0.5c-0.7,0.3-1.3,0.8-1.8,1.5s-0.9,1.3-1.1,2.2c-0.3,0.8-0.4,1.7-0.4,2.7l-0.8,0.3c0-1.3,0.1-2.5,0.4-3.6
				s0.7-2.1,1.3-2.9c0.6-0.8,1.3-1.5,2.2-2c0.9-0.5,1.9-0.7,3.1-0.7c0.3,0,0.6,0,0.8,0.1S421.4,450.3,421.5,450.4z"/>
			<path class="st4" d="M443.5,462.2h1.2c0,1.2-0.2,2.4-0.4,3.5s-0.8,2-1.4,2.8s-1.5,1.4-2.5,1.8s-2.2,0.6-3.7,0.6
				c-1,0-1.9-0.1-2.7-0.4c-0.8-0.3-1.5-0.7-2.1-1.3s-1-1.4-1.4-2.3c-0.3-1-0.5-2.1-0.5-3.5v-12.7h2.2v12.8c0,1.1,0.1,2,0.4,2.7
				c0.2,0.7,0.6,1.3,1,1.7s0.9,0.7,1.5,0.9s1.2,0.3,1.8,0.3c1.7,0,2.9-0.3,3.9-0.9s1.6-1.5,2-2.5
				C443.3,464.4,443.5,463.3,443.5,462.2z M443,465.8v-15.3h2.2v19.9H443V465.8z"/>
			<path class="st4" d="M455.2,460.7v-0.4c0-1.5,0.2-2.9,0.5-4.2s0.9-2.3,1.6-3.2s1.5-1.6,2.5-2s2.1-0.7,3.3-0.7
				c1.2,0,2.2,0.2,3.1,0.6s1.7,0.9,2.4,1.6c0.7,0.7,1.2,1.6,1.6,2.5c0.4,1,0.7,2.1,0.9,3.3v4.9c-0.2,1.1-0.4,2.2-0.8,3.1
				c-0.4,0.9-0.9,1.8-1.6,2.4c-0.7,0.7-1.5,1.2-2.4,1.6c-0.9,0.4-2,0.6-3.2,0.6s-2.3-0.2-3.3-0.7s-1.8-1.2-2.5-2.1
				c-0.7-0.9-1.2-2-1.6-3.2S455.2,462.2,455.2,460.7z M469.5,450.6h2.1v19.5c0,1.7-0.3,3.2-1,4.5s-1.6,2.2-2.8,2.8s-2.7,1-4.3,1
				c-0.8,0-1.7-0.1-2.6-0.4s-1.7-0.6-2.5-1.1s-1.4-1.1-2-1.9l1.3-1.3c0.8,1,1.7,1.7,2.6,2.2s1.9,0.7,3,0.7c1.3,0,2.4-0.2,3.3-0.8
				s1.6-1.2,2-2.2c0.5-0.9,0.7-2.1,0.7-3.4V455L469.5,450.6z M457.5,460.3v0.4c0,1.2,0.1,2.2,0.4,3.2s0.6,1.9,1.1,2.6
				c0.5,0.7,1.1,1.3,1.9,1.7s1.6,0.6,2.6,0.6c1.3,0,2.4-0.2,3.2-0.7c0.9-0.5,1.6-1.1,2.1-1.9s0.9-1.7,1.1-2.6v-5.7
				c-0.1-0.7-0.3-1.3-0.6-2s-0.7-1.3-1.2-1.9s-1.1-1-1.9-1.4s-1.7-0.5-2.8-0.5c-1,0-1.9,0.2-2.7,0.6c-0.8,0.4-1.4,1-1.9,1.7
				s-0.8,1.6-1.1,2.6C457.6,458.1,457.5,459.1,457.5,460.3z"/>
		</g>
	</g>
	<g>
		<g>
			<path class="st18" d="M779,720H24.9C11.1,720,0,708.8,0,695.1V24.9C0,11.1,11.2,0,24.9,0H779c13.8,0,24.9,11.2,24.9,24.9V695
				C803.9,708.8,792.8,720,779,720z"/>
		</g>
		<g>
			
				<linearGradient id="SVGID_00000131357300215570912490000013412152295633413760_" gradientUnits="userSpaceOnUse" x1="44.6239" y1="-54.5785" x2="415.5187" y2="-54.5785" gradientTransform="matrix(1 0 0 1 0 380)">
				<stop  offset="0" style="stop-color:#0051BF"/>
				<stop  offset="0.3407" style="stop-color:#2883D7"/>
				<stop  offset="0.7869" style="stop-color:#57BFF4"/>
				<stop  offset="1" style="stop-color:#6AD7FF"/>
			</linearGradient>
			<path style="fill:url(#SVGID_00000131357300215570912490000013412152295633413760_);" d="M140.5,129.5
				c-89.7,48.7-122.2,162-72.8,253.1c24.7,45.5,65.2,76.9,110.8,90.8c45.6,13.9,138.2,19.6,166.9,62.7c4.3,6.5,12.2,9.4,18.9,5.8
				c6.7-3.7,8.5-11.8,5.5-19c-20.6-47.6,25.2-128.4,38.4-174.2c13.2-45.8,8.9-96.9-15.8-142.4C342.9,115.2,230.2,80.8,140.5,129.5z"
				/>
			<path class="st18" d="M261.4,352.2c31.4-17,42.8-56.7,25.5-88.6s-56.8-43.9-88.1-26.9c-31.3,17-42.8,56.7-25.5,88.6
				C190.5,357.2,230,369.3,261.4,352.2z"/>
		</g>
		<g>
			
				<linearGradient id="SVGID_00000142867807490762330500000017626975811181037452_" gradientUnits="userSpaceOnUse" x1="587.8032" y1="592.1089" x2="958.5731" y2="592.1089" gradientTransform="matrix(0.7568 0.6536 -0.6536 0.7568 277.9691 -679.821)">
				<stop  offset="0" style="stop-color:#FF0E00"/>
				<stop  offset="0.4661" style="stop-color:#F26400"/>
				<stop  offset="0.8283" style="stop-color:#E9A100"/>
				<stop  offset="1" style="stop-color:#E6B900"/>
			</linearGradient>
			<path style="fill:url(#SVGID_00000142867807490762330500000017626975811181037452_);" d="M536.5,66.8
				C436.8,45,338.1,109.5,316,210.8c-11,50.6-0.9,100.9,24.5,141.2s91.8,105.2,85.3,156.6c-1,7.7,3.1,15.1,10.5,16.7
				s14.2-3.4,16.5-10.8c15.5-49.4,102.9-80.7,142.8-106.8c39.9-26,70.1-67.5,81.1-118.1C699,188.4,636.1,88.6,536.5,66.8z"/>
			<path class="st18" d="M482.4,314.4c34.9,7.6,69.4-14.9,77.2-50.4c7.7-35.5-14.3-70.4-49.1-78c-34.9-7.6-69.4,14.9-77.2,50.4
				C425.6,271.9,447.6,306.8,482.4,314.4z"/>
		</g>
		<g>
			<path class="st21" d="M120.9,498.3c-24.2,14.3-97.1,60-61.9,90.9c21.8,17.5,64,20.1,91.4,21.2c53.3,1.3,106.5-4.4,159.2-12.6
				c84.3-13.4,167.5-33.9,248.3-61c63.3-21.9,166.2-60.5,210.8-109.4c16.2-18.8,18.7-38-5.8-51.2c-14.2-7.4-30.1-10.7-45.8-13.1
				c-10.6-1.6-21.2-2.5-31.9-3.2c27.1,1.2,62.6,3.7,85.4,19.1c36.2,27.3-13,65.5-36.6,81.5c-53.7,35.6-114,59.6-174.6,80.8
				c-81.1,27.5-164.5,48-249.2,61.2C251.7,611.6,103,628.6,57.3,591C20.9,557.7,95.2,512.6,120.9,498.3L120.9,498.3z"/>
		</g>
	</g>
	<g class="st0">
		<path class="st4" d="M443.6,630h-84.2c-13.8,0-24.9-11.2-24.9-24.9v-70.2c0-13.8,11.2-24.9,24.9-24.9h84.2
			c13.8,0,24.9,11.2,24.9,24.9v70.2C468.5,618.8,457.4,630,443.6,630z"/>
	</g>
	<g>
		<g class="st0">
			<path class="st4" d="M332.9,653.7l8.6,23.4l0.9,3.3h-1.9l-10.2-26.8L332.9,653.7L332.9,653.7z M341.8,677.1l8.6-23.4h2.5
				l-10.2,26.8h-1.9L341.8,677.1z"/>
			<path class="st4" d="M360.2,670.8v-0.6c0-1.5,0.2-2.8,0.6-4s1-2.3,1.8-3.2s1.8-1.6,2.9-2.1s2.3-0.7,3.7-0.7
				c1.4,0,2.6,0.2,3.7,0.7s2.1,1.2,2.9,2.1s1.4,2,1.8,3.2s0.6,2.6,0.6,4v0.6c0,1.5-0.2,2.8-0.6,4s-1,2.3-1.8,3.2s-1.8,1.6-2.9,2.1
				s-2.3,0.7-3.7,0.7c-1.4,0-2.6-0.2-3.7-0.7s-2.1-1.2-2.9-2.1s-1.4-2-1.8-3.2S360.2,672.3,360.2,670.8z M362.4,670.2v0.6
				c0,1.1,0.2,2.1,0.4,3.1s0.7,1.8,1.3,2.6c0.6,0.8,1.3,1.3,2.1,1.8s1.8,0.6,2.9,0.6s2.1-0.2,2.9-0.6c0.8-0.4,1.6-1,2.1-1.8
				s1-1.6,1.3-2.6s0.4-2,0.4-3.1v-0.6c0-1.1-0.2-2.1-0.4-3.1s-0.7-1.8-1.3-2.6c-0.6-0.8-1.3-1.4-2.2-1.8s-1.8-0.7-2.9-0.7
				s-2.1,0.2-2.9,0.7c-0.8,0.4-1.6,1-2.1,1.8s-1,1.6-1.3,2.6S362.4,669.1,362.4,670.2z"/>
			<path class="st4" d="M390.1,652.2v28.2h-2.2v-28.2H390.1z M402.9,660.6l-9.5,9.2l-4,3.8l-0.3-2.2l3.2-3.4l7.8-7.5L402.9,660.6
				L402.9,660.6z M400.9,680.4l-8.5-10.3l1.2-1.9l9.9,12.2H400.9L400.9,680.4z"/>
			<path class="st4" d="M413.9,663.8v16.6h-2.2v-19.9h2.2V663.8z M421.1,660.4l-0.1,2c-0.2,0-0.5-0.1-0.7-0.1s-0.5,0-0.8,0
				c-1,0-1.8,0.2-2.6,0.5c-0.7,0.3-1.3,0.8-1.8,1.5s-0.9,1.3-1.1,2.2c-0.3,0.8-0.4,1.7-0.4,2.7l-0.8,0.3c0-1.3,0.1-2.5,0.4-3.6
				s0.7-2.1,1.3-2.9c0.6-0.8,1.3-1.5,2.2-2c0.9-0.5,1.9-0.7,3.1-0.7c0.3,0,0.6,0,0.8,0.1S421,660.3,421.1,660.4z"/>
			<path class="st4" d="M443,672.2h1.2c0,1.2-0.2,2.4-0.4,3.5s-0.8,2-1.4,2.8s-1.5,1.4-2.5,1.8s-2.2,0.6-3.7,0.6
				c-1,0-1.9-0.1-2.7-0.4c-0.8-0.3-1.5-0.7-2.1-1.3s-1-1.4-1.4-2.3c-0.3-1-0.5-2.1-0.5-3.5v-12.7h2.2v12.8c0,1.1,0.1,2,0.4,2.7
				c0.2,0.7,0.6,1.3,1,1.7s0.9,0.7,1.5,0.9s1.2,0.3,1.8,0.3c1.7,0,2.9-0.3,3.9-0.9s1.6-1.5,2-2.5C442.8,674.4,443,673.3,443,672.2z
				 M442.6,675.8v-15.3h2.2v19.9h-2.2V675.8z"/>
			<path class="st4" d="M454.8,670.7v-0.4c0-1.5,0.2-2.9,0.5-4.2s0.9-2.3,1.6-3.2s1.5-1.6,2.5-2s2.1-0.7,3.3-0.7
				c1.2,0,2.2,0.2,3.1,0.6s1.7,0.9,2.4,1.6c0.7,0.7,1.2,1.6,1.6,2.5c0.4,1,0.7,2.1,0.9,3.3v4.9c-0.2,1.1-0.4,2.2-0.8,3.1
				c-0.4,0.9-0.9,1.8-1.6,2.4c-0.7,0.7-1.5,1.2-2.4,1.6c-0.9,0.4-2,0.6-3.2,0.6s-2.3-0.2-3.3-0.7s-1.8-1.2-2.5-2.1
				c-0.7-0.9-1.2-2-1.6-3.2S454.8,672.2,454.8,670.7z M469.1,660.6h2.1v19.5c0,1.7-0.3,3.2-1,4.5s-1.6,2.2-2.8,2.8s-2.7,1-4.3,1
				c-0.8,0-1.7-0.1-2.6-0.4s-1.7-0.6-2.5-1.1s-1.4-1.1-2-1.9l1.3-1.3c0.8,1,1.7,1.7,2.6,2.2s1.9,0.7,3,0.7c1.3,0,2.4-0.2,3.3-0.8
				s1.6-1.2,2-2.2c0.5-0.9,0.7-2.1,0.7-3.4V665L469.1,660.6z M457.1,670.3v0.4c0,1.2,0.1,2.2,0.4,3.2s0.6,1.9,1.1,2.6
				c0.5,0.7,1.1,1.3,1.9,1.7s1.6,0.6,2.6,0.6c1.3,0,2.4-0.2,3.2-0.7c0.9-0.5,1.6-1.1,2.1-1.9s0.9-1.7,1.1-2.6v-5.7
				c-0.1-0.7-0.3-1.3-0.6-2s-0.7-1.3-1.2-1.9s-1.1-1-1.9-1.4s-1.7-0.5-2.8-0.5c-1,0-1.9,0.2-2.7,0.6c-0.8,0.4-1.4,1-1.9,1.7
				s-0.8,1.6-1.1,2.6C457.2,668.1,457.1,669.1,457.1,670.3z"/>
		</g>
	</g>
	<g class="st0">
		
			<linearGradient id="SVGID_00000070107285343844266610000013268388940604435384_" gradientUnits="userSpaceOnUse" x1="241.6721" y1="133.2844" x2="303.4664" y2="133.2844" gradientTransform="matrix(0.9328 -1.160000e-02 -1.160000e-02 0.9178 124.1451 448.4508)">
			<stop  offset="0" style="stop-color:#0051BF"/>
			<stop  offset="0.3407" style="stop-color:#2883D7"/>
			<stop  offset="0.7869" style="stop-color:#57BFF4"/>
			<stop  offset="1" style="stop-color:#6AD7FF"/>
		</linearGradient>
		<path style="display:inline;fill:url(#SVGID_00000070107285343844266610000013268388940604435384_);" d="M363.3,537.8
			c-14,7.6-19.3,25-11.8,38.9c3.8,6.9,10,11.6,17.1,13.7s21.5,2.7,25.8,9.3c0.7,1,1.9,1.4,2.9,0.8s1.3-1.8,0.9-2.9
			c-3.1-7.2,4.2-19.7,6.3-26.7c2.1-7,1.6-14.8-2.2-21.8C394.8,535.2,377.3,530.1,363.3,537.8z"/>
		<path class="st4" d="M381.6,571.6c4.9-2.7,6.8-8.8,4.1-13.6s-8.8-6.6-13.7-3.9s-6.8,8.8-4.1,13.6
			C370.6,572.5,376.7,574.3,381.6,571.6z"/>
	</g>
	<g class="st0">
		
			<linearGradient id="SVGID_00000030448730641632042160000010538521088483284128_" gradientUnits="userSpaceOnUse" x1="899.4087" y1="841.8497" x2="961.2466" y2="841.8497" gradientTransform="matrix(0.7628 0.6718 -0.6652 0.7854 268.8141 -728.2999)">
			<stop  offset="0" style="stop-color:#FF0E00"/>
			<stop  offset="0.4661" style="stop-color:#F26400"/>
			<stop  offset="0.8283" style="stop-color:#E9A100"/>
			<stop  offset="1" style="stop-color:#E6B900"/>
		</linearGradient>
		<path style="display:inline;fill:url(#SVGID_00000030448730641632042160000010538521088483284128_);" d="M428.8,522.2
			c-16.8-3.7-33.5,7.5-37.3,25c-1.9,8.7-0.2,17.4,4,24.3c4.2,6.9,15.4,18,14.3,26.9c-0.2,1.3,0.5,2.6,1.8,2.9
			c1.3,0.3,2.4-0.6,2.8-1.9c2.7-8.5,17.4-14,24.2-18.5c6.8-4.5,11.9-11.7,13.8-20.4C456.2,543,445.6,525.9,428.8,522.2z"/>
		<path class="st4" d="M419.5,564.9c5.9,1.3,11.7-2.6,13.1-8.7s-2.3-12.1-8.2-13.4c-5.9-1.3-11.7,2.6-13.1,8.7
			C409.9,557.7,413.6,563.6,419.5,564.9z"/>
	</g>
	<g class="st0">
		<path class="st24" d="M354.2,585.2c-24.3,9-11.9,15.5,5.8,19c13.8,2.6,28,3.5,42.1,3.5s28.2-0.8,42.1-3.3
			c10.2-1.9,31.7-7.7,11.8-16.9c-1.6-0.8-3.2-1.5-4.9-2.1c3.5,0.8,7,1.7,10.2,3.5c1.6,0.9,3.2,2,4.3,3.8c2.4,4.1-1.9,8.1-5.2,9.8
			c-25.1,12.9-74,12.2-101.3,5.5c-3.5-0.9-7-1.9-10.4-3.3c-3.5-1.6-7-3.1-9.4-6.4C334.6,590,348.5,586.4,354.2,585.2L354.2,585.2z"
			/>
	</g>
</g>
</svg>
