<svg width="14" height="16" viewBox="0 0 14 16" fill="none" xmlns="http://www.w3.org/2000/svg">
<path d="M5.06213 0.0246758C4.40189 0.501688 0 3.88861 0 9.3982C0 10.2652 0.170771 11.1237 0.502564 11.9248C0.834357 12.7258 1.32067 13.4536 1.93375 14.0667C2.54682 14.6798 3.27464 15.1661 4.07566 15.4979C4.85353 15.8201 5.68564 15.9904 6.52708 16C4.47816 15.96 2.82952 14.2865 2.82952 12.228C2.82952 12.0417 2.84303 11.8586 2.86911 11.6795C2.87022 11.6689 2.87158 11.6582 2.87317 11.6474C3.18953 9.5217 5.14529 7.71701 6.09109 6.95589C6.3933 6.71269 6.81127 6.71269 7.11348 6.9559C8.05925 7.71702 10.0149 9.52171 10.3313 11.6474C10.3329 11.6582 10.3342 11.6689 10.3353 11.6796C10.3614 11.8586 10.3749 12.0417 10.3749 12.228C10.3749 14.2865 8.72629 15.96 6.67737 16C7.51881 15.9904 8.35091 15.8201 9.12878 15.4979C9.9298 15.1661 10.6576 14.6798 11.2707 14.0667C11.8838 13.4536 12.3701 12.7258 12.7019 11.9248C13.0224 11.1509 13.1927 10.3233 13.2039 9.48629C13.2042 9.47547 13.2044 9.4646 13.2044 9.45368L13.2044 9.42385L13.2044 9.39829C13.1796 5.3986 10.4734 3.2157 9.98005 2.85089C9.93381 2.81669 9.87231 2.81708 9.82607 2.85128C9.62825 2.99761 9.07721 3.43432 8.48546 4.16142C8.41798 4.24434 8.28534 4.22848 8.23966 4.13182C7.12788 1.77901 5.58767 0.350959 5.22383 0.0338236C5.17689 -0.00709095 5.1126 -0.0117905 5.06213 0.0246758Z" fill="#F99011"/>
</svg>
