<svg width="14" height="16" viewBox="0 0 14 16" fill="none" xmlns="http://www.w3.org/2000/svg">
<path d="M1.55371 2V10.7857H12.2804C12.8185 10.7857 13.0875 10.7857 13.1498 10.6271C13.2121 10.4685 13.0149 10.2854 12.6207 9.91932L8.86938 6.43597C8.72155 6.29871 8.64763 6.23007 8.64763 6.14286C8.64763 6.05564 8.72155 5.98701 8.86938 5.84974L12.6207 2.3664C13.0149 2.00029 13.2121 1.81724 13.1498 1.65862C13.0875 1.5 12.8185 1.5 12.2804 1.5H2.05371C1.81801 1.5 1.70016 1.5 1.62693 1.57322C1.55371 1.64645 1.55371 1.7643 1.55371 2Z" fill="#3880FF"/>
<path d="M1.55371 10.7857V2C1.55371 1.7643 1.55371 1.64645 1.62693 1.57322C1.70016 1.5 1.81801 1.5 2.05371 1.5H12.2804C12.8185 1.5 13.0875 1.5 13.1498 1.65862C13.2121 1.81724 13.0149 2.00029 12.6207 2.3664L8.86938 5.84974C8.72155 5.98701 8.64763 6.05564 8.64763 6.14286C8.64763 6.23007 8.72155 6.29871 8.86938 6.43597L12.6207 9.91932C13.0149 10.2854 13.2121 10.4685 13.1498 10.6271C13.0875 10.7857 12.8185 10.7857 12.2804 10.7857H1.55371ZM1.55371 10.7857V14.5" stroke="#3880FF" stroke-width="1.2" stroke-linecap="round"/>
</svg>
