<svg width="18" height="18" viewBox="0 0 18 18" fill="none" xmlns="http://www.w3.org/2000/svg">
<path d="M16.5 9C16.5 11.8284 16.5 13.2427 15.6213 14.1213C14.7427 15 13.3284 15 10.5 15H7.5C4.67157 15 3.25736 15 2.37868 14.1213C1.5 13.2427 1.5 11.8284 1.5 9C1.5 6.17157 1.5 4.75736 2.37868 3.87868C3.25736 3 4.67157 3 7.5 3H10.5C13.3284 3 14.7427 3 15.6213 3.87868C16.1112 4.36856 16.328 5.02492 16.4239 6" stroke="#007BBE" stroke-width="1.5" stroke-linecap="round"/>
<path d="M6.75 9C6.75 9.41422 6.41421 9.75 6 9.75C5.58579 9.75 5.25 9.41422 5.25 9C5.25 8.58578 5.58579 8.25 6 8.25C6.41421 8.25 6.75 8.58578 6.75 9Z" fill="#007BBE"/>
<path d="M9.75 9C9.75 9.41422 9.41422 9.75 9 9.75C8.58578 9.75 8.25 9.41422 8.25 9C8.25 8.58578 8.58578 8.25 9 8.25C9.41422 8.25 9.75 8.58578 9.75 9Z" fill="#007BBE"/>
<path d="M12.75 9C12.75 9.41422 12.4142 9.75 12 9.75C11.5858 9.75 11.25 9.41422 11.25 9C11.25 8.58578 11.5858 8.25 12 8.25C12.4142 8.25 12.75 8.58578 12.75 9Z" fill="#007BBE"/>
</svg>
