<svg width="22" height="18" viewBox="0 0 22 18" fill="none" xmlns="http://www.w3.org/2000/svg">
<path d="M21.2858 14.4096V1.66466C21.2858 1.34631 20.9642 1.12861 20.6687 1.24685L15.7066 3.23167C15.6188 3.26681 15.5221 3.27337 15.4303 3.25042L6.56981 1.03529C6.47803 1.01235 6.38137 1.01891 6.29354 1.05404L0.99723 3.17256C0.826383 3.2409 0.714355 3.40637 0.714355 3.59038V16.3353C0.714355 16.6537 1.03589 16.8714 1.33148 16.7532L6.29354 14.7683C6.38137 14.7332 6.47804 14.7266 6.56981 14.7496L15.4303 16.9647C15.5221 16.9877 15.6188 16.9811 15.7066 16.946L21.0029 14.8274C21.1738 14.7591 21.2858 14.5936 21.2858 14.4096Z" stroke="#4C5861" stroke-width="1.2" stroke-linejoin="round"/>
<path d="M15.5713 16.9999V3.28564" stroke="#4C5861" stroke-width="1.2"/>
<path d="M6.42871 14.7143L6.42871 1" stroke="#4C5861" stroke-width="1.2"/>
</svg>
