<svg width="15" height="18" viewBox="0 0 15 18" fill="none" xmlns="http://www.w3.org/2000/svg">
<path d="M1 1.5V12.4286H13.5072C14.0209 12.4286 14.2778 12.4286 14.3417 12.2742C14.4056 12.1199 14.224 11.9383 13.8607 11.575L9.28284 6.99713C9.14951 6.8638 9.08284 6.79713 9.08284 6.71429C9.08284 6.63144 9.14951 6.56478 9.28284 6.43144L13.8607 1.85355C14.224 1.49029 14.4056 1.30866 14.3417 1.15433C14.2778 1 14.0209 1 13.5072 1H1.5C1.2643 1 1.14645 1 1.07322 1.07322C1 1.14645 1 1.2643 1 1.5Z" fill="#3880FF"/>
<path d="M1 12.4286V1.5C1 1.2643 1 1.14645 1.07322 1.07322C1.14645 1 1.2643 1 1.5 1H13.5072C14.0209 1 14.2778 1 14.3417 1.15433C14.4056 1.30866 14.224 1.49029 13.8607 1.85355L9.28284 6.43144C9.14951 6.56478 9.08284 6.63144 9.08284 6.71429C9.08284 6.79713 9.14951 6.8638 9.28284 6.99713L13.8607 11.575C14.224 11.9383 14.4056 12.1199 14.3417 12.2742C14.2778 12.4286 14.0209 12.4286 13.5072 12.4286H1ZM1 12.4286V17" stroke="#3880FF" stroke-width="1.2" stroke-linecap="round"/>
</svg>
