<svg width="32" height="45" viewBox="0 0 32 45" fill="currentColor" xmlns="http://www.w3.org/2000/svg">
<path fill-rule="evenodd" clip-rule="evenodd" d="M27.5811 44.0037H18.5195V35.5705C18.5195 33.0463 13.4791 32.989 13.4791 35.5705V44.0037H4.41747V32.8173H0C3.85114 29.4899 7.70236 26.2199 11.6105 22.8928V16.3529H7.30637L15.8583 6.31366V2.06862H13.9328V1.72456H15.8583V0.00366211H16.1417V1.72456H18.0672V2.06862H16.1417V6.31366L24.6936 16.3529H20.3895V22.8928C24.2973 26.2202 28.1487 29.4901 32 32.8173H27.5825L27.5811 44.0037ZM17.5002 17.443V21.6307H14.5553V17.443C14.5553 16.181 17.5002 16.181 17.5002 17.443Z" fill="currentColor"/>
</svg>
