<svg width="40" height="36" viewBox="0 0 40 36" fill="currentColor" xmlns="http://www.w3.org/2000/svg">
<path d="M11.0062 23.1786H7.33823C5.98886 23.1786 4.89307 24.2427 4.89307 25.5598V27.2265H13.4513L13.4516 25.56C13.4516 24.243 12.3559 23.1786 11.0064 23.1786H11.0062Z" fill="currentColor"/>
<path d="M24.1463 25.5598C24.1463 24.2427 23.0508 23.1786 21.7017 23.1786H18.0338C16.6812 23.1786 15.5884 24.2427 15.5884 25.5598V27.2265H24.1466L24.1463 25.5598Z" fill="currentColor"/>
<path d="M34.9242 25.5598C34.9242 24.2427 33.8296 23.1786 32.4796 23.1786H28.8116C27.4616 23.1786 26.3662 24.2427 26.3662 25.5598V27.2265H34.9245L34.9242 25.5598Z" fill="currentColor"/>
<path d="M8.31281 28.3088H3.32523C1.48993 28.3088 0 29.7556 0 31.5467V35.0037H11.6371V31.5467C11.6374 29.7556 10.1481 28.3088 8.31251 28.3088H8.31281Z" fill="currentColor"/>
<path d="M22.4372 28.3088H17.4496C15.6111 28.3088 14.125 29.7556 14.125 31.5467V35.0037H25.7621V31.5467C25.7621 29.7556 24.2719 28.3088 22.4369 28.3088H22.4372Z" fill="currentColor"/>
<path d="M36.6754 28.3088H31.6875C29.8516 28.3088 28.3623 29.7556 28.3623 31.5467V35.0037H40.0002V31.5467C40.0002 29.7556 38.5106 28.3088 36.6753 28.3088H36.6754Z" fill="currentColor"/>
<path d="M3.69971 21.7489V0.00366211H36.3005V22.0665C36.3005 22.0665 28.6391 16.1927 29.9434 6.0347C29.9434 6.0347 21.7936 6.98758 19.6736 0.479881C19.6736 0.479881 17.3918 6.98758 10.2193 6.19371C10.2196 6.19399 11.1981 17.1457 3.69971 21.7491V21.7489Z" fill="currentColor"/>
</svg>
