<svg width="16" height="14" viewBox="0 0 16 14" fill="none" xmlns="http://www.w3.org/2000/svg">
<path fill-rule="evenodd" clip-rule="evenodd" d="M9.625 0H4.0625C3.19082 0 2.75499 0 2.39606 0.0899062C1.32228 0.358873 0.483873 1.19728 0.214906 2.27106C0.125 2.62999 0.125 3.06582 0.125 3.9375V4.59375C0.125 4.95619 0.418813 5.25 0.78125 5.25H1C1.9665 5.25 2.75 6.0335 2.75 7C2.75 7.9665 1.9665 8.75 1 8.75H0.78125C0.418813 8.75 0.125 9.04381 0.125 9.40625V10.0625C0.125 10.9342 0.125 11.37 0.214906 11.7289C0.483873 12.8027 1.32228 13.6411 2.39606 13.9101C2.75499 14 3.19082 14 4.0625 14H9.625V13.125C9.625 12.5727 10.0727 12.125 10.625 12.125V10.625C10.0727 10.625 9.625 10.1773 9.625 9.625V8.75C9.625 8.19771 10.0727 7.75 10.625 7.75V6.25C10.0727 6.25 9.625 5.80228 9.625 5.25V4.375C9.625 3.82272 10.0727 3.375 10.625 3.375V1.875C10.0727 1.875 9.625 1.42728 9.625 0.875V0Z" fill="white"/>
<path fill-rule="evenodd" clip-rule="evenodd" d="M10.625 1.875V3.375C11.1773 3.375 11.625 3.82272 11.625 4.375V5.25C11.625 5.80228 11.1773 6.25 10.625 6.25V7.75C11.1773 7.75 11.625 8.19771 11.625 8.75V9.625C11.625 10.1773 11.1773 10.625 10.625 10.625V12.125C11.1773 12.125 11.625 12.5727 11.625 13.125V14H11.9375C12.8092 14 13.245 14 13.6039 13.9101C14.6777 13.6411 15.5161 12.8027 15.7851 11.7289C15.875 11.37 15.875 10.9342 15.875 10.0625V9.40625C15.875 9.04381 15.5812 8.75 15.2188 8.75H15C14.0335 8.75 13.25 7.9665 13.25 7C13.25 6.0335 14.0335 5.25 15 5.25H15.2188C15.5812 5.25 15.875 4.95619 15.875 4.59375V3.9375C15.875 3.06582 15.875 2.62999 15.7851 2.27106C15.5161 1.19728 14.6777 0.358873 13.6039 0.0899062C13.245 0 12.8092 0 11.9375 0H11.625V0.875C11.625 1.42728 11.1773 1.875 10.625 1.875Z" fill="white"/>
</svg>
