<svg width="158" height="176" viewBox="0 0 158 176" fill="currentColor" xmlns="http://www.w3.org/2000/svg">
<path d="M104.536 101.529C101.627 108.174 96.2339 113.421 89.51 116.152C82.7848 118.884 75.2598 118.884 68.5346 116.152C61.8107 113.421 56.418 108.174 53.5083 101.529C70.5005 102.6 87.5438 102.6 104.536 101.529H104.536Z" fill="currentColor"/>
<path d="M98.0313 175.156V156.696C98.03 149.908 94.4049 143.636 88.5212 140.243C82.6389 136.849 75.3912 136.849 69.5079 140.243C63.6246 143.636 59.9992 149.908 59.9978 156.696V175.156C72.6506 176.281 85.3785 176.281 98.0327 175.156H98.0313Z" fill="currentColor"/>
<path d="M108.094 101.289C111.162 108.156 117.024 113.381 124.2 115.644C131.376 117.906 139.178 116.99 145.634 113.126C152.088 109.261 156.579 102.819 157.968 95.4292C158.011 95.1426 158.011 94.8507 157.968 94.5627C141.485 97.8373 124.814 100.084 108.052 101.29L108.094 101.289Z" fill="currentColor"/>
<path d="M107.151 98.9502C123.791 97.7851 140.34 95.5887 156.707 92.3729L81.7312 34.0193L107.151 98.9502Z" fill="currentColor"/>
<path d="M11.7032 165.179C10.4648 164.772 9.62854 163.616 9.6272 162.313V114.204C14.7495 117.732 20.8781 119.502 27.0925 119.248V169.63C21.9101 168.339 16.7758 166.855 11.7032 165.181L11.7032 165.179Z" fill="currentColor"/>
<path d="M47.1508 109.891C42.5459 114.948 36.2845 118.196 29.4951 119.047V170.211C35.3304 171.593 41.2205 172.732 47.1508 173.621V109.891Z" fill="currentColor"/>
<path d="M57.6049 174.927C54.9165 174.657 52.2321 174.337 49.5557 173.968V106.868C50.345 105.724 51.0487 104.525 51.6638 103.278C54.8762 110.074 60.5062 115.43 67.4551 118.301V138.677C61.3156 142.614 57.6033 149.404 57.6047 156.695L57.6049 174.927Z" fill="currentColor"/>
<path d="M53.4021 99.1183C70.4615 100.206 87.5717 100.206 104.632 99.1183L79.0223 33.6813L53.4021 99.1183Z" fill="currentColor"/>
<path d="M49.9472 101.289C33.1842 100.085 16.5135 97.8373 0.0311585 94.5627C-0.0103862 94.8493 -0.0103862 95.1413 0.0311585 95.4292C1.42094 102.819 5.91068 109.261 12.3662 113.125C18.8204 116.99 26.6233 117.906 33.8001 115.644C40.9754 113.381 46.8388 108.155 49.905 101.289H49.9472Z" fill="currentColor"/>
<path d="M50.8905 98.9502L76.31 34.0206L1.33472 92.3743C17.7011 95.5899 34.251 97.7862 50.8905 98.9516V98.9502Z" fill="currentColor"/>
<path d="M130.951 119.247V169.63C136.13 168.338 141.259 166.855 146.329 165.18C147.567 164.773 148.405 163.617 148.405 162.314V114.205C143.287 117.731 137.161 119.5 130.95 119.249L130.951 119.247Z" fill="currentColor"/>
<path d="M128.546 119.048C121.752 118.198 115.487 114.952 110.879 109.892V173.621C116.812 172.732 122.706 171.594 128.546 170.212V119.048Z" fill="currentColor"/>
<path d="M90.5759 118.301V138.675C96.7193 142.611 100.436 149.401 100.436 156.694V174.927C103.124 174.658 105.808 174.338 108.485 173.968V106.868C107.693 105.724 106.984 104.526 106.366 103.279C103.155 110.074 97.5246 115.43 90.576 118.301L90.5759 118.301Z" fill="currentColor"/>
<path d="M69.8601 137.346V119.177C75.8199 121.069 82.222 121.069 88.1818 119.177V137.346C82.3829 134.605 75.659 134.605 69.8601 137.346Z" fill="currentColor"/>
<path d="M80.2181 2.88206H100.152C100.919 2.88072 101.653 3.18474 102.196 3.72713C102.739 4.26818 103.043 5.00347 103.043 5.7695V18.2154V18.2141C103.043 18.9802 102.739 19.7154 102.196 20.2565C101.653 20.7989 100.919 21.1029 100.152 21.1029H80.2195V29.8014H77.8152V1.18792C77.8219 0.530326 78.358 0 79.0173 0C79.6754 0 80.2115 0.53036 80.2182 1.18792L80.2181 2.88206Z" fill="currentColor"/>
</svg>
