<svg width="20" height="17" viewBox="0 0 20 17" fill="none" xmlns="http://www.w3.org/2000/svg">
<path fill-rule="evenodd" clip-rule="evenodd" d="M4.76103 1.90099C4.76103 1.19352 4.04651 0.709763 3.38964 0.972509L1.09101 1.89196C0.711354 2.04382 0.462402 2.41153 0.462402 2.82044V15.5025C0.462402 16.21 1.17693 16.6938 1.83379 16.431L4.13242 15.5116C4.51208 15.3597 4.76103 14.992 4.76103 14.5831V1.90099ZM6.76103 14.3293C6.76103 14.7882 7.07333 15.1882 7.5185 15.2995L11.9963 16.4189C12.6274 16.5767 13.2388 16.0994 13.2388 15.4488V2.67418C13.2388 2.21531 12.9265 1.81533 12.4814 1.70404L8.00357 0.584587C7.37242 0.426801 6.76103 0.904159 6.76103 1.55473V14.3293ZM15.8674 1.49196C15.4878 1.64382 15.2388 2.01153 15.2388 2.42044V15.1025C15.2388 15.81 15.9534 16.2938 16.6102 16.031L18.9089 15.1116C19.2885 14.9597 19.5375 14.592 19.5375 14.1831V1.50099C19.5375 0.793522 18.8229 0.309764 18.1661 0.572509L15.8674 1.49196Z" fill="#3880FF"/>
</svg>
