<svg width="24" height="22" viewBox="0 0 24 22" fill="none" xmlns="http://www.w3.org/2000/svg">
<path d="M5.92893 18.0711C7.32746 19.4696 9.10929 20.422 11.0491 20.8079C12.9889 21.1937 14.9996 20.9957 16.8268 20.2388C18.6541 19.4819 20.2159 18.2002 21.3147 16.5557C22.4135 14.9112 23 12.9778 23 11C23 9.02219 22.4135 7.08879 21.3147 5.4443C20.2159 3.79981 18.6541 2.51808 16.8268 1.76121C14.9996 1.00433 12.9889 0.806295 11.0491 1.19215C9.10929 1.578 7.32746 2.53041 5.92893 3.92893" stroke="url(#paint0_linear_2095_3897)" stroke-width="1.5"/>
<path d="M1 11L0.414348 11.4685L0.0395314 11L0.414348 10.5315L1 11ZM13 10.25C13.4142 10.25 13.75 10.5858 13.75 11C13.75 11.4142 13.4142 11.75 13 11.75V10.25ZM4.41435 16.4685L0.414348 11.4685L1.58565 10.5315L5.58565 15.5315L4.41435 16.4685ZM0.414348 10.5315L4.41435 5.53148L5.58565 6.46852L1.58565 11.4685L0.414348 10.5315ZM1 10.25L13 10.25V11.75L1 11.75L1 10.25Z" fill="url(#paint1_linear_2095_3897)"/>
<defs>
<linearGradient id="paint0_linear_2095_3897" x1="13" y1="1" x2="13" y2="21" gradientUnits="userSpaceOnUse">
<stop stop-color="#FF5555"/>
<stop offset="1" stop-color="#D53131"/>
</linearGradient>
<linearGradient id="paint1_linear_2095_3897" x1="7" y1="16" x2="7" y2="6" gradientUnits="userSpaceOnUse">
<stop stop-color="#FF5555"/>
<stop offset="1" stop-color="#D53131"/>
</linearGradient>
</defs>
</svg>
