<svg width="24" height="24" viewBox="0 0 24 24" fill="none" xmlns="http://www.w3.org/2000/svg">
<path d="M5 14V4.5C5 4.2643 5 4.14645 5.07322 4.07322C5.14645 4 5.2643 4 5.5 4H9.59582C9.79537 4 9.89514 4 9.98528 4.03643C10.0754 4.07286 10.1472 4.14219 10.2907 4.28084L11.7793 5.71916C11.9228 5.85781 11.9946 5.92714 12.0847 5.96357C12.1749 6 12.2746 6 12.4742 6H18.67C18.9127 6 19.034 6 19.0767 6.07817C19.1193 6.15635 19.0536 6.25838 18.9222 6.46243L16.1743 10.7293C16.0897 10.8607 16.0474 10.9265 16.0474 11C16.0474 11.0735 16.0897 11.1393 16.1743 11.2707L18.9222 15.5376C19.0536 15.7416 19.1193 15.8437 19.0767 15.9218C19.034 16 18.9127 16 18.67 16H12.4742C12.2746 16 12.1749 16 12.0847 15.9636C11.9946 15.9271 11.9228 15.8578 11.7793 15.7192L10.2907 14.2808C10.1472 14.1422 10.0754 14.0729 9.98528 14.0364C9.89514 14 9.79537 14 9.59582 14H5ZM5 14V20" stroke="#181818" stroke-width="1.5" stroke-linecap="round"/>
</svg>
