<svg width="25" height="24" viewBox="0 0 25 24" fill="none" xmlns="http://www.w3.org/2000/svg">
<path d="M5.125 14V4.5C5.125 4.2643 5.125 4.14645 5.19822 4.07322C5.27145 4 5.3893 4 5.625 4H9.72082C9.92037 4 10.0201 4 10.1103 4.03643C10.2004 4.07286 10.2722 4.14219 10.4157 4.28084L11.9043 5.71916C12.0478 5.85781 12.1196 5.92714 12.2097 5.96357C12.2999 6 12.3996 6 12.5992 6H18.795C19.0377 6 19.159 6 19.2017 6.07817C19.2443 6.15635 19.1786 6.25838 19.0472 6.46243L16.2993 10.7293C16.2147 10.8607 16.1724 10.9265 16.1724 11C16.1724 11.0735 16.2147 11.1393 16.2993 11.2707L19.0472 15.5376C19.1786 15.7416 19.2443 15.8437 19.2017 15.9218C19.159 16 19.0377 16 18.795 16H12.5992C12.3996 16 12.2999 16 12.2097 15.9636C12.1196 15.9271 12.0478 15.8578 11.9043 15.7192L10.4157 14.2808C10.2722 14.1422 10.2004 14.0729 10.1103 14.0364C10.0201 14 9.92037 14 9.72082 14H5.125ZM5.125 14V20" stroke="#181818" stroke-width="1.5" stroke-linecap="round"/>
</svg>
