<svg width="34" height="52" viewBox="0 0 34 52" fill="currentColor" xmlns="http://www.w3.org/2000/svg">
<path d="M29.3001 31.7009C26.8754 31.7009 24.943 33.7032 25.0592 36.0954L25.5198 45.5761C25.5432 46.0575 25.9452 46.4359 26.4331 46.4359H32.1668C32.6547 46.4359 33.0569 46.0576 33.0801 45.5761L33.5408 36.0954C33.6571 33.7032 31.7249 31.7009 29.3 31.7009H29.3001Z" fill="currentColor"/>
<path d="M9.02813 38.7342L9.32189 36.4081C9.63736 33.9093 7.66756 31.7013 5.11789 31.6961C2.56822 31.6908 0.588895 33.8905 0.893894 36.3906L1.1806 38.7419C1.26556 39.4393 1.18536 40.1463 0.946471 40.8079L0.892178 40.9582C0.49822 42.0484 0.295738 43.1969 0.29325 44.3543L0.290774 45.5309C0.289631 46.0304 0.699401 46.4359 1.20519 46.4359H8.97158C9.47585 46.4359 9.88487 46.0327 9.88599 45.5346L9.88847 44.3399C9.89095 43.1479 9.68139 41.9646 9.26896 40.8444C9.02055 40.1695 8.93806 39.4464 9.02798 38.7342L9.02813 38.7342Z" fill="currentColor"/>
<path d="M0.590189 28.4101C0.493984 28.6304 0.447122 28.8814 0.469599 29.1584C0.515129 29.7198 0.874227 30.2338 1.39469 30.4643C1.94636 30.7087 2.52495 30.6216 2.96309 30.3277C3.10311 30.4269 3.24865 30.5206 3.40581 30.6015C4.49189 31.1603 5.72974 31.1245 6.74534 30.6182C6.75449 30.678 6.76458 30.7384 6.78535 30.8034C6.92156 31.2295 7.26427 31.5879 7.70927 31.6679C8.33794 31.781 8.95058 31.3853 9.09269 30.7638C9.13041 30.5994 9.13098 30.4351 9.1005 30.2797C9.0765 30.1572 9.10907 30.0276 9.1927 29.9342C9.36396 29.7431 9.4916 29.5096 9.55256 29.2428C9.71468 28.5342 9.36491 27.8339 8.74807 27.5047C8.77036 26.7425 8.55033 25.9908 8.11711 25.3622C8.22626 25.2036 8.30285 25.0188 8.32342 24.8096C8.37238 24.3138 8.08263 23.8195 7.62067 23.6195C7.45931 23.5497 7.29472 23.517 7.1347 23.5162C6.81179 23.5149 6.51251 23.3567 6.37917 23.0664C6.21096 22.7002 5.87832 22.4135 5.45028 22.3179C4.95669 22.2078 4.46691 22.3806 4.15123 22.7271C3.93215 22.9678 3.60087 23.0434 3.28656 22.9516C3.17169 22.9179 3.04881 22.8989 2.91889 22.8974C2.38034 22.8912 1.86749 23.2178 1.66061 23.7091C1.58403 23.8909 1.55012 24.0762 1.55317 24.2559C1.55926 24.61 1.35333 24.9172 1.019 25.0454C0.541034 25.2285 0.161361 25.6334 0.0396346 26.1653C-0.0847644 26.7092 0.0914509 27.2494 0.459122 27.6199C0.668866 27.831 0.708491 28.1384 0.590188 28.4101L0.590189 28.4101Z" fill="currentColor"/>
<path d="M27.3786 29.8769C27.0717 29.9907 26.7509 30.0483 26.4249 30.0483C26.3624 30.0483 26.302 30.0391 26.2405 30.0349C26.4773 30.2534 26.7447 30.4466 27.0461 30.6016C28.8376 31.5234 31.0465 30.8363 31.9801 29.0669C32.9133 27.2976 32.2176 25.1157 30.4261 24.1939C29.651 23.795 28.7979 23.6987 28.0037 23.8595L28.9703 26.4344C29.4887 27.8152 28.7747 29.3594 27.3786 29.8768L27.3786 29.8769Z" fill="currentColor"/>
<path d="M22.1734 21.6139L24.7518 28.0235C24.882 28.3471 25.1001 28.609 25.3658 28.8002C25.6718 29.0203 26.0415 29.1454 26.4254 29.1454C26.6357 29.1454 26.8495 29.1087 27.0577 29.0316C27.986 28.6875 28.4579 27.6669 28.1131 26.7487L27.1387 24.1528L24.053 15.9326C23.3883 14.1619 21.6782 12.9867 19.7661 12.9867H16.3807C15.0619 12.9867 13.8425 12.2942 13.1793 11.1683L8.34643 2.96352C7.99495 2.36669 7.36554 2.04402 6.72546 2.04382C6.31626 2.04382 5.90288 2.17572 5.55462 2.45211C4.87318 2.99341 4.66172 3.92852 5.04543 4.70468L11.7677 18.3017C12.8799 20.3567 11.8212 23.6819 11.2217 27.3898C10.8022 29.9842 10.7737 31.6949 10.9762 33.9405C11.3844 38.4699 11.8942 46.8309 12.1026 50.3601C12.1571 51.2819 12.9296 52 13.8644 52H14.1208C15.0583 52 15.8323 51.276 15.883 50.3514L16.7545 34.4877C16.769 34.2235 16.9896 34.0165 17.2574 34.0156H17.2589C17.5264 34.0156 17.7477 34.2216 17.7634 34.4856L18.6995 50.3585C18.7538 51.2803 19.5265 52.0001 20.4613 52.0001C21.3944 52.0001 22.1661 51.2836 22.2228 50.3639C22.4368 46.8937 22.9342 38.7437 23.1689 34.217C23.287 31.9377 23.2437 29.5094 22.8499 27.3903C22.3988 24.9622 22.231 24.0589 22.1108 23.1637C22.0495 22.7074 22.0615 22.2443 22.1422 21.7909L22.1734 21.6139Z" fill="currentColor"/>
<path d="M17.4802 11.6659C20.0053 11.6659 22.0523 9.6442 22.0523 7.15026C22.0523 6.89287 22.0254 6.64225 21.9835 6.39669C22.5685 7.30979 23.5521 8.28045 25.1076 8.28045C27.3814 8.28045 27.3545 6.52048 27.3545 6.52048C26.3542 6.45877 25.5139 5.44049 24.3399 2.87315C22.9492 -0.167771 20.8659 0.00572625 20.8659 0.00572625C18.4972 0.00572625 17.9594 2.01915 17.8483 2.65283C17.7264 2.64342 17.6045 2.63458 17.4803 2.63458C14.9552 2.63458 12.9082 4.65629 12.9082 7.15022C12.9082 9.64415 14.9552 11.6659 17.4803 11.6659L17.4802 11.6659ZM16.6791 5.49188C17.4617 6.5239 18.8166 7.62249 21.0738 7.81087C20.7582 9.48823 19.2684 10.763 17.4802 10.763C15.4633 10.763 13.8225 9.1424 13.8225 7.15046C13.8225 7.0498 13.8296 6.95102 13.8378 6.85261C15.3309 6.68873 16.3684 5.79371 16.6791 5.4919L16.6791 5.49188Z" fill="currentColor"/>
</svg>
