<?xml version="1.0" encoding="utf-8"?>
<!-- Generator: Adobe Illustrator 27.6.1, SVG Export Plug-In . SVG Version: 6.00 Build 0)  -->
<svg version="1.1" xmlns="http://www.w3.org/2000/svg" xmlns:xlink="http://www.w3.org/1999/xlink" x="0px" y="0px"
	 viewBox="0 0 377.9 101.1" style="enable-background:new 0 0 377.9 101.1;" xml:space="preserve">
<style type="text/css">
	.st0{display:none;}
	.st1{display:inline;}
	.st2{fill:#E32B26;}
</style>
<g id="Слой_1" class="st0">
	<g id="HlY2tZ_00000077320656127026813180000018157594644421226646_" class="st1">
		
			<image style="overflow:visible;" width="384" height="127" id="HlY2tZ_00000059295060014535935790000010207520251258531724_" xlink:href="2EFE10EAAA5EC95C.jpg"  transform="matrix(1 0 0 1 28.8701 -129.0476)">
		</image>
	</g>
</g>
<g id="Слой_4">
</g>
<g id="флаг">
	<polygon class="st2" points="16.1,19 5.4,38.3 27.7,38.3 38.4,19 	"/>
	<polygon class="st2" points="60.8,19 50,38.3 72.4,38.3 83.1,19 	"/>
	<polygon class="st2" points="72.4,38.3 61.6,57.6 84,57.6 94.7,38.3 	"/>
	<polygon class="st2" points="105.4,19 94.7,38.3 117,38.3 127.7,19 	"/>
	<polygon class="st2" points="39.4,57.6 28.6,76.9 51,76.9 61.7,57.6 	"/>
	<polygon class="st2" points="84,57.6 73.2,76.9 95.6,76.9 106.3,57.6 	"/>
	<polygon class="st2" points="27.7,38.3 17,57.6 39.3,57.6 50,38.3 	"/>
</g>
<g id="Надпись">
	<g>
		<path d="M124.9,40.2l11.6-20.9l64.7,0c1.2,0,2.4,0.4,3.4,1.2c2.3,1.7,5.5,5.6,2.8,12.1c-3.9,9.5-13,31.5-32.5,32.1
			c0,0-0.1,0-0.1,0.1c1.1,4.1,2.3,8.1,3.4,12.2c0,0,0,0,0,0c-8.8,0-17.6,0-26.5,0c0,0,0,0,0,0c-1.6-9.1-3.1-18.1-4.7-27.2
			c0,0,29.6-0.1,29.6-0.1c0.6,0,1.3-0.2,1.7-0.7c3-2.8,13.7-13.3,4-13.4c-11.1-0.1-32.4,0-32.8,0c0,0-2.5,4.6-2.5,4.6c0,0,0,0,0,0
			C139.7,40.2,132.4,40.1,124.9,40.2z"/>
		<path d="M128.3,76.9c-7.9,0-16,0.2-23.9,0.1c5.8-10.5,11.8-21.2,17.6-31.7c7.6,0,15.4-0.1,23,0C139.5,55.9,133.9,66.4,128.3,76.9z
			"/>
		<path d="M291.2,19.3c-2.8,5.1-5.9,11.2-8.7,16.3c-17.1,0-34.3,0-51.4,0c-5,8.8-9.8,17-14.8,25.8c0,0,0,0.1,0.1,0.1
			c2,0,26.3,0,30.5,0c0.4,0,0.7-0.2,0.8-0.6l1.8-4.7c0.1-0.3-0.1-0.6-0.4-0.6l-19.7,0c0,0,0,0,0,0c5.9-5.3,11.6-10.1,17.5-15.4
			c10.9,0,21.9,0,32.8,0C273.1,52.6,266.6,64.5,260,77h-61c-0.9-0.6-3.3-2.3-4.4-5.6c-1.7-5,1.1-9.2,1.4-9.7
			c0,0,14.3-37.7,33.7-42.3L291.2,19.3z"/>
		<polygon points="288.7,77 265,77 285.4,40.2 309.2,40.2 		"/>
		<path d="M297.2,19.3l-9.1,16.3l56.6,0c0.3,0,0.6,0.1,0.8,0.2c1.1,0.7,3.6,3.3-0.3,7.3l-5.1,5.5c-0.4,0.4-0.9,0.7-1.5,0.7
			l-25.7-0.1l-8.3,15.7c0,0.1,0,0.2,0.1,0.2l35.1,0.1c0.2,0,0.3,0,0.5-0.1c2.7-1,26.3-11.1,29-39.8c0.1-1.2-0.1-2.4-0.7-3.4
			c-0.7-1.2-2.1-2.5-4.8-2.5L297.2,19.3z"/>
	</g>
</g>
</svg>
