<svg width="40" height="40" viewBox="0 0 40 40" fill="currentColor" xmlns="http://www.w3.org/2000/svg">
<path d="M35.3928 14.4502L35.543 14.4814L36.5382 11.6149L36.3894 11.5809C36.5075 11.2424 38.3156 8.81345 39.1559 5.58098C39.9967 2.34899 36.5931 0 36.5931 0C36.5931 0 38.4918 2.05827 36.095 4.94668C32.5208 9.25525 34.7194 10.8722 34.6032 11.2108L34.4521 11.1829L33.4574 14.0489L33.6076 14.0796C33.6076 14.0796 31.7599 18.2259 31.0196 20.3571C30.2811 22.4884 25.6409 39.922 26.0107 39.9993L26.0181 39.9998C26.5022 40.0998 32.9077 23.072 33.6476 20.941C34.3875 18.8102 35.3929 14.4495 35.3929 14.4495L35.3928 14.4502Z" fill="currentColor"/>
<path d="M38.9439 13.7455L37.826 12.9879L36.6392 16.4055C36.5131 16.9194 36.362 17.5188 36.1997 18.1388H37.5962C38.6523 18.1388 39.5842 17.4514 39.8944 16.4409C40.2032 15.4313 39.8182 14.338 38.9439 13.7454L38.9439 13.7455Z" fill="currentColor"/>
<path d="M27.083 28.2577H25.5381L25.5385 15.7347H29.4058V19.9303C29.4193 19.8908 29.4337 19.8443 29.4453 19.8108C29.8815 18.5561 30.668 16.6713 31.2701 15.2692L32.7258 11.0764C32.5463 10.6416 32.3784 10.0482 32.3798 9.29718L30.1471 7.7844L21.348 1.82483C20.9407 1.5486 20.4705 1.40955 19.9999 1.40955C19.5293 1.40955 19.0587 1.54906 18.6513 1.82483L9.85452 7.7844L1.05643 13.744C0.181681 14.3364 -0.203842 15.4302 0.105881 16.4394C0.416067 17.4499 1.34853 18.1373 2.40416 18.1373H4.58422V25.8756C3.46346 26.0314 2.59154 26.9601 2.52035 28.1064H2.40456C1.07773 28.1064 0.001157 29.1815 0.001157 30.5098V35.0672C0.001157 36.3953 1.07773 37.4719 2.40456 37.4719H24.7516C25.0822 36.0005 25.6384 33.7878 26.5285 30.3725C26.7062 29.6842 26.8936 28.9718 27.0829 28.2574L27.083 28.2577ZM14.4588 28.2577H10.5916V15.7347H14.4588V28.2577ZM21.9317 28.2577H18.0649L18.0654 15.7347H21.9318L21.9317 28.2577Z" fill="currentColor"/>
<path d="M37.5962 28.1077H37.4804C37.4093 26.9618 36.5364 26.0336 35.4166 25.8769L35.4161 20.9023C35.3501 21.1102 35.2854 21.3079 35.2222 21.4897C34.8655 22.5179 33.1076 27.24 31.3057 31.8732C30.3677 34.2859 29.6524 36.1032 29.0864 37.4742H37.5958C38.9226 37.4742 39.9992 36.3976 39.9992 35.0695V30.5121C39.9997 29.183 38.9231 28.1078 37.5963 28.1078L37.5962 28.1077Z" fill="currentColor"/>
</svg>
