<svg width="87" height="32" viewBox="0 0 87 32" fill="none" xmlns="http://www.w3.org/2000/svg">
<path d="M19 6H83C85.2091 6 87 7.79086 87 10V23C87 25.2091 85.2091 27 83 27H19V6Z" fill="#3668CB"/>
<circle cx="16" cy="16" r="16" fill="#2FB61D"/>
<path d="M8 10.2222C8 17.8315 14.1685 24 21.7778 24C22.1211 24 22.4614 23.9875 22.7985 23.9628C23.1852 23.9344 23.3786 23.9203 23.5547 23.8189C23.7004 23.735 23.8387 23.5862 23.9117 23.4347C24 23.2517 24 23.0383 24 22.6116V20.1073C24 19.7484 24 19.5689 23.9409 19.4151C23.8888 19.2792 23.804 19.1582 23.6941 19.0628C23.5698 18.9547 23.4011 18.8933 23.0638 18.7707L20.2133 17.7341C19.8209 17.5915 19.6246 17.5201 19.4385 17.5322C19.2743 17.5428 19.1164 17.5989 18.9821 17.694C18.83 17.8019 18.7226 17.9809 18.5077 18.339L17.7778 19.5556C15.4223 18.4888 13.5128 16.5768 12.4444 14.2222L13.661 13.4923C14.0191 13.2774 14.1981 13.17 14.306 13.0178C14.4011 12.8836 14.4572 12.7257 14.4678 12.5615C14.4799 12.3754 14.4085 12.1791 14.2659 11.7867L13.2293 8.93619C13.1067 8.5989 13.0453 8.43025 12.9373 8.30587C12.8418 8.19599 12.7208 8.11124 12.5849 8.05907C12.4311 8 12.2516 8 11.8927 8H9.38845C8.96167 8 8.74828 8 8.56532 8.08822C8.41378 8.1613 8.26501 8.29956 8.18107 8.44536C8.07972 8.6214 8.06556 8.81477 8.03724 9.20154C8.01256 9.53854 8 9.87892 8 10.2222Z" fill="white"/>
<path d="M39.188 14.364C39.484 14.364 39.632 14.54 39.632 14.892C39.632 15.036 39.572 15.144 39.452 15.216C39.332 15.288 39.16 15.368 38.936 15.456C38.88 15.48 38.8 15.508 38.696 15.54C38.592 15.564 38.512 15.596 38.456 15.636C38.608 15.844 38.732 15.968 38.828 16.008C38.972 16.104 39.084 16.192 39.164 16.272C39.252 16.352 39.296 16.452 39.296 16.572C39.296 16.74 39.24 16.884 39.128 17.004C39.016 17.116 38.872 17.172 38.696 17.172C38.576 17.172 38.468 17.136 38.372 17.064C38.276 16.992 38.172 16.88 38.06 16.728C37.996 16.656 37.924 16.552 37.844 16.416C37.708 16.184 37.604 16.068 37.532 16.068C37.484 16.068 37.416 16.132 37.328 16.26C37.24 16.388 37.176 16.508 37.136 16.62C36.984 17.076 36.78 17.304 36.524 17.304C36.38 17.304 36.24 17.26 36.104 17.172C35.976 17.076 35.912 16.944 35.912 16.776C35.912 16.648 35.944 16.54 36.008 16.452C36.08 16.364 36.188 16.256 36.332 16.128C36.54 15.952 36.66 15.796 36.692 15.66C36.612 15.62 36.484 15.568 36.308 15.504C36.02 15.408 35.808 15.312 35.672 15.216C35.536 15.136 35.468 15.008 35.468 14.832C35.468 14.712 35.5 14.612 35.564 14.532C35.62 14.452 35.692 14.392 35.78 14.352C35.868 14.304 35.952 14.28 36.032 14.28C36.144 14.28 36.244 14.304 36.332 14.352C36.428 14.4 36.548 14.476 36.692 14.58C36.732 14.612 36.804 14.672 36.908 14.76C37.012 14.848 37.104 14.9 37.184 14.916C37.184 14.82 37.156 14.64 37.1 14.376C37.052 14.168 37.028 14.016 37.028 13.92C37.028 13.728 37.104 13.576 37.256 13.464C37.408 13.344 37.584 13.284 37.784 13.284C37.92 13.284 38.028 13.34 38.108 13.452C38.188 13.556 38.228 13.684 38.228 13.836C38.228 13.964 38.188 14.164 38.108 14.436C38.044 14.692 38.016 14.852 38.024 14.916C38.096 14.908 38.184 14.86 38.288 14.772C38.392 14.684 38.464 14.628 38.504 14.604C38.64 14.524 38.756 14.464 38.852 14.424C38.956 14.384 39.068 14.364 39.188 14.364ZM46.5138 14.688C46.4338 16.256 46.3938 17.504 46.3938 18.432C46.3938 18.912 46.4058 19.368 46.4298 19.8C46.4938 19.848 46.6178 19.872 46.8018 19.872L47.0778 19.86C47.1898 19.844 47.2938 19.836 47.3898 19.836C47.5978 19.836 47.7578 19.872 47.8698 19.944C47.9898 20.016 48.0498 20.156 48.0498 20.364C48.0498 20.564 47.9898 20.72 47.8698 20.832C47.7578 20.944 47.5218 21 47.1618 21C46.8578 21 46.4898 20.976 46.0578 20.928C45.9538 20.92 45.8538 20.912 45.7578 20.904C45.6618 20.896 45.5738 20.892 45.4938 20.892C45.0538 20.9 44.7258 20.916 44.5098 20.94C44.2938 20.964 44.0498 20.976 43.7778 20.976C43.5298 20.976 43.4058 20.788 43.4058 20.412C43.4058 20.052 43.6378 19.872 44.1018 19.872C44.1738 19.872 44.2898 19.88 44.4498 19.896C44.5858 19.92 44.7298 19.932 44.8818 19.932C44.9698 19.932 45.0418 19.928 45.0978 19.92C45.1058 19.384 45.1338 18.604 45.1818 17.58C45.2298 16.38 45.2538 15.492 45.2538 14.916C45.2138 14.924 45.0738 14.98 44.8338 15.084C44.4658 15.268 44.1938 15.36 44.0178 15.36C43.9218 15.36 43.8338 15.312 43.7538 15.216C43.6738 15.112 43.6338 14.992 43.6338 14.856C43.6338 14.72 43.7178 14.588 43.8858 14.46C44.0538 14.332 44.3258 14.164 44.7018 13.956C44.9098 13.852 45.1098 13.736 45.3018 13.608C45.3498 13.576 45.4178 13.544 45.5058 13.512C45.6018 13.48 45.6738 13.464 45.7218 13.464C45.9298 13.464 46.1178 13.508 46.2858 13.596C46.4618 13.676 46.5498 13.784 46.5498 13.92L46.5138 14.688ZM50.6162 19.752C50.8882 19.768 51.0682 19.776 51.1562 19.776C51.4282 19.776 51.6682 19.772 51.8762 19.764C52.0922 19.756 52.2762 19.748 52.4282 19.74C52.8202 19.716 53.1722 19.704 53.4842 19.704C53.7882 19.704 54.0122 19.784 54.1562 19.944C54.3002 20.104 54.3722 20.316 54.3722 20.58C54.3722 20.708 54.2882 20.812 54.1202 20.892C53.9522 20.964 53.7802 21 53.6042 21C53.4522 21 53.1362 20.984 52.6562 20.952C52.0802 20.904 51.6282 20.88 51.3002 20.88C51.1242 20.88 50.9162 20.892 50.6762 20.916C50.5802 20.924 50.4642 20.932 50.3282 20.94C50.1922 20.948 50.0402 20.952 49.8722 20.952C49.5522 20.952 49.3082 20.908 49.1402 20.82C48.9722 20.732 48.8882 20.572 48.8882 20.34C48.8882 20.14 48.9682 19.936 49.1282 19.728C49.2882 19.52 49.5122 19.272 49.8002 18.984L50.0882 18.696C50.2162 18.56 50.4522 18.328 50.7962 18C51.3642 17.488 51.8042 17.036 52.1162 16.644C52.4362 16.252 52.5962 15.864 52.5962 15.48C52.5962 15.232 52.4762 15.032 52.2362 14.88C52.0042 14.72 51.7362 14.64 51.4322 14.64C50.9682 14.64 50.6322 14.744 50.4242 14.952C50.2242 15.152 50.1242 15.444 50.1242 15.828C50.1242 15.924 50.0682 16.012 49.9562 16.092C49.8522 16.164 49.7202 16.2 49.5602 16.2C49.3362 16.2 49.1802 16.12 49.0922 15.96C49.0042 15.8 48.9602 15.604 48.9602 15.372C48.9602 15.004 49.0722 14.68 49.2962 14.4C49.5202 14.112 49.8242 13.888 50.2082 13.728C50.6002 13.568 51.0322 13.488 51.5042 13.488C51.8402 13.488 52.1882 13.572 52.5482 13.74C52.9162 13.9 53.2202 14.12 53.4602 14.4C53.7082 14.672 53.8322 14.972 53.8322 15.3C53.8322 15.796 53.7082 16.268 53.4602 16.716C53.2122 17.164 52.9202 17.564 52.5842 17.916C52.2562 18.26 51.8282 18.668 51.3002 19.14C51.0442 19.356 50.8162 19.56 50.6162 19.752ZM60.1679 13.8C60.1679 14.192 60.0959 14.648 59.9519 15.168C59.8159 15.68 59.6159 16.312 59.3519 17.064L59.0759 17.892C59.2119 17.916 59.3519 17.928 59.4959 17.928C59.7439 17.928 60.1159 17.904 60.6119 17.856C61.1079 17.808 61.4639 17.784 61.6799 17.784L61.6679 16.464C61.6519 15.552 61.6439 14.88 61.6439 14.448C61.6439 13.88 61.8319 13.596 62.2079 13.596C62.5039 13.596 62.6919 13.672 62.7719 13.824C62.8599 13.976 62.9039 14.204 62.9039 14.508C62.9039 14.82 62.8799 15.304 62.8319 15.96C62.8239 16.088 62.8119 16.3 62.7959 16.596C62.7799 16.892 62.7719 17.148 62.7719 17.364L62.7839 17.748L63.0239 17.736C63.2159 17.72 63.3639 17.712 63.4679 17.712C63.6599 17.712 63.8439 17.776 64.0199 17.904C64.1959 18.024 64.2839 18.168 64.2839 18.336C64.2839 18.536 64.2519 18.692 64.1879 18.804C64.1319 18.916 64.0639 18.972 63.9839 18.972C63.8479 18.972 63.6759 18.956 63.4679 18.924C63.4199 18.924 63.3479 18.92 63.2519 18.912C63.1559 18.896 63.0639 18.888 62.9759 18.888L62.7719 18.9L62.7839 20.52C62.7839 20.688 62.7279 20.816 62.6159 20.904C62.5039 20.992 62.3759 21.036 62.2319 21.036C62.0559 21.036 61.8999 20.98 61.7639 20.868C61.6279 20.756 61.5599 20.616 61.5599 20.448C61.5599 19.912 61.5679 19.492 61.5839 19.188C61.5919 19.116 61.5959 19.028 61.5959 18.924C61.3559 18.916 60.9399 18.944 60.3479 19.008C59.7879 19.072 59.3639 19.104 59.0759 19.104C58.7079 19.104 58.3959 19.052 58.1399 18.948C57.8919 18.844 57.7679 18.68 57.7679 18.456C57.7679 18.24 57.8119 17.976 57.8999 17.664C57.9879 17.352 58.1199 16.932 58.2959 16.404C58.3759 16.196 58.4359 16.024 58.4759 15.888C58.6199 15.48 58.7279 15.136 58.7999 14.856C58.8719 14.568 58.9519 14.22 59.0399 13.812C59.0719 13.684 59.1399 13.588 59.2439 13.524C59.3479 13.46 59.4679 13.428 59.6039 13.428C59.7479 13.428 59.8759 13.464 59.9879 13.536C60.1079 13.6 60.1679 13.688 60.1679 13.8ZM67.375 13.8C67.375 14.192 67.303 14.648 67.159 15.168C67.023 15.68 66.823 16.312 66.559 17.064L66.283 17.892C66.419 17.916 66.559 17.928 66.703 17.928C66.951 17.928 67.323 17.904 67.819 17.856C68.315 17.808 68.671 17.784 68.887 17.784L68.875 16.464C68.859 15.552 68.851 14.88 68.851 14.448C68.851 13.88 69.039 13.596 69.415 13.596C69.711 13.596 69.899 13.672 69.979 13.824C70.067 13.976 70.111 14.204 70.111 14.508C70.111 14.82 70.087 15.304 70.039 15.96C70.031 16.088 70.019 16.3 70.003 16.596C69.987 16.892 69.979 17.148 69.979 17.364L69.991 17.748L70.231 17.736C70.423 17.72 70.571 17.712 70.675 17.712C70.867 17.712 71.051 17.776 71.227 17.904C71.403 18.024 71.491 18.168 71.491 18.336C71.491 18.536 71.459 18.692 71.395 18.804C71.339 18.916 71.271 18.972 71.191 18.972C71.055 18.972 70.883 18.956 70.675 18.924C70.627 18.924 70.555 18.92 70.459 18.912C70.363 18.896 70.271 18.888 70.183 18.888L69.979 18.9L69.991 20.52C69.991 20.688 69.935 20.816 69.823 20.904C69.711 20.992 69.583 21.036 69.439 21.036C69.263 21.036 69.107 20.98 68.971 20.868C68.835 20.756 68.767 20.616 68.767 20.448C68.767 19.912 68.775 19.492 68.791 19.188C68.799 19.116 68.803 19.028 68.803 18.924C68.563 18.916 68.147 18.944 67.555 19.008C66.995 19.072 66.571 19.104 66.283 19.104C65.915 19.104 65.603 19.052 65.347 18.948C65.099 18.844 64.975 18.68 64.975 18.456C64.975 18.24 65.019 17.976 65.107 17.664C65.195 17.352 65.327 16.932 65.503 16.404C65.583 16.196 65.643 16.024 65.683 15.888C65.827 15.48 65.935 15.136 66.007 14.856C66.079 14.568 66.159 14.22 66.247 13.812C66.279 13.684 66.347 13.588 66.451 13.524C66.555 13.46 66.675 13.428 66.811 13.428C66.955 13.428 67.083 13.464 67.195 13.536C67.315 13.6 67.375 13.688 67.375 13.8Z" fill="white"/>
</svg>
