<svg width="12" height="12" viewBox="0 0 12 12" fill="none" xmlns="http://www.w3.org/2000/svg">
<path fill-rule="evenodd" clip-rule="evenodd" d="M1.23607 3.33332C0.553407 3.33332 0 3.88673 0 4.56939V7.90475C0 8.30278 0 8.5018 0.0188634 8.66922C0.175576 10.0601 1.27325 11.1577 2.66411 11.3145C2.83152 11.3333 3.03054 11.3333 3.42857 11.3333H8.57143C8.96946 11.3333 9.16848 11.3333 9.33589 11.3145C10.7268 11.1577 11.8244 10.0601 11.9811 8.66922C12 8.5018 12 8.30278 12 7.90475V4.56939C12 3.88673 11.4466 3.33332 10.7639 3.33332C10.2957 3.33332 9.86774 3.0688 9.65836 2.65004L9.11111 1.55555C8.83873 1.01078 8.28193 0.666656 7.67286 0.666656H4.32714C3.71807 0.666656 3.16127 1.01078 2.88889 1.55555L2.34164 2.65004C2.13226 3.0688 1.70426 3.33332 1.23607 3.33332ZM6.66667 6.66666C6.66667 7.03485 6.36819 7.33332 6 7.33332C5.63181 7.33332 5.33333 7.03485 5.33333 6.66666C5.33333 6.29847 5.63181 5.99999 6 5.99999C6.36819 5.99999 6.66667 6.29847 6.66667 6.66666ZM8.66667 6.66666C8.66667 8.13942 7.47276 9.33332 6 9.33332C4.52724 9.33332 3.33333 8.13942 3.33333 6.66666C3.33333 5.1939 4.52724 3.99999 6 3.99999C7.47276 3.99999 8.66667 5.1939 8.66667 6.66666Z" fill="white"/>
</svg>
