<svg width="327" height="195" viewBox="0 0 327 195" fill="none" xmlns="http://www.w3.org/2000/svg">
<path d="M14.1386 0.451191C14.2148 0.654316 14.976 3.16799 15.8388 5.98635C16.7015 8.8301 18.0718 13.2227 18.9091 15.7617C19.7211 18.2754 20.4063 20.459 20.4063 20.586C20.4063 20.7129 18.0718 21.0938 15.2298 21.3985C9.26665 22.0586 0.867522 23.3789 0.537647 23.709C0.410772 23.836 1.9079 28.6856 4.01402 34.9317C8.5054 48.3633 9.03827 49.7852 9.5204 49.709C9.7234 49.6836 11.7026 49.0742 13.9356 48.3633C18.1225 47.043 28.7546 44.1992 28.9323 44.3516C28.983 44.4024 30.0488 47.0684 31.2921 50.293C34.4894 58.5196 39.2091 70.3008 39.4375 70.5293C39.539 70.6309 40.5286 70.377 41.6198 69.9453C44.1826 68.9043 54.358 65.5274 56.1343 65.1211C56.8448 64.9688 57.5299 64.7149 57.606 64.5879C57.6821 64.461 56.7179 61.8711 55.4491 58.8242C51.5414 49.3281 48.2934 41.2031 48.3949 41.1016C48.5471 40.9238 54.8655 40.3145 61.0063 39.8574C64.1528 39.6035 66.7664 39.375 66.8172 39.3496C66.8425 39.2988 65.1932 35.0586 63.1124 29.9043L59.3062 20.5606L58.0628 20.3828C57.3776 20.2813 53.0639 20.1035 48.471 20.002L40.148 19.7988L38.93 16.4473C38.2703 14.6192 36.7731 10.4297 35.6313 7.12893C33.5505 1.18752 33.5251 1.13674 32.7385 1.00978C31.4444 0.806659 24.1618 0.375019 18.9091 0.197284C14.4685 0.0449406 13.9864 0.0703312 14.1386 0.451191ZM41.0615 22.2617C47.6083 39.4258 48.1158 40.8223 47.8113 41C47.6336 41.1016 46.7963 41.2793 45.9335 41.3809C43.9543 41.584 34.7431 43.1328 31.5713 43.7676C30.2518 44.0469 29.0845 44.1992 28.983 44.0977C28.4248 43.5391 20.5585 21.1953 20.8376 20.916C20.9391 20.8145 23.6796 20.6113 26.8769 20.4336C30.0995 20.2813 33.1191 20.1289 33.6013 20.0781C34.0834 20.0528 35.7581 20.002 37.3314 19.9766L40.148 19.9258L41.0615 22.2617Z" fill="#E61414"/>
<path d="M52.6326 3.47266C52.6326 3.57423 58.3927 18.2754 59.1539 20.0781C59.2047 20.2559 60.2958 20.4336 61.7168 20.5352C65.6246 20.8145 76.0283 21.7031 76.9418 21.8301C77.3732 21.9063 77.7538 21.9063 77.7538 21.8555C77.7538 21.7539 71.1563 6.3672 71.0548 6.29102C70.9787 6.21485 55.6268 3.70118 54.1043 3.52345C53.2923 3.42188 52.6326 3.39649 52.6326 3.47266Z" fill="#E61414"/>
<path d="M89.7816 10.836C89.9846 11.293 91.4309 14.4414 92.9788 17.8438C94.552 21.2461 95.77 24.0645 95.7193 24.1153C95.6685 24.166 94.552 24.0645 93.2325 23.8613C88.2591 23.125 78.2106 21.9317 78.0837 22.0586C78.0076 22.1348 79.5554 25.9434 81.5347 30.5391C83.4886 35.1094 85.1126 38.918 85.1126 39.0195C85.1126 39.0957 81.1287 39.1973 76.2313 39.2735C71.3593 39.3242 67.2993 39.4512 67.2232 39.5274C67.1471 39.6035 69.0248 44.3262 71.4101 50.0137C73.7699 55.7012 75.7238 60.4492 75.7238 60.5508C75.7238 60.6524 73.8207 61.084 71.5116 61.541C66.8426 62.4551 58.2912 64.4356 58.0882 64.6641C57.9106 64.8164 58.7987 67 64.7364 80.9141C67.0456 86.3477 69.0248 90.8164 69.1263 90.8926C69.2532 90.9688 70.9787 90.334 72.9833 89.4707C78.0076 87.2871 85.7216 84.418 85.9246 84.6211C86.1529 84.875 96.8104 109.809 96.9627 110.494C97.0642 110.926 96.9119 111.129 96.2522 111.484C94.4505 112.398 88.8934 115.953 85.6201 118.289C83.7423 119.635 82.1437 120.65 82.0422 120.523C81.8899 120.346 77.7284 110.951 73.2878 100.744C69.8876 92.8985 69.3293 91.6797 69.1263 91.4258C68.7711 91.0703 61.2854 94.9805 55.2208 98.7129C53.6222 99.6778 52.2519 100.363 52.1504 100.262C51.7952 99.8555 40.3511 73.1445 39.8436 71.5195C39.7421 71.2149 39.4883 70.961 39.3107 70.961C38.7778 70.961 32.1549 73.8301 28.6786 75.582C26.1411 76.8516 21.2183 79.4922 20.9646 79.7207C20.7616 79.8985 34.9969 112.729 35.5298 113.338C35.5806 113.389 36.2657 112.881 37.0523 112.195C40.3257 109.352 42.7617 107.371 45.4007 105.391C48.5472 103.029 52.1251 100.592 52.2519 100.719C52.2773 100.744 54.0282 104.629 56.1343 109.301C58.2151 113.973 61.5646 121.336 63.5438 125.678C65.5231 129.994 67.1978 133.676 67.2739 133.854C67.3501 134.006 66.3351 135.326 65.0663 136.748C61.1332 141.141 53.6729 150.992 53.6476 151.83C53.6476 152.262 74.8357 194.461 75.0894 194.537C75.2417 194.563 75.8507 193.217 76.4597 191.49C78.1091 186.92 81.1033 180.014 83.2348 175.824C84.2752 173.793 85.1126 172.066 85.1126 171.965C85.1126 171.889 83.4886 168.41 81.5347 164.246C73.8461 147.996 67.6038 134.59 67.6038 134.285C67.6038 133.93 71.5369 129.943 74.7342 127.023C76.8911 125.068 81.8392 121.006 82.0676 120.98C82.1437 120.98 83.5901 124.154 85.3156 128.039C92.6489 144.518 96.9119 153.988 97.0642 153.988C97.1403 153.988 98.3329 152.643 99.7285 151.018C101.099 149.367 103.941 146.32 105.996 144.238L109.752 140.455L109.346 139.414C109.117 138.83 106.351 132.33 103.205 124.941C100.084 117.553 97.4448 111.357 97.3687 111.205C97.2925 110.977 98.409 110.266 100.388 109.225C103.941 107.32 111.68 103.715 112.137 103.715C112.315 103.715 112.518 103.867 112.594 104.02C112.67 104.197 113.761 106.914 115.055 110.063C116.349 113.211 118.633 118.848 120.155 122.631C121.678 126.389 123.023 129.537 123.124 129.639C123.226 129.74 124.748 128.877 126.499 127.734C128.275 126.617 131.194 124.814 133.046 123.773C136.04 122.047 136.345 121.818 136.243 121.285C136.091 120.676 130.128 105.086 128.402 100.82C127.895 99.5508 127.489 98.4082 127.489 98.2559C127.489 97.9766 127.793 97.875 135.939 95.6914C138.831 94.9297 141.394 94.3203 141.648 94.3711C142.105 94.4727 142.612 95.7168 146.799 107.27C148.347 111.535 149.692 115.115 149.793 115.217C149.92 115.318 151.138 114.963 152.509 114.43C153.879 113.871 156.67 112.83 158.7 112.094C160.705 111.383 162.43 110.748 162.532 110.672C162.785 110.52 156.619 92.1875 156.137 91.6797C155.883 91.4004 154.488 91.6289 147.18 93.1016C144.414 93.6602 142.054 94.0156 141.953 93.8887C141.851 93.7871 141.141 92.0352 140.379 90.0039C139.593 87.9727 137.969 83.7832 136.751 80.6602C135.507 77.5625 134.568 74.9727 134.619 74.9219C134.746 74.7695 146.241 74.0078 148.119 74.0078C149.108 74.0078 149.565 73.9063 149.54 73.6777C149.54 73.5254 148.144 69.9453 146.444 65.7559L143.348 58.1387L142.079 57.9863C141.369 57.8848 137.816 57.7324 134.137 57.6309C129.646 57.4785 127.413 57.3262 127.235 57.1231C126.931 56.7422 120.358 41.711 120.46 41.6094C120.536 41.5078 128.681 42.4473 133.959 43.1328C135.507 43.336 136.776 43.4629 136.827 43.4375C136.852 43.3867 136.091 41.6602 135.127 39.5781C131.016 30.666 130.864 30.4121 130.255 30.2598C129.646 30.1074 122.744 28.7871 116.907 27.6953C115.182 27.3906 113.786 27.1875 113.786 27.2637C113.786 27.3399 115.233 30.5391 116.984 34.3477C118.734 38.1817 120.13 41.3301 120.079 41.3809C120.029 41.4317 118.278 41.3047 116.197 41.1016C110.411 40.543 103.281 39.9844 103.205 40.086C103.129 40.1367 108.026 51.6133 109.879 55.7012C110.208 56.4375 110.488 57.1485 110.488 57.25C110.488 57.3516 108.584 57.5293 106.25 57.6309C103.89 57.7324 100.109 57.9356 97.8 58.1133C95.4909 58.291 93.537 58.3672 93.4609 58.291C93.1818 58.0117 85.3409 39.4258 85.4678 39.2988C85.5947 39.1719 97.3179 39.6289 100.82 39.8828C102.9 40.0352 102.926 40.0352 102.748 39.502C102.672 39.1973 101.099 35.6934 99.2972 31.6817C97.4955 27.6699 96.0238 24.3692 96.0238 24.3184C96.0238 24.2676 96.4044 24.293 96.8612 24.3692C102.672 25.334 113.38 27.0098 113.431 26.959C113.482 26.9082 112.746 25.2832 111.807 23.3281C110.843 21.3985 109.473 18.5039 108.711 16.9297C107.443 14.2637 107.29 14.0606 106.453 13.8321C104.601 13.3496 89.8831 10.0235 89.5278 10.0235C89.4771 10.0235 89.5786 10.4043 89.7816 10.836ZM127.743 58.5957C130.737 65.6797 134.315 74.5918 134.213 74.7442C134.162 74.8711 133.224 75.0235 132.132 75.0996C127.337 75.5059 118.861 76.6485 118.861 76.9277C118.861 77.0801 119.267 78.1719 119.775 79.3399C120.942 82.1074 127.235 97.8242 127.235 97.9766C127.235 98.0274 126.474 98.3321 125.535 98.6621C123.302 99.3731 114.725 102.522 113.431 103.08C112.898 103.309 112.441 103.461 112.391 103.41C112.264 103.283 102.621 80.0254 102.621 79.8731C102.621 79.6953 110.107 78.1719 115.309 77.2832C117.06 76.9785 118.531 76.6992 118.582 76.6485C118.658 76.5723 116.933 72.3828 112.873 62.7598C111.706 59.9922 110.741 57.707 110.741 57.6309C110.741 57.4278 113.634 57.3516 120.409 57.3008L127.184 57.2754L127.743 58.5957ZM95.567 63.3438C100.947 76.0137 102.418 79.6192 102.342 79.6953C102.291 79.7461 100.084 80.3809 97.4194 81.0664C94.7804 81.7774 91.1264 82.8184 89.2994 83.377C87.4978 83.9356 85.9753 84.3418 85.9246 84.3164C85.8484 84.2149 81.2302 73.3731 77.7031 65.0449C76.7134 62.709 75.9522 60.7539 76.0029 60.7031C76.1044 60.627 84.1737 59.4844 88.6651 58.9004C90.1368 58.7227 91.8369 58.5957 92.4459 58.6211L93.5624 58.6465L95.567 63.3438Z" fill="#E61414"/>
<path d="M158.446 15.2793C158.446 15.4063 163.166 24.9023 163.369 25.1816C163.394 25.207 165.983 25.8164 169.104 26.5273C172.25 27.2383 175.574 28 176.539 28.2285C177.478 28.457 178.315 28.5586 178.391 28.5078C178.467 28.4316 177.554 26.3496 176.386 23.9121L174.23 19.4434L173.138 19.1641C170.043 18.3262 159.03 15.3301 158.776 15.2285C158.599 15.1777 158.446 15.2031 158.446 15.2793Z" fill="#E61414"/>
<path d="M124.951 18.5039C124.951 18.6055 126.271 21.2715 127.869 24.4707C129.722 28.2031 130.94 30.3359 131.219 30.4121C132.868 30.8691 147.078 33.6621 147.205 33.5605C147.281 33.459 142.561 23.9375 141.851 22.7949C141.826 22.7695 138.222 21.8301 133.832 20.6875C129.443 19.5449 125.636 18.5547 125.408 18.5039C125.154 18.4277 124.951 18.4277 124.951 18.5039Z" fill="#E61414"/>
<path d="M255.049 23.2774C256.038 26.8574 255.912 26.6797 257.586 26.9844C262.002 27.7461 266.29 28.3809 266.391 28.2793C266.544 28.127 265.554 23.4043 265.326 23.2012C265.148 23.0489 255.252 20.9414 254.694 20.9414C254.516 20.9414 254.617 21.7285 255.049 23.2774Z" fill="#E61414"/>
<path d="M301.155 22.1348C301.688 25.7657 301.866 26.5274 302.297 26.5528C302.526 26.5528 304.581 26.7051 306.89 26.8829C309.199 27.0606 311.128 27.1622 311.178 27.1368C311.229 27.086 311.178 25.9434 311.052 24.5723L310.823 22.1094L306.636 21.5508C304.327 21.2207 302.12 20.9668 301.714 20.9668C301.003 20.9415 301.003 20.9415 301.155 22.1348Z" fill="#E61414"/>
<path d="M220.336 23.1505C220.716 24.1153 221.3 25.6387 221.655 26.5782C222.214 28.2032 222.29 28.2794 223.33 28.5333C226.121 29.2442 234.165 30.8438 234.292 30.7169C234.368 30.6407 233.962 29.1934 233.404 27.4923L232.389 24.42L226.578 22.9473C223.355 22.1348 220.488 21.4747 220.209 21.4493C219.651 21.4493 219.651 21.4493 220.336 23.1505Z" fill="#E61414"/>
<path d="M192.55 25.5625C194.504 30.0313 196.027 33.0273 196.433 33.1797C197.245 33.5098 209.475 36.252 209.577 36.125C209.653 36.0488 209.247 34.9316 208.714 33.6113C206.608 28.5078 206.659 28.584 205.796 28.3301C204.629 27.9492 192.576 24.75 192.373 24.75C192.271 24.75 192.347 25.1309 192.55 25.5625Z" fill="#E61414"/>
<path d="M276.694 25.2324C276.694 25.9179 277.277 29.4726 277.43 29.625C277.607 29.8027 286.311 30.6914 286.489 30.539C286.539 30.4883 286.489 29.5234 286.387 28.4316L286.209 26.4004L282.276 25.8418C280.119 25.5371 277.988 25.2324 277.531 25.1308C277.024 25.0547 276.694 25.0801 276.694 25.2324Z" fill="#E61414"/>
<path d="M178.569 32.2911C178.619 32.418 179.584 34.6016 180.675 37.1915C181.766 39.7813 182.755 41.9649 182.857 42.0411C183.111 42.2188 196.534 44.6309 196.636 44.504C196.712 44.4278 193.261 35.6934 193.058 35.4395C192.956 35.3379 179.101 32.1133 178.721 32.1133C178.569 32.1133 178.518 32.1895 178.569 32.2911Z" fill="#E61414"/>
<path d="M270.731 33.7382L267.686 34.0175L267.457 35.4902C267.356 36.3027 267.305 37.039 267.406 37.1152C267.609 37.3183 274.689 36.2519 274.968 35.9726C275.07 35.8711 275.247 35.2363 275.323 34.5761L275.501 33.3828L274.638 33.4082C274.156 33.4336 272.405 33.5859 270.731 33.7382Z" fill="#E61414"/>
<path d="M147.535 34.0176C147.535 34.0938 147.966 35.0332 148.525 36.125C150.25 39.6035 152.915 45.5957 152.788 45.7227C152.737 45.7988 151.544 45.6719 150.174 45.4434C145.099 44.6309 137.284 43.5645 137.182 43.666C137.106 43.7168 138.045 45.9766 139.237 48.668C140.405 51.3594 141.8 54.5586 142.333 55.7773L143.272 57.9609L145.708 58.1387C147.053 58.2148 150.352 58.4688 152.991 58.6719C155.655 58.8496 157.99 59.0273 158.218 59.0273C158.649 59.0273 159.817 61.7949 162.887 69.9453C163.547 71.6973 164.156 73.1953 164.257 73.2715C164.333 73.373 167.48 73.5 171.235 73.5762C176.437 73.7031 178.112 73.8047 178.29 74.0586C178.391 74.2363 179.355 77.0801 180.421 80.3555C182.857 87.9473 182.882 87.998 182.756 88.0996C182.679 88.1758 172.301 89.2168 170.677 89.3184L169.814 89.3691L167.987 84.0371C166.972 81.0918 165.704 77.5117 165.171 76.0645L164.206 73.4238L161.136 73.6016C159.436 73.6777 156.188 73.7539 153.93 73.7793C149.793 73.8047 149.768 73.8047 149.895 74.3379C149.971 74.6426 151.088 77.7402 152.407 81.2441C153.727 84.7227 155.122 88.4805 155.503 89.5469C155.934 90.7148 156.315 91.4512 156.492 91.375C156.797 91.2734 169.129 89.4961 169.611 89.4961C169.84 89.4961 171.997 95.9707 174.331 103.639C174.889 105.492 175.422 106.762 175.6 106.762C175.777 106.762 178.239 106.203 181.081 105.492C183.923 104.807 186.486 104.172 186.816 104.096C187.501 103.918 187.653 104.73 185.065 95.5391C183.948 91.6797 183.06 88.4551 183.06 88.3789C183.06 88.1504 184.532 87.998 189.886 87.6172C192.728 87.4141 195.088 87.1855 195.164 87.1094C195.291 86.9824 194.758 85.002 192.931 78.8066C192.246 76.4707 191.688 74.4395 191.688 74.2871C191.688 74.0586 192.043 74.0078 192.906 74.1094C193.565 74.1855 196.331 74.3125 199.097 74.4141L204.071 74.5664L203.005 70.9355C201.203 64.9434 200.772 63.5977 200.645 63.5977C200.569 63.5977 197.651 63.2422 194.174 62.8105C190.673 62.3789 187.78 62.0996 187.704 62.1504C187.653 62.2266 188.465 64.8672 189.531 68.041C190.596 71.2148 191.408 73.8809 191.332 73.9316C191.282 74.0078 188.287 73.9824 184.735 73.8809L178.239 73.6777L177.782 72.4082C177.554 71.7227 176.488 68.7773 175.422 65.9082C173.874 61.668 173.57 60.6777 173.9 60.6016C174.128 60.5762 177.224 60.8809 180.776 61.2871C184.329 61.668 187.272 61.9727 187.323 61.9473C187.399 61.8711 185.851 57.6055 184.354 53.8223C183.796 52.4258 183.187 51.1816 183.009 51.0801C182.679 50.877 168.774 48.3633 168.647 48.4902C168.596 48.5156 169.002 49.5566 169.51 50.8008C171.895 56.5391 173.367 60.2715 173.291 60.3477C173.113 60.5254 158.903 59.0781 158.7 58.875C158.573 58.748 157.863 57.1484 157.101 55.3457C156.34 53.5176 155.148 50.6992 154.412 49.0234C153.701 47.373 153.143 45.9766 153.168 45.9512C153.219 45.9004 156.619 46.4336 160.73 47.0938C164.841 47.7793 168.241 48.2871 168.292 48.2363C168.368 48.1602 165.526 41.6602 164.206 38.9688L163.394 37.3184L160.857 36.7598C157.076 35.8965 147.763 33.8906 147.637 33.8906C147.586 33.8906 147.535 33.9414 147.535 34.0176Z" fill="#E61414"/>
<path d="M245.736 36.6328C245.736 38.4864 245.838 39.2735 246.066 39.3496C246.396 39.502 254.085 39.0703 254.237 38.918C254.288 38.8672 254.364 37.8008 254.389 36.5567L254.44 34.2715L250.075 34.1446L245.736 34.0176V36.6328Z" fill="#E61414"/>
<path d="M309.326 35.8203C308.92 36.3281 308.717 36.8359 308.819 36.9374C309.022 37.1406 314.223 39.2226 315.416 39.5781C315.771 39.6796 316.127 39.5273 316.659 38.9687L317.37 38.2324L313.868 36.5566C311.965 35.6425 310.316 34.9062 310.214 34.9062C310.138 34.9062 309.732 35.3124 309.326 35.8203Z" fill="#E61414"/>
<path d="M283.57 37.3691C283.85 38.334 284.306 40.0605 284.611 41.2539C284.89 42.4472 285.245 43.5136 285.372 43.666C285.651 43.9707 296.08 45.0371 296.182 44.7832C296.283 44.5801 294.735 37.6484 294.583 37.4707C294.431 37.3437 284.408 35.6933 283.621 35.6679H283.063L283.57 37.3691Z" fill="#E61414"/>
<path d="M259.312 40.4668C258.195 41 256.546 41.7617 255.633 42.1426C254.719 42.5488 253.932 42.9043 253.882 42.9297C253.704 43.082 255.759 46.8398 256.013 46.8144C256.216 46.8144 261.19 44.123 262.814 43.1328C263.22 42.9043 263.194 42.7519 262.484 41.1777C262.052 40.2383 261.621 39.4766 261.52 39.4766C261.418 39.4766 260.428 39.9336 259.312 40.4668Z" fill="#E61414"/>
<path d="M271.035 42.5488C268.827 42.6503 266.95 42.7773 266.899 42.8535C266.747 43.0058 267.153 50.3183 267.33 50.496C267.432 50.5976 272.989 49.8867 275.12 49.5058L275.932 49.3535V45.8242C275.932 42.5996 275.882 42.2695 275.501 42.3203C275.247 42.3203 273.243 42.4218 271.035 42.5488Z" fill="#E61414"/>
<path d="M210.059 45.0371C210.364 46.0527 212.927 52.9336 213.028 53.0352C213.104 53.1113 217.976 54 224.371 55.0918C224.904 55.1934 225.183 55.1426 225.183 54.9395C225.183 54.4316 223.102 48.0078 222.874 47.7285C222.747 47.6016 219.778 46.8398 216.276 46.0781C211.125 44.9102 209.958 44.7324 210.059 45.0371Z" fill="#E61414"/>
<path d="M308.133 46.0019L304.962 46.6367L304.682 47.7031C304.505 48.2617 304.403 48.7695 304.429 48.7949C304.479 48.8203 306.18 48.414 308.26 47.9062C311.914 46.9922 312.016 46.9414 312.346 46.1289C312.701 45.3164 312.701 45.3164 312.016 45.3418C311.635 45.3672 309.884 45.6718 308.133 46.0019Z" fill="#E61414"/>
<path d="M317.141 47.1953C313.386 47.9063 313.335 47.9063 313.183 48.7188C313.005 49.5567 312.955 49.5567 317.091 48.5918C320.212 47.8809 321.1 47.4746 321.1 46.7891C321.1 46.5098 320.669 46.5606 317.141 47.1953Z" fill="#E61414"/>
<path d="M239.697 49.8106C240.103 51.334 240.484 52.8575 240.56 53.2383C240.661 53.6192 240.839 53.9747 241.017 54.0254C241.575 54.254 251.344 55.5489 251.471 55.4219C251.573 55.295 250.38 49.3536 250.228 49.252C250.177 49.2012 239.24 47.0938 239.063 47.0938C238.987 47.0938 239.266 48.3126 239.697 49.8106Z" fill="#E61414"/>
<path d="M295.801 49.1758L292.426 50.9277V52.2988C292.426 53.0605 292.528 53.6953 292.655 53.6953C292.807 53.6953 294.329 52.832 296.08 51.7656L299.278 49.8613V48.5918C299.278 47.9062 299.252 47.373 299.227 47.373C299.176 47.3984 297.628 48.2109 295.801 49.1758Z" fill="#E61414"/>
<path d="M196.331 50.4961C196.712 52.1465 199.681 60.043 199.909 60.043C200.061 60.0683 202.827 60.373 206.024 60.7539C209.881 61.2109 211.886 61.3633 211.937 61.1855C211.962 61.0586 211.379 59.0019 210.643 56.6152L209.298 52.2988L205.517 51.6387C203.411 51.2578 200.467 50.7246 198.97 50.4453L196.204 49.9375L196.331 50.4961Z" fill="#E61414"/>
<path d="M281.769 54.2031V55.9805H284.256C285.6 55.9805 287.478 55.9043 288.442 55.8027L290.143 55.6504V54.2031V52.7559L288.062 52.6035C286.895 52.502 285.017 52.4258 283.875 52.4258H281.769V54.2031Z" fill="#E61414"/>
<path d="M227.111 56.4121C227.568 58.0625 228.075 59.8906 228.227 60.4746C228.43 61.2617 228.659 61.5918 229.065 61.6934C229.369 61.7695 231.831 62.0234 234.52 62.2773L239.392 62.7344V62.2266C239.367 61.4648 237.997 55.5234 237.794 55.2949C237.616 55.1172 227.745 53.4668 226.806 53.4414C226.299 53.4414 226.299 53.5176 227.111 56.4121Z" fill="#E61414"/>
<path d="M268.599 55.6504C268.599 55.9043 268.751 56.8945 268.904 57.8848L269.208 59.6621L270.223 59.8398C270.781 59.9414 272.253 60.0176 273.496 60.0176L275.755 60.043L275.577 58.1895C275.476 57.1992 275.298 56.2852 275.197 56.1582C275.095 56.0566 273.979 55.8535 272.735 55.7266C271.492 55.5742 270.045 55.3965 269.538 55.3203C268.701 55.1934 268.574 55.2441 268.599 55.6504Z" fill="#E61414"/>
<path d="M293.188 57.6562C293.188 58.4941 293.111 60.2715 293.01 61.668L292.858 64.1562L296.892 63.9785C299.1 63.877 301.105 63.75 301.308 63.7246C301.714 63.6738 301.866 62.8867 302.17 59.002L302.348 56.793L300.242 56.6406C299.075 56.5645 297.019 56.4375 295.674 56.3359L293.188 56.1836V57.6562Z" fill="#E61414"/>
<path d="M253.425 57.0469C253.501 57.377 253.704 58.6212 253.882 59.8399L254.186 62.0489L255.226 62.1758C257.713 62.5059 263.372 62.8106 263.524 62.6329C263.676 62.4805 263.296 57.9864 263.118 57.8087C263.042 57.7071 254.211 56.4883 253.628 56.4883C253.399 56.4883 253.349 56.6915 253.425 57.0469Z" fill="#E61414"/>
<path d="M317.167 57.5039C316.913 57.7832 316.761 58.0625 316.812 58.1133C316.862 58.1895 318.664 58.4688 320.77 58.7735C323.663 59.1797 324.754 59.2305 325.16 59.0274C325.591 58.7989 325.871 58.2657 325.591 58.2657C325.541 58.2657 323.967 57.9864 322.09 57.6309C317.979 56.8692 317.751 56.8692 317.167 57.5039Z" fill="#E61414"/>
<path d="M305.647 60.9063L302.805 63.75L303.008 64.9941L303.211 66.2129L305.977 63.2168C308.666 60.3477 308.768 60.2207 308.692 59.2051C308.666 58.6211 308.616 58.1133 308.565 58.0879C308.539 58.0625 307.22 59.3066 305.647 60.9063Z" fill="#E61414"/>
<path d="M283.799 59.8145C282.758 59.916 281.033 60.0684 279.967 60.1699L278.039 60.3223L277.861 61.4902C277.607 63.3438 277.683 64.3594 278.039 64.3594C278.495 64.3594 285.347 63.1406 285.448 63.0391C285.626 62.8613 286.006 59.7637 285.854 59.7129C285.778 59.6621 284.839 59.7129 283.799 59.8145Z" fill="#E61414"/>
<path d="M216.048 63.0137C216.048 63.1406 216.428 64.6387 216.91 66.3906C217.392 68.1426 217.925 70.2246 218.128 71.0371C218.306 71.875 218.636 72.6113 218.839 72.7383C219.042 72.8398 221.579 72.9922 224.447 73.0937L229.699 73.2461L229.344 71.5449C228.304 66.4668 227.669 64.1055 227.314 64.1055C226.832 64.1055 217.875 63.1152 216.885 62.9375C216.428 62.8867 216.048 62.9121 216.048 63.0137Z" fill="#E61414"/>
<path d="M253.323 65.2227C253.273 65.2988 251.776 65.375 250.05 65.4004C248.299 65.4004 246.827 65.4512 246.751 65.502C246.675 65.5527 246.751 67.3301 246.878 69.4883L247.132 73.373L247.893 73.2969C250.481 73.0176 255.531 72.1797 255.709 72.002C255.81 71.9004 255.861 70.3262 255.836 68.5234L255.759 65.248L254.618 65.1719C253.983 65.1211 253.4 65.1465 253.323 65.2227Z" fill="#E61414"/>
<path d="M308.996 66.9746L305.139 68.7773L304.733 69.9199C304.53 70.5292 304.403 71.0878 304.454 71.1386C304.505 71.2148 306.23 70.3769 308.26 69.3105C311.584 67.5585 312.041 67.2539 312.498 66.3398C312.777 65.7812 312.98 65.2988 312.929 65.2734C312.879 65.2226 311.128 66.0097 308.996 66.9746Z" fill="#E61414"/>
<path d="M323.003 68.5488C319.527 69.9707 319.172 70.1738 318.766 70.9863C318.537 71.4687 318.436 71.875 318.537 71.9258C318.639 71.9512 320.415 71.1894 322.496 70.1992C325.312 68.8789 326.378 68.2695 326.632 67.7617C326.809 67.4062 326.936 67.0762 326.886 67.0508C326.835 67.0254 325.109 67.6855 323.003 68.5488Z" fill="#E61414"/>
<path d="M274.283 68.3457C273.877 68.4219 272.152 68.5996 270.477 68.7774L267.432 69.0567L267.254 71.4688C267.178 72.7891 267.153 73.9317 267.204 73.9825C267.432 74.2364 274.892 72.6368 275.019 72.3067C275.273 71.6465 275.476 68.168 275.273 68.1934C275.146 68.2188 274.715 68.295 274.283 68.3457Z" fill="#E61414"/>
<path d="M281.617 68.9551C281.693 69.3867 281.769 70.6055 281.769 71.6465V73.5508L285.397 73.373C287.377 73.2969 289.305 73.1445 289.711 73.0937L290.396 72.9414V70.5547V68.168H285.93H281.464L281.617 68.9551Z" fill="#E61414"/>
<path d="M297.197 70.2754L293.974 71.0625L293.695 72.459C293.289 74.4648 293.289 74.6426 293.568 74.6172C293.721 74.5918 295.395 74.084 297.324 73.4746L300.8 72.4082L301.181 71.1133C301.384 70.4277 301.561 69.7676 301.561 69.6406C301.561 69.3105 300.623 69.4375 297.197 70.2754Z" fill="#E61414"/>
<path d="M235.84 71.6465C235.84 71.9005 236.119 73.754 236.474 75.7852C236.83 77.8165 237.109 79.4922 237.109 79.543C237.109 79.67 246.574 79.3653 246.701 79.213C246.827 79.1114 246.371 74.4903 246.092 72.8399L245.939 72.0528L241.346 71.7481C238.809 71.5704 236.525 71.3672 236.297 71.3165C235.967 71.2149 235.84 71.3165 235.84 71.6465Z" fill="#E61414"/>
<path d="M208.841 75.8105C208.942 76.1406 209.628 78.7559 210.363 81.625L211.683 86.8301L215.591 86.7793C217.722 86.7539 220.209 86.6523 221.097 86.5762L222.696 86.3984L222.518 85.2305C222.264 83.3262 220.59 75.9375 220.412 75.7344C220.31 75.6582 217.621 75.5059 214.423 75.4043L208.638 75.2012L208.841 75.8105Z" fill="#E61414"/>
<path d="M275.425 75.8867L271.746 76.4453L271.593 79.4922C271.492 81.1425 271.441 82.539 271.466 82.5644C271.492 82.5898 273.268 82.1836 275.425 81.6504L279.358 80.7109L279.536 79.1875C279.637 78.375 279.789 77.1562 279.866 76.4707C279.992 75.4297 279.942 75.2773 279.561 75.3027C279.307 75.3281 277.455 75.6074 275.425 75.8867Z" fill="#E61414"/>
<path d="M289.127 77.5118C287.25 77.9942 285.651 78.4512 285.6 78.502C285.423 78.6289 284.814 82.7168 284.941 82.8438C285.042 82.9454 287.909 82.0059 291.056 80.8379L292.401 80.3301L292.781 78.5782C293.01 77.6133 293.187 76.7754 293.187 76.6993C293.187 76.4707 292.756 76.5469 289.127 77.5118Z" fill="#E61414"/>
<path d="M306.408 77.4356L302.5 78.2481L301.891 79.5938C301.561 80.3301 301.358 80.9903 301.434 81.0664C301.511 81.1426 302.678 80.8887 304.048 80.5078C309.478 78.9844 309.072 79.1621 309.808 77.918C310.189 77.2832 310.443 76.7246 310.392 76.6993C310.366 76.6485 308.565 77.0039 306.408 77.4356Z" fill="#E61414"/>
<path d="M251.75 77.7402C251.573 78.0449 251.928 83.834 252.131 84.0371C252.308 84.2148 258.601 83.7832 260.022 83.5039L260.733 83.3515L260.657 80.5332L260.581 77.6894L256.216 77.6133C253.831 77.5879 251.801 77.6387 251.75 77.7402Z" fill="#E61414"/>
<path d="M229.928 82.2852C229.877 82.336 230.029 83.4532 230.258 84.7481C230.511 86.0176 230.841 88.0997 231.019 89.3692C231.196 90.6133 231.425 91.7305 231.501 91.8321C231.653 92.0098 240.94 91.3243 241.143 91.1211C241.372 90.8926 240.306 82.5899 240.052 82.5137C239.596 82.3868 230.055 82.1583 229.928 82.2852Z" fill="#E61414"/>
<path d="M278.47 83.6309C276.44 84.2403 274.74 84.7735 274.715 84.8243C274.512 84.9766 273.852 90.0293 274.004 90.1817C274.08 90.2578 275.78 89.6485 277.76 88.836L281.388 87.3125L281.82 85.1543C282.073 83.9864 282.251 82.8946 282.2 82.7676C282.175 82.6153 280.576 82.9961 278.47 83.6309Z" fill="#E61414"/>
<path d="M295.928 83.8847C294.025 84.6718 292.35 85.4082 292.223 85.5605C291.995 85.8144 291.157 88.6582 291.157 89.1914C291.157 89.3691 292.858 88.6582 294.913 87.6172L298.668 85.7383L299.151 84.1894C299.404 83.3261 299.557 82.5898 299.506 82.539C299.455 82.4883 297.831 83.0976 295.928 83.8847Z" fill="#E61414"/>
<path d="M260.073 86.17L256.521 86.8555L256.343 90.5118C256.241 92.543 256.216 94.2188 256.267 94.2696C256.394 94.4219 263.879 91.959 264.032 91.7305C264.133 91.5782 264.26 90.6133 264.361 89.5215C264.438 88.4551 264.59 87.1094 264.666 86.5001C264.869 85.2051 265.072 85.2305 260.073 86.17Z" fill="#E61414"/>
<path d="M300.699 91.5019L296.918 93.2539L296.436 94.4472C296.182 95.1074 296.004 95.6914 296.03 95.7421C296.08 95.7929 297.831 94.9296 299.912 93.8378C303.261 92.0859 303.769 91.7304 304.175 90.8925C304.429 90.3847 304.606 89.9023 304.556 89.8769C304.505 89.8261 302.779 90.5624 300.699 91.5019Z" fill="#E61414"/>
<path d="M203.385 90.918C200.543 91.0957 198.184 91.2989 198.158 91.3242C198.057 91.4258 201.508 105.238 201.66 105.391C201.812 105.543 212.038 103.715 212.292 103.486C212.419 103.359 211.201 96.9102 210.008 91.5274C209.78 90.4356 210.084 90.461 203.385 90.918Z" fill="#E61414"/>
<path d="M227.974 97.6973C225.817 97.8242 223.99 97.9766 223.939 98.0273C223.888 98.0781 224.091 99.3984 224.371 100.973C224.675 102.547 225.106 105.137 225.335 106.686C225.665 108.945 225.842 109.555 226.147 109.555C226.883 109.555 235.206 107.98 235.358 107.828C235.51 107.676 234.825 100.82 234.419 98.3066C234.241 97.2148 234.8 97.2656 227.974 97.6973Z" fill="#E61414"/>
<path d="M274.867 100.287C274.664 100.49 274.943 106.356 275.171 106.584C275.349 106.787 280.957 106.432 282.987 106.102L283.824 105.975L283.748 103.131L283.672 100.287L279.333 100.211C276.973 100.186 274.943 100.211 274.867 100.287Z" fill="#E61414"/>
<path d="M250.177 105.213C247.36 105.543 246.625 105.695 246.625 106C246.65 107.346 247.056 113.617 247.157 114.176C247.335 115.09 247.437 115.09 252.08 113.973L255.886 113.059V108.895V104.731L254.821 104.756C254.212 104.781 252.131 104.984 250.177 105.213Z" fill="#E61414"/>
</svg>
