<svg width="24" height="24" viewBox="0 0 24 24" fill="none" xmlns="http://www.w3.org/2000/svg">
<path fill-rule="evenodd" clip-rule="evenodd" d="M3.63631 10.9497C8.53097 8.81717 11.7948 7.41127 13.4279 6.73202C18.0907 4.7926 19.0596 4.4557 19.6911 4.44458C19.83 4.44213 20.1406 4.47655 20.3417 4.63978C20.5116 4.77761 20.5583 4.9638 20.5807 5.09448C20.6031 5.22516 20.6309 5.52285 20.6088 5.75545C20.3561 8.41037 19.2628 14.8531 18.7065 17.8267C18.4712 19.0849 18.0077 19.5068 17.5591 19.5481C16.5841 19.6378 15.8437 18.9037 14.8993 18.2847C13.4215 17.316 12.5867 16.713 11.1523 15.7677C9.49459 14.6753 10.5692 14.0749 11.5139 13.0937C11.7612 12.8369 16.0572 8.92932 16.1403 8.57484C16.1507 8.53051 16.1604 8.36525 16.0622 8.27799C15.964 8.19073 15.8192 8.22057 15.7146 8.2443C15.5664 8.27794 13.2057 9.83829 8.63242 12.9254C7.96233 13.3855 7.35539 13.6097 6.8116 13.5979C6.2121 13.585 5.05892 13.259 4.20164 12.9803C3.15016 12.6385 2.31446 12.4578 2.38723 11.8773C2.42513 11.575 2.84149 11.2658 3.63631 10.9497Z" fill="white"/>
</svg>
