<svg width="25" height="24" viewBox="0 0 25 24" fill="none" xmlns="http://www.w3.org/2000/svg">
<rect x="6.375" y="13" width="4" height="4" rx="2" transform="rotate(90 6.375 13)" stroke="#181818" stroke-width="1.5"/>
<rect x="17.375" y="12" width="4" height="4" rx="2" transform="rotate(-90 17.375 12)" stroke="#181818" stroke-width="1.5"/>
<path d="M18.375 11L16.875 12.5C15.8579 13.5171 15.3494 14.0256 14.7378 14.1384C14.4979 14.1826 14.2521 14.1826 14.0122 14.1384C13.4006 14.0256 12.8921 13.5171 11.875 12.5V12.5C10.8579 11.4829 10.3494 10.9744 9.73777 10.8616C9.49795 10.8174 9.25205 10.8174 9.01223 10.8616C8.40058 10.9744 7.89205 11.4829 6.875 12.5L5.375 14" stroke="#181818" stroke-width="1.5"/>
</svg>
