<svg width="25" height="25" viewBox="0 0 25 25" fill="none" xmlns="http://www.w3.org/2000/svg">
<path d="M12.5 4.12964L13.0303 3.59931L12.5 3.06898L11.9697 3.59931L12.5 4.12964ZM11.75 16.1296C11.75 16.5439 12.0858 16.8796 12.5 16.8796C12.9142 16.8796 13.25 16.5439 13.25 16.1296L11.75 16.1296ZM19.0303 9.59931L13.0303 3.59931L11.9697 4.65997L17.9697 10.66L19.0303 9.59931ZM11.9697 3.59931L5.96967 9.59931L7.03033 10.66L13.0303 4.65997L11.9697 3.59931ZM11.75 4.12964L11.75 16.1296L13.25 16.1296L13.25 4.12964L11.75 4.12964Z" fill="url(#paint0_linear_2174_1301)"/>
<path d="M5.5 20.1296L19.5 20.1296" stroke="url(#paint1_linear_2174_1301)" stroke-width="1.5"/>
<defs>
<linearGradient id="paint0_linear_2174_1301" x1="18.5" y1="10.1296" x2="6.5" y2="10.1296" gradientUnits="userSpaceOnUse">
<stop stop-color="#FF5555"/>
<stop offset="1" stop-color="#D53131"/>
</linearGradient>
<linearGradient id="paint1_linear_2174_1301" x1="12.5" y1="20.1296" x2="12.5" y2="21.1296" gradientUnits="userSpaceOnUse">
<stop stop-color="#FF5555"/>
<stop offset="1" stop-color="#D53131"/>
</linearGradient>
</defs>
</svg>
