<svg width="20" height="20" viewBox="0 0 20 20" fill="none" xmlns="http://www.w3.org/2000/svg">
<g opacity="0.5">
<path d="M13.9079 6.53418C14.1321 6.4741 14.3691 6.49403 14.5788 6.58887L14.6667 6.63379C14.8678 6.74989 15.0211 6.93205 15.1022 7.14746L15.1325 7.24121C15.1926 7.46543 15.1727 7.70246 15.0778 7.91211L15.0329 8C14.9168 8.20109 14.7346 8.35438 14.5192 8.43555L14.4255 8.46582C14.2013 8.5259 13.9642 8.50597 13.7546 8.41113L13.6667 8.36621C13.437 8.2336 13.2695 8.01496 13.2009 7.75879C13.1408 7.53458 13.1607 7.29754 13.2556 7.08789L13.3005 7C13.4166 6.79891 13.5987 6.64562 13.8141 6.56445L13.9079 6.53418Z" fill="#6A6A6A" stroke="#6A6A6A" stroke-width="2.99999"/>
<path fill-rule="evenodd" clip-rule="evenodd" d="M14.0552 15H16.3673C16.9687 15 17.4222 14.4698 17.2008 13.9105C16.8158 12.9381 15.9681 11.6667 14.1667 11.6667C13.3834 11.6667 12.7804 11.9071 12.3174 12.2588C13.3989 12.9314 13.8479 14.0399 14.0344 14.8444C14.0466 14.8972 14.0534 14.9492 14.0552 15Z" fill="#6A6A6A"/>
<path d="M14.0552 15L13.0558 15.035L13.0896 16H14.0552V15ZM17.2008 13.9105L18.1306 13.5425L18.1306 13.5425L17.2008 13.9105ZM12.3174 12.2588L11.7125 11.4624L10.556 12.3409L11.7893 13.1079L12.3174 12.2588ZM14.0344 14.8444L15.0085 14.6186L15.0085 14.6186L14.0344 14.8444ZM16.3673 14H14.0552V16H16.3673V14ZM16.271 14.2786C16.2617 14.2551 16.2526 14.2109 16.2614 14.1569C16.2696 14.1058 16.2903 14.0672 16.3097 14.0429C16.3459 13.9973 16.3751 14 16.3673 14V16C16.9609 16 17.5176 15.7376 17.8755 15.2871C18.2461 14.8207 18.3803 14.1734 18.1306 13.5425L16.271 14.2786ZM14.1667 12.6667C15.3574 12.6667 15.9464 13.4587 16.271 14.2786L18.1306 13.5425C17.6852 12.4176 16.5787 10.6667 14.1667 10.6667V12.6667ZM12.9222 13.0551C13.2141 12.8334 13.6053 12.6667 14.1667 12.6667V10.6667C13.1615 10.6667 12.3467 10.9807 11.7125 11.4624L12.9222 13.0551ZM11.7893 13.1079C12.5463 13.5788 12.901 14.3831 13.0602 15.0701L15.0085 14.6186C14.7949 13.6967 14.2516 12.2841 12.8455 11.4096L11.7893 13.1079ZM13.0602 15.0701C13.0582 15.0615 13.0563 15.0496 13.0558 15.035L15.0546 14.965C15.0505 14.8488 15.035 14.7329 15.0085 14.6186L13.0602 15.0701Z" fill="#6A6A6A"/>
</g>
<g opacity="0.5">
<path d="M5.57452 6.53418C5.79874 6.4741 6.03577 6.49403 6.24542 6.58887L6.33331 6.63379C6.53441 6.74989 6.68769 6.93205 6.76886 7.14746L6.79913 7.24121C6.85921 7.46543 6.83928 7.70246 6.74445 7.91211L6.69952 8C6.56692 8.22968 6.34829 8.39718 6.0921 8.46582C5.86789 8.5259 5.63086 8.50597 5.4212 8.41113L5.33331 8.36621C5.10363 8.2336 4.93613 8.01496 4.86749 7.75879C4.80741 7.53458 4.82735 7.29754 4.92218 7.08789L4.9671 7C5.0832 6.79891 5.26536 6.64562 5.48077 6.56445L5.57452 6.53418Z" fill="#6A6A6A" stroke="#6A6A6A" stroke-width="2.99999"/>
</g>
<g opacity="0.5">
<path fill-rule="evenodd" clip-rule="evenodd" d="M7.68263 12.2588C7.2196 11.9071 6.61662 11.6667 5.83333 11.6667C4.03196 11.6667 3.1842 12.9381 2.79925 13.9105C2.57785 14.4698 3.03126 15 3.63276 15H5.94481C5.94659 14.9492 5.95339 14.8972 5.96563 14.8444C6.15205 14.0399 6.60107 12.9314 7.68263 12.2588Z" fill="#6A6A6A"/>
<path d="M7.68263 12.2588L8.21075 13.1079L9.44406 12.3409L8.28748 11.4624L7.68263 12.2588ZM2.79925 13.9105L1.86946 13.5424L2.79925 13.9105ZM5.94481 15V16H6.91036L6.9442 15.035L5.94481 15ZM5.96563 14.8444L6.93982 15.0701L6.93982 15.0701L5.96563 14.8444ZM5.83333 12.6667C6.39469 12.6667 6.78592 12.8334 7.07778 13.0551L8.28748 11.4624C7.65329 10.9807 6.83855 10.6667 5.83333 10.6667V12.6667ZM3.72904 14.2786C4.05362 13.4587 4.64261 12.6667 5.83333 12.6667V10.6667C3.42132 10.6667 2.31478 12.4175 1.86946 13.5424L3.72904 14.2786ZM3.63276 14C3.62487 14 3.65412 13.9973 3.69036 14.0429C3.70968 14.0672 3.73037 14.1058 3.73865 14.1569C3.74738 14.2109 3.73836 14.2551 3.72904 14.2786L1.86946 13.5424C1.6197 14.1733 1.75389 14.8207 2.12448 15.2871C2.48245 15.7376 3.03915 16 3.63276 16V14ZM5.94481 14H3.63276V16H5.94481V14ZM6.9442 15.035C6.94369 15.0496 6.94182 15.0615 6.93982 15.0701L4.99145 14.6186C4.96496 14.7329 4.9495 14.8488 4.94543 14.965L6.9442 15.035ZM6.93982 15.0701C7.09902 14.3831 7.45372 13.5788 8.21075 13.1079L7.15451 11.4096C5.74843 12.2841 5.20507 13.6967 4.99144 14.6186L6.93982 15.0701Z" fill="#6A6A6A"/>
</g>
<path d="M9.99998 11.6667C12.8471 11.6667 13.7488 13.6122 14.0343 14.8444C14.159 15.3824 13.7189 15.8333 13.1666 15.8333H6.83331C6.28103 15.8333 5.84097 15.3824 5.96565 14.8444C6.25118 13.6122 7.15283 11.6667 9.99998 11.6667Z" fill="#6A6A6A" stroke="#6A6A6A" stroke-width="2" stroke-linecap="round"/>
<path d="M9.99969 4.33333C11.2883 4.33333 12.3335 5.37783 12.3337 6.66634C12.3337 7.95501 11.2884 9.00033 9.99969 9.00033C8.71118 9.00015 7.66669 7.9549 7.66669 6.66634C7.66686 5.37793 8.71129 4.33351 9.99969 4.33333Z" fill="#6A6A6A" stroke="#6A6A6A" stroke-width="2" stroke-linecap="round"/>
</svg>
