<svg width="26" height="14" viewBox="0 0 26 14" fill="none" xmlns="http://www.w3.org/2000/svg">
<path d="M15.5402 6.73422C15.1 6.56873 15.1 5.93669 15.0727 5.49656C14.9627 3.92878 15.5129 1.53531 14.8527 0.517712C14.3853 -0.0879181 12.1291 -0.0324608 10.7541 0.0502852C10.3686 0.105743 9.90113 0.187609 9.57102 0.353101C9.24092 0.518593 8.91081 0.793238 8.91081 1.0406C8.91081 1.39799 9.73651 1.34341 10.0384 1.81084C10.3686 2.30643 10.3686 3.37861 10.3686 4.25889C10.3686 5.27649 10.2031 6.62507 9.79109 6.67965C9.15817 6.70694 8.80078 6.07402 8.47068 5.60659C7.81047 4.69902 7.15026 3.57051 6.65467 2.47017C6.40731 1.8927 6.2691 1.25979 5.91171 1.01243C5.36154 0.626867 4.37123 0.599578 3.40821 0.626867C2.52793 0.654155 1.26209 0.544121 1.01473 1.06701C0.821954 1.64447 1.2348 2.19464 1.45487 2.66295C2.58251 5.11099 3.79289 7.25711 5.27879 9.29231C6.65467 11.1902 7.94691 12.7034 10.4777 13.5009C11.1934 13.721 14.3289 14.3539 14.9618 13.5009C15.1819 13.1708 15.1273 12.4279 15.2374 11.8777C15.3474 11.3275 15.4847 10.7773 16.0076 10.75C16.4477 10.7228 16.6951 11.1074 16.9706 11.383C17.2734 11.6858 17.5208 11.9331 17.7409 12.2087C18.2638 12.7315 18.8139 13.4463 19.4741 13.7219C20.3817 14.1074 21.7849 13.9974 23.1053 13.9419C24.1783 13.9146 24.9486 13.6946 25.0313 13.0617C25.0868 12.5661 24.5357 11.8513 24.2056 11.4384C23.3799 10.4208 22.9952 10.118 22.0595 9.18227C21.6467 8.76942 21.1238 8.32928 21.1238 7.83457C21.0965 7.53175 21.3438 7.25711 21.5639 6.95429C22.5269 5.52384 23.49 4.50624 24.3702 3.02034C24.6176 2.5802 25.1959 1.5626 24.9759 1.06701C24.7285 0.516832 23.3526 0.681443 22.4996 0.681443C21.3993 0.681443 19.9688 0.598697 19.6933 0.818767C19.1704 1.17616 18.9504 1.7545 18.703 2.30467C18.1528 3.57051 17.4099 4.86276 16.6396 5.82578C16.3641 6.15588 15.8421 6.84338 15.5393 6.73334L15.5402 6.73422Z" fill="#3880FF"/>
</svg>
