<svg width="24" height="24" viewBox="0 0 24 24" fill="none" xmlns="http://www.w3.org/2000/svg">
<path fill-rule="evenodd" clip-rule="evenodd" d="M19.8425 4.61948C18.0133 2.78789 15.5804 1.7787 12.9881 1.77777C7.64665 1.77777 3.29948 6.12444 3.29762 11.4673C3.29669 13.1752 3.74321 14.8424 4.59118 16.3116L3.21631 21.3333L8.35337 19.9859C9.76865 20.7581 11.3624 21.1647 12.984 21.1651H12.9881C18.3287 21.1651 22.6764 16.818 22.6782 11.4752C22.6791 8.88578 21.6723 6.45154 19.8425 4.61994V4.61948ZM12.9881 19.5287H12.9849C11.5398 19.5283 10.1223 19.1398 8.8854 18.4061L8.59127 18.2315L5.54276 19.0311L6.35635 16.0588L6.16491 15.754C5.35876 14.4716 4.93269 12.9894 4.93362 11.4678C4.93548 7.02722 8.54851 3.41421 12.9914 3.41421C15.1427 3.41514 17.1648 4.25381 18.6856 5.77642C20.2063 7.29857 21.0431 9.32253 21.0422 11.4742C21.0403 15.9152 17.4273 19.5283 12.9881 19.5283V19.5287ZM17.4059 13.4968C17.1638 13.3755 15.9735 12.7901 15.7513 12.7092C15.5293 12.6284 15.3681 12.588 15.2068 12.8305C15.0456 13.0731 14.5814 13.6185 14.4402 13.7798C14.2989 13.9414 14.1576 13.9614 13.9155 13.8401C13.6735 13.7189 12.8934 13.4633 11.9683 12.6386C11.2486 11.9965 10.7625 11.2038 10.6213 10.9613C10.48 10.7187 10.6064 10.5877 10.7272 10.4674C10.8359 10.3587 10.9693 10.1844 11.0905 10.0432C11.2119 9.9019 11.2518 9.80064 11.3326 9.63938C11.4135 9.47769 11.3731 9.33648 11.3127 9.21517C11.2522 9.09391 10.7681 7.9021 10.566 7.4175C10.3694 6.94544 10.1697 7.00956 10.0214 7.00167C9.88017 6.99469 9.71896 6.9933 9.55727 6.9933C9.39557 6.9933 9.13349 7.0537 8.9114 7.29625C8.68932 7.53876 8.0639 8.12467 8.0639 9.31599C8.0639 10.5073 8.93141 11.6592 9.05266 11.8209C9.17392 11.9826 10.7602 14.4279 13.1889 15.4771C13.7664 15.7266 14.2176 15.8757 14.5693 15.9873C15.1492 16.1717 15.677 16.1457 16.0943 16.0834C16.5594 16.0137 17.5268 15.4975 17.7284 14.932C17.9301 14.3666 17.9301 13.8815 17.8697 13.7807C17.8093 13.6798 17.6476 13.619 17.4055 13.4977L17.4059 13.4968Z" fill="white"/>
</svg>
