<svg width="40" height="41" viewBox="0 0 40 41" fill="currentColor" xmlns="http://www.w3.org/2000/svg">
<path d="M27.5501 21.0359C27.5561 21.1514 27.5687 21.266 27.5773 21.3815C27.5927 21.6097 27.6075 21.837 27.6309 22.0635C27.6454 22.2025 27.6669 22.3402 27.6842 22.4785C27.7102 22.6797 27.7327 22.8819 27.7641 23.0825C27.7872 23.2301 27.8174 23.3758 27.8437 23.5228C27.8777 23.7122 27.9095 23.9019 27.9493 24.0902C27.9811 24.2417 28.0199 24.3916 28.0552 24.5418C28.0979 24.7234 28.1377 24.9054 28.1852 25.0851C28.225 25.2369 28.2718 25.3871 28.3152 25.5377C28.3659 25.7142 28.4153 25.8913 28.4708 26.0669C28.5193 26.2168 28.5735 26.3653 28.6245 26.5149C28.6839 26.6869 28.7414 26.8599 28.8055 27.0306C28.8617 27.1805 28.924 27.3272 28.984 27.4764C29.0517 27.6433 29.1169 27.8105 29.1887 27.9758C29.2536 28.1244 29.3235 28.2694 29.3919 28.4161C29.4667 28.5782 29.5405 28.7406 29.6194 28.9001C29.6916 29.0451 29.7693 29.188 29.8451 29.3314C29.9285 29.489 30.01 29.6472 30.097 29.8026C30.1759 29.9434 30.2603 30.0814 30.3428 30.2204C30.4343 30.3741 30.5248 30.5291 30.6204 30.6806C30.7068 30.8177 30.7979 30.9509 30.8875 31.086C30.9866 31.2355 31.0855 31.3854 31.1888 31.5327C31.2819 31.6646 31.3794 31.7943 31.4764 31.9243C31.5839 32.0684 31.6898 32.2137 31.8012 32.3553C31.9013 32.4833 32.0053 32.6072 32.1089 32.733C32.2235 32.872 32.3381 33.0116 32.4565 33.1477C32.564 33.2709 32.6741 33.3903 32.7842 33.5103C32.9068 33.6442 33.0287 33.7783 33.1545 33.9086C33.2672 34.0254 33.384 34.139 33.4995 34.2536C33.5897 34.3419 33.6793 34.4292 33.7704 34.5158C37.6528 30.8292 39.9035 25.7067 40.0004 20.3614L27.5327 20.3611C27.5372 20.5861 27.5391 20.8114 27.5504 21.036L27.5501 21.0359Z" fill="#6EB3F7"/>
<path d="M12.4677 19.6416C12.4635 19.4163 12.4616 19.191 12.45 18.9663C12.4439 18.8508 12.4314 18.7362 12.4227 18.6207C12.4073 18.3925 12.3926 18.1653 12.3691 17.9387C12.3547 17.7997 12.3332 17.662 12.3159 17.5237C12.2899 17.3225 12.2674 17.1203 12.2359 16.9197C12.2128 16.7721 12.1827 16.6261 12.156 16.4788C12.1223 16.2894 12.0902 16.1 12.0511 15.9117C12.0193 15.7602 11.9805 15.6097 11.9452 15.4591C11.9025 15.2781 11.8627 15.0965 11.8152 14.9168C11.7754 14.7653 11.7286 14.6148 11.6852 14.4642C11.6345 14.2877 11.5851 14.1106 11.5296 13.935C11.4811 13.7851 11.4269 13.6366 11.3759 13.487C11.3165 13.315 11.259 13.142 11.1948 12.9713C11.1387 12.8214 11.0764 12.6747 11.0164 12.5255C10.9487 12.3586 10.8835 12.1914 10.8116 12.0261C10.7468 11.8775 10.6769 11.7325 10.6085 11.5858C10.5337 11.4237 10.4599 11.2613 10.3809 11.1018C10.3087 10.9568 10.2311 10.8139 10.1553 10.6705C10.0719 10.5129 9.99037 10.3547 9.9034 10.1993C9.82445 10.0585 9.74004 9.92046 9.65756 9.78149C9.56609 9.62776 9.47559 9.47275 9.37995 9.32127C9.2933 9.18422 9.20247 9.0504 9.11261 8.91528C9.01345 8.76573 8.91524 8.61617 8.81222 8.4695C8.71883 8.33728 8.62095 8.2073 8.5237 8.077C8.41683 7.9329 8.31028 7.78752 8.19924 7.64663C8.0991 7.51858 7.99512 7.3947 7.89146 7.26888C7.77689 7.12992 7.66231 6.99032 7.54389 6.85423C7.43637 6.731 7.3263 6.61161 7.21621 6.49158C7.09361 6.35775 6.97166 6.2236 6.84585 6.09329C6.73321 5.97647 6.61638 5.86286 6.50085 5.74829C6.41066 5.66003 6.32113 5.57274 6.22998 5.48608C2.34762 9.17364 0.096948 14.296 0 19.6413L12.4677 19.6416Z" fill="currentColor"/>
<path d="M20.36 19.6416H26.8137C26.8179 19.4044 26.8204 19.1672 26.8323 18.9307C26.839 18.8104 26.8519 18.691 26.8605 18.5713C26.8769 18.337 26.8914 18.1021 26.9157 17.8681C26.9312 17.7243 26.953 17.5815 26.9713 17.4387C26.9976 17.2297 27.021 17.0211 27.0538 16.8138C27.0778 16.6623 27.1083 16.5125 27.1356 16.3613C27.1706 16.1649 27.2036 15.9672 27.2447 15.7717C27.2774 15.6161 27.3169 15.4617 27.3535 15.3057C27.3981 15.1173 27.4398 14.9286 27.4886 14.7415C27.5297 14.5843 27.5781 14.4296 27.6228 14.273C27.6754 14.091 27.7258 13.9077 27.7832 13.7271C27.833 13.5704 27.8901 13.4154 27.9437 13.2598C28.0047 13.0823 28.0634 12.9045 28.1295 12.7296C28.1879 12.5743 28.2521 12.4215 28.3141 12.2681C28.384 12.0954 28.4517 11.9221 28.5255 11.752C28.5923 11.5986 28.6642 11.4478 28.7351 11.2963C28.8121 11.1285 28.8885 10.9609 28.971 10.795C29.0448 10.6451 29.1244 10.4978 29.2024 10.3499C29.2887 10.1859 29.3735 10.0222 29.464 9.86044C29.5458 9.71442 29.6328 9.5716 29.7175 9.42814C29.8118 9.26863 29.9059 9.10881 30.0047 8.95219C30.0943 8.81033 30.1877 8.67137 30.2804 8.53176C30.3831 8.37739 30.4852 8.22206 30.5914 8.07058C30.6877 7.9329 30.7885 7.79875 30.8886 7.66331C30.9987 7.5144 31.1091 7.36517 31.2236 7.2185C31.3273 7.08627 31.4345 6.95629 31.5414 6.82632C31.6598 6.68254 31.7782 6.53844 31.9008 6.39722C32.0109 6.27013 32.1252 6.14593 32.2388 6.02141C32.3652 5.88277 32.4913 5.7454 32.6216 5.61029C32.7391 5.48866 32.8595 5.36959 32.9801 5.25052C33.0658 5.16612 33.1473 5.0785 33.234 4.9957C29.6658 1.84571 25.1204 0.0847884 20.3596 0L20.36 19.6416Z" fill="currentColor"/>
<path d="M7.21663 33.5108C7.32639 33.3904 7.43711 33.271 7.5443 33.1481C7.66273 33.012 7.77666 32.8724 7.89188 32.7335C7.99554 32.608 8.09952 32.4838 8.19966 32.3557C8.3107 32.2139 8.41725 32.0685 8.52444 31.9247C8.62072 31.7947 8.71861 31.6651 8.812 31.5332C8.91566 31.3862 9.01418 31.236 9.11336 31.0864C9.2029 30.9516 9.29404 30.8181 9.38038 30.6811C9.4757 30.5296 9.5662 30.3749 9.65798 30.2208C9.74046 30.0819 9.82487 29.9439 9.90382 29.803C9.99144 29.6477 10.073 29.4894 10.1558 29.3319C10.2315 29.1881 10.3085 29.0453 10.3814 28.9005C10.4603 28.741 10.5338 28.5783 10.6089 28.4166C10.6776 28.2699 10.7476 28.1248 10.8121 27.9762C10.8836 27.8109 10.9491 27.6437 11.0168 27.4769C11.0768 27.3279 11.1391 27.1813 11.1953 27.0311C11.2595 26.8603 11.3169 26.6874 11.3763 26.5153C11.4276 26.3658 11.4822 26.2178 11.53 26.0673C11.5855 25.8924 11.6349 25.7149 11.6857 25.5381C11.7293 25.3876 11.7758 25.2377 11.8156 25.0856C11.8634 24.9059 11.9032 24.7239 11.9456 24.5422C11.9806 24.3924 12.0194 24.2422 12.0515 24.0907C12.0913 23.9023 12.1224 23.7126 12.1571 23.5233C12.1834 23.3763 12.2136 23.2306 12.2367 23.0829C12.2685 22.8827 12.2909 22.6805 12.3166 22.4789C12.3339 22.3403 12.3554 22.2029 12.3699 22.064C12.394 21.8374 12.4081 21.6102 12.4235 21.382C12.4321 21.2671 12.4447 21.1525 12.4508 21.0363C12.4623 20.8117 12.4642 20.5864 12.4684 20.3611H0.000732422C0.0976558 25.7063 2.34803 30.829 6.23071 34.5155C6.32186 34.4288 6.41172 34.3416 6.50158 34.2533C6.61712 34.1394 6.73362 34.0251 6.84659 33.9083C6.97272 33.778 7.09435 33.6442 7.21695 33.5107L7.21663 33.5108Z" fill="currentColor"/>
<path d="M7.02026 5.25212C7.14093 5.3715 7.26128 5.49025 7.37874 5.61189C7.50872 5.747 7.63517 5.88468 7.76162 6.023C7.87523 6.14752 7.98916 6.27237 8.09957 6.39882C8.22217 6.5397 8.34059 6.68413 8.45902 6.82791C8.56589 6.95788 8.6734 7.08755 8.77674 7.22009C8.89131 7.36676 9.0014 7.51567 9.1118 7.66491C9.21193 7.80002 9.3127 7.93482 9.40898 8.07217C9.51586 8.22366 9.61792 8.37899 9.71997 8.53336C9.8124 8.67296 9.90643 8.81193 9.99566 8.95378C10.0945 9.11039 10.1879 9.27023 10.2829 9.42973C10.3683 9.57351 10.4546 9.71633 10.5364 9.86203C10.6266 10.0235 10.712 10.1875 10.798 10.3515C10.876 10.4994 10.9556 10.6467 11.0294 10.7966C11.1119 10.9625 11.1879 11.13 11.2653 11.2979C11.3359 11.4494 11.4081 11.6002 11.4748 11.7536C11.5487 11.9237 11.6167 12.0973 11.6863 12.2697C11.7483 12.4231 11.8125 12.5759 11.8709 12.7312C11.937 12.9061 11.996 13.0839 12.0567 13.2614C12.1103 13.4167 12.1668 13.5714 12.2172 13.7287C12.2746 13.9093 12.325 14.0923 12.3776 14.2746C12.4226 14.4309 12.4707 14.5856 12.5118 14.7431C12.5612 14.9299 12.6023 15.1189 12.6469 15.3073C12.6828 15.4627 12.7226 15.617 12.7557 15.7733C12.7968 15.9688 12.8295 16.1665 12.8648 16.3629C12.8921 16.5137 12.9229 16.6639 12.9466 16.8154C12.9794 17.023 13.0028 17.2313 13.0291 17.4403C13.0474 17.5837 13.0692 17.7265 13.0846 17.8697C13.109 18.103 13.1235 18.3382 13.1398 18.5729C13.1485 18.6926 13.1613 18.812 13.1681 18.9323C13.18 19.1685 13.1825 19.4057 13.1867 19.6432L19.6407 19.6422V0.000366211C14.8803 0.085738 10.3345 1.8464 6.76636 4.99697C6.85301 5.07945 6.93453 5.16771 7.02021 5.25212L7.02026 5.25212Z" fill="currentColor"/>
<path d="M33.7699 5.48708C33.6788 5.57373 33.5889 5.66103 33.499 5.74928C33.3835 5.86322 33.267 5.97747 33.154 6.09429C33.0276 6.22458 32.9056 6.35874 32.7837 6.49257C32.6739 6.61292 32.5632 6.73231 32.456 6.85523C32.3376 6.9913 32.2236 7.13092 32.1084 7.26988C32.0048 7.39536 31.9008 7.51957 31.8006 7.64763C31.6899 7.78916 31.5831 7.93422 31.4762 8.078C31.3793 8.2083 31.2817 8.33828 31.1877 8.4705C31.0846 8.61717 30.9864 8.76673 30.8873 8.91628C30.7971 9.05107 30.7066 9.18522 30.6199 9.32226C30.5246 9.47375 30.4341 9.62844 30.3423 9.78249C30.2598 9.92145 30.1754 10.0595 30.0965 10.2003C30.0089 10.3557 29.9274 10.5139 29.8446 10.6715C29.7688 10.8153 29.6918 10.9581 29.6189 11.1028C29.54 11.2623 29.4665 11.425 29.3914 11.5868C29.3227 11.7335 29.2528 11.8785 29.1882 12.0271C29.1167 12.1924 29.0512 12.3596 28.9835 12.5265C28.9235 12.6754 28.8612 12.8221 28.805 12.9723C28.7409 13.143 28.6834 13.316 28.624 13.488C28.5727 13.6376 28.5181 13.7855 28.4703 13.936C28.4148 14.1109 28.3654 14.2884 28.3147 14.4652C28.271 14.6158 28.2245 14.7663 28.1847 14.9178C28.1369 15.0975 28.0971 15.2791 28.0547 15.4601C28.0197 15.6107 27.9809 15.7612 27.9488 15.9127C27.9096 16.1011 27.8779 16.2904 27.8439 16.4797C27.8169 16.6267 27.7867 16.7731 27.7639 16.9207C27.7322 17.121 27.7097 17.3232 27.684 17.5247C27.6667 17.6634 27.6452 17.8007 27.6308 17.9397C27.6067 18.1663 27.5926 18.3935 27.5772 18.6217C27.5685 18.7366 27.556 18.8511 27.5499 18.9673C27.5383 19.192 27.5364 19.4173 27.5322 19.6426L39.9999 19.6419C39.903 14.2965 37.6523 9.17401 33.7699 5.48669L33.7699 5.48708Z" fill="currentColor"/>
<path d="M32.6214 34.3907C32.4914 34.2555 32.3649 34.1179 32.2385 33.9795C32.1249 33.855 32.0109 33.7302 31.9005 33.6037C31.7779 33.4628 31.6595 33.3184 31.5411 33.1746C31.4342 33.0447 31.3267 32.915 31.2234 32.7825C31.1088 32.6358 30.9987 32.4869 30.8883 32.3376C30.7882 32.2025 30.6874 32.0677 30.5911 31.9304C30.4842 31.7789 30.3822 31.6236 30.2801 31.4692C30.1877 31.3296 30.0937 31.1906 30.0044 31.0488C29.9056 30.8921 29.8122 30.7323 29.7172 30.5728C29.6318 30.429 29.5455 30.2862 29.4637 30.1405C29.3735 29.9791 29.2881 29.8151 29.2021 29.6511C29.1241 29.5031 29.0445 29.3558 28.9707 29.2059C28.8882 29.04 28.8122 28.8725 28.7348 28.7046C28.6642 28.5532 28.592 28.4023 28.5253 28.2489C28.4514 28.0788 28.3834 27.9052 28.3138 27.7329C28.2518 27.5794 28.1876 27.4267 28.1292 27.2714C28.0631 27.0964 28.0041 26.9186 27.9434 26.7412C27.8898 26.5858 27.8333 26.4311 27.7829 26.2739C27.7255 26.0932 27.6751 25.9103 27.6225 25.728C27.5775 25.5717 27.5294 25.417 27.4883 25.2594C27.4389 25.0726 27.3978 24.8836 27.3532 24.6952C27.3173 24.5399 27.2775 24.3855 27.2444 24.2292C27.2033 24.0338 27.1706 23.8361 27.1353 23.6397C27.108 23.4888 27.0772 23.3386 27.0535 23.1871C27.0207 22.9795 26.9973 22.7712 26.971 22.5623C26.9527 22.4188 26.9309 22.276 26.9155 22.1329C26.8911 21.8995 26.8766 21.6643 26.8603 21.4297C26.8516 21.31 26.8388 21.1906 26.832 21.0702C26.8201 20.834 26.8176 20.5969 26.8134 20.3594L20.3594 20.3603V40.0022C25.1198 39.9168 29.6656 38.1561 33.2337 35.0056C33.1465 34.9228 33.0649 34.8348 32.9799 34.7507C32.8592 34.6314 32.7389 34.5126 32.6214 34.391L32.6214 34.3907Z" fill="currentColor"/>
<path d="M13.1683 21.072C13.1615 21.1924 13.1487 21.3118 13.14 21.4315C13.1237 21.6657 13.1092 21.9007 13.0848 22.1346C13.0694 22.2784 13.0476 22.4212 13.0293 22.564C13.003 22.773 12.9796 22.9816 12.9468 23.1889C12.9228 23.3404 12.8923 23.4903 12.865 23.6414C12.83 23.8378 12.797 24.0355 12.7559 24.231C12.7232 24.3866 12.6837 24.541 12.6471 24.697C12.6025 24.8854 12.5608 25.0741 12.512 25.2612C12.4709 25.4184 12.4224 25.5731 12.3778 25.7297C12.3252 25.9117 12.2748 26.095 12.2174 26.2757C12.1676 26.4323 12.1105 26.5873 12.0569 26.7429C11.9959 26.9204 11.9372 27.0982 11.8711 27.2731C11.8127 27.4285 11.7485 27.5812 11.6865 27.7346C11.6166 27.9073 11.5489 28.0806 11.475 28.2507C11.4083 28.4041 11.3364 28.5549 11.2655 28.7064C11.1885 28.8743 11.1121 29.0418 11.0296 29.2077C10.9558 29.3576 10.8762 29.5049 10.7982 29.6529C10.7119 29.8169 10.6271 29.9805 10.5366 30.1423C10.4548 30.2883 10.3678 30.4311 10.2831 30.5746C10.1887 30.7341 10.0947 30.8939 9.99586 31.0505C9.90632 31.1924 9.81292 31.3313 9.72017 31.471C9.61747 31.6253 9.51542 31.7807 9.40918 31.9321C9.3129 32.0698 9.21213 32.204 9.112 32.3394C9.00192 32.4883 8.89151 32.6376 8.77694 32.7842C8.67328 32.9165 8.56609 33.0464 8.45922 33.1764C8.34079 33.3202 8.22237 33.4643 8.09977 33.6055C7.98969 33.7326 7.87543 33.8568 7.76182 33.9813C7.63537 34.12 7.50925 34.2573 7.37894 34.3924C7.26148 34.5141 7.14113 34.6331 7.02046 34.7522C6.93477 34.8366 6.85325 34.9242 6.7666 35.007C10.3351 38.1577 14.8812 39.9186 19.641 40.0036L19.6407 20.361H13.187C13.1825 20.5981 13.1805 20.8353 13.1683 21.0718L13.1683 21.072Z" fill="currentColor"/>
</svg>
