<svg width="17" height="17" viewBox="0 0 17 17" fill="none" xmlns="http://www.w3.org/2000/svg">
<path d="M3.79156 4.18963C4.0294 1.81122 6.03078 0 8.42105 0C10.8113 0 12.8127 1.81122 13.0505 4.18963L13.2919 6.60322C13.4113 7.79687 13.8216 8.943 14.4871 9.94112L15.2122 11.0289C15.7259 11.7994 15.9827 12.1846 15.9731 12.5037C15.9637 12.8167 15.8082 13.1073 15.553 13.2887C15.2928 13.4737 14.8298 13.4737 13.9038 13.4737H2.9383C2.0123 13.4737 1.5493 13.4737 1.28912 13.2887C1.03386 13.1073 0.878356 12.8167 0.868967 12.5037C0.859396 12.1846 1.11622 11.7994 1.62987 11.0289L2.35504 9.94112C3.02046 8.943 3.43084 7.79687 3.5502 6.60322L3.79156 4.18963Z" fill="#E83940"/>
<path d="M6.79425 15.6879C6.89021 15.7775 7.10165 15.8566 7.39579 15.913C7.68993 15.9694 8.05032 16 8.42107 16C8.79183 16 9.15222 15.9694 9.44636 15.913C9.74049 15.8566 9.95194 15.7775 10.0479 15.6879" stroke="#E83940" stroke-width="2" stroke-linecap="round"/>
</svg>
