<svg width="240" height="153" viewBox="0 0 240 153" fill="currentColor" xmlns="http://www.w3.org/2000/svg">
<path d="M42.6956 25.131C42.263 26.433 42.0247 27.8218 42.0247 29.2681C42.0247 36.527 47.927 42.4107 55.2059 42.4107C62.4862 42.4107 68.3872 36.527 68.3872 29.2681C68.3872 27.3332 67.9653 25.4999 67.2126 23.8453C64.076 24.8068 59.8665 25.6147 54.6259 25.8497C49.8032 26.0647 45.8051 25.7175 42.6954 25.1313L42.6956 25.131Z" fill="currentColor"/>
<path d="M54.3116 48.7496C56.0353 49.0194 56.7371 48.0312 57.0652 47.214L52.1541 46.2605C52.1768 47.1512 52.4621 48.4598 54.3117 48.7496L54.3116 48.7496Z" fill="currentColor"/>
<path d="M77.1907 53.3646C74.2644 51.6607 71.0847 50.5456 68.5561 49.7738C67.2597 49.3812 66.1441 49.0914 65.3485 48.8991C64.7498 48.608 64.0802 48.4411 63.3704 48.4411L62.5534 48.2822C59.5373 50.8421 56.4382 51.8022 56.4382 51.8022C56.4382 51.8022 57.5484 54.6452 57.3208 57.6578C57.0904 60.6718 54.7131 63.0448 54.7131 63.0448L52.7216 58.8396L49.5327 62.2341C49.5327 62.2341 47.9979 59.2496 48.7064 56.3105C49.4148 53.3727 51.3461 51.0049 51.3461 51.0049C51.3461 51.0049 48.3313 48.8964 46.2059 45.1094L37.4469 43.4094C37.0598 43.4094 36.6862 43.4628 36.3286 43.5536C34.183 43.5136 32.2222 44.9504 31.6921 47.1123H31.6908L31.6881 47.123C31.6184 47.4301 29.9698 53.6127 25.7429 59.7555C23.596 62.8909 20.8064 66.0063 17.288 68.4474C13.7603 70.8925 9.52663 72.7032 4.17767 73.2935C1.60488 73.574 -0.25414 75.8828 0.0283766 78.448C0.290877 80.841 2.32259 82.6131 4.68099 82.6131C4.85108 82.6131 5.02251 82.6038 5.19662 82.5851C12.2602 81.8199 18.1732 79.2854 22.87 75.9603C28.3452 72.0864 32.2116 67.239 34.9346 62.7737L38.3391 87.8718C38.3391 88.6717 38.5494 89.4222 38.915 90.0725C39.0047 90.3209 39.1078 90.5666 39.2284 90.8096L39.657 91.6763L48.0114 108.535L26.0187 119.501C22.3998 121.304 20.9334 125.69 22.7414 129.297C24.0245 131.857 26.612 133.335 29.2986 133.335C30.3995 133.335 31.5165 133.087 32.5678 132.563L61.0773 118.348C64.676 116.555 66.1493 112.179 64.3694 108.584L56.8545 93.4147L58.23 93.5535L65.4222 108.068C67.486 112.234 65.7731 117.315 61.6037 119.393L60.8484 119.769L47.7768 142.005C45.7318 145.483 46.9023 149.957 50.3925 151.997C51.555 152.677 52.83 153 54.0875 153C56.6013 153 59.0497 151.708 60.4129 149.39L78.6126 118.43C79.9372 116.18 79.9519 113.377 78.6528 111.114L64.7094 86.8061L65.3295 80.2255C63.5924 80.9092 61.7294 81.5955 59.7244 82.2899C59.107 82.5049 58.4601 82.6144 57.8052 82.6144C55.3127 82.6144 53.0853 81.0347 52.2697 78.6845C51.7567 77.2103 51.8505 75.6239 52.5349 74.2192C53.2179 72.8171 54.4112 71.7622 55.8898 71.2507C60.0871 69.8032 63.7101 68.3423 66.5816 66.9495L67.3115 59.1912C68.2195 59.4983 69.1624 59.8482 70.0664 60.2394C71.6843 60.9271 73.1522 61.7724 73.9195 62.4454C74.1592 62.6484 74.3266 62.8274 74.4298 62.9542C74.2476 63.2293 73.803 63.7501 73.0222 64.4084C72.3914 64.9412 71.5449 65.5608 70.4052 66.2272C70.4038 66.2285 70.4012 66.2285 70.3998 66.2299C67.4775 67.9845 62.8716 70.0771 56.2716 72.3524C53.8247 73.1977 52.5282 75.8592 53.376 78.3C54.0483 80.2309 55.8631 81.4434 57.8051 81.4434C58.314 81.4434 58.8323 81.3593 59.3413 81.1844C66.3349 78.7634 71.4473 76.4986 75.2267 74.2417C75.2267 74.2417 75.228 74.2417 75.228 74.2403C76.3878 73.5419 77.4191 72.8449 78.3486 72.1305C79.5164 71.2304 80.5169 70.301 81.3634 69.2928C82.862 67.5101 83.9026 65.2733 83.896 62.8885C83.9027 61.0992 83.3067 59.442 82.4964 58.1614C81.0513 55.9073 79.1321 54.5251 77.19 53.3649L77.1907 53.3646Z" fill="currentColor"/>
<path d="M54.5927 24.4405C64.8559 23.9825 71.1731 21.3224 73.1902 19.6224C73.7379 19.1603 73.971 18.7691 73.8759 18.514C73.4299 17.3149 64.5302 19.9469 64.5302 19.9469C64.3427 18.4619 63.8257 17.3857 63.1065 14.0246C62.6003 11.653 59.0659 7.88462 53.8599 8.11708C48.654 8.34943 45.4719 12.4169 45.1801 14.8259C44.7663 18.2378 44.3471 19.3541 44.2935 20.8511C44.2935 20.8511 35.193 19.023 34.858 20.2568C34.787 20.5186 35.0508 20.8858 35.6308 21.2931C37.7803 22.806 44.3147 24.8986 54.5926 24.4405L54.5927 24.4405Z" fill="currentColor"/>
<path d="M223.959 81.6769C224.601 81.976 225.274 82.1163 225.937 82.1163C227.702 82.1163 229.394 81.1174 230.188 79.4162L239.562 59.3604C240.344 57.6872 240.064 55.7094 238.847 54.3167C238.793 54.2566 235.412 50.384 231.268 46.4113C229.186 44.4203 226.931 42.4065 224.67 40.768C223.535 39.9495 222.4 39.219 221.183 38.6248C219.989 38.068 218.728 37.5605 217.003 37.5071C216.641 37.4136 216.264 37.3589 215.873 37.3589H212.842C210.197 40.5758 207.076 42.1089 207.076 42.1089C207.076 42.1089 208.615 44.7463 208.859 47.7574C209.101 50.7699 207.12 53.482 207.12 53.482L204.498 49.6362L201.876 53.482C201.876 53.482 199.895 50.7699 200.137 47.7574C200.381 44.7448 201.92 42.1089 201.92 42.1089C201.92 42.1089 198.799 40.5759 196.154 37.3589H193.237C192.845 37.3589 192.467 37.4136 192.104 37.5071C190.381 37.5592 189.118 38.0666 187.926 38.6235C185.812 39.6624 183.876 41.1166 181.908 42.7469C176.096 47.6128 170.35 54.227 170.261 54.3165C169.044 55.708 168.764 57.6857 169.548 59.3589L178.921 79.4147C179.716 81.1146 181.407 82.1148 183.174 82.1148C183.837 82.1148 184.509 81.9745 185.149 81.6768C187.494 80.5858 188.511 77.8057 187.418 75.4674L179.356 58.2213C180.964 56.4933 183.339 54.0267 185.77 51.8023C186.763 50.8916 187.767 50.0249 188.709 49.2745V80.8076L174.144 99.2024C172.28 101.555 172.048 104.791 173.555 107.386L186.443 129.583C187.8 131.922 190.26 133.228 192.787 133.228C194.033 133.228 195.294 132.911 196.449 132.243C199.95 130.222 201.144 125.755 199.118 122.265L188.72 104.36L202.99 86.3375H207.026L218.553 147.119C219.296 151.04 223.085 153.614 227.015 152.873C230.945 152.132 233.53 148.355 232.787 144.435L220.397 79.1032L220.401 49.2779C222.389 50.8697 224.684 52.9997 226.598 54.9438C227.799 56.1483 228.887 57.2927 229.751 58.2207L221.689 75.4669C220.598 77.8064 221.614 80.5868 223.959 81.6763L223.959 81.6769Z" fill="currentColor"/>
<path d="M204.502 39.4238C206.331 39.4238 206.837 38.2287 207.011 37.358H201.993C202.166 38.23 202.672 39.4238 204.501 39.4238H204.502Z" fill="currentColor"/>
<path d="M203.973 17.6205C199.511 16.8072 195.871 15.6722 193.042 14.489C191.983 16.3812 191.376 18.5618 191.376 20.8827C191.376 28.1416 197.278 34.0252 204.557 34.0252C211.838 34.0252 217.738 28.1416 217.738 20.8827C217.738 20.036 217.655 19.2082 217.501 18.4056C214.141 18.7327 209.571 18.6406 203.973 17.6204L203.973 17.6205Z" fill="currentColor"/>
<path d="M224.377 14.7626C224.243 13.7331 218.104 13.9227 215.804 14.0295C215.555 13.6236 215.282 13.2337 214.991 12.8584C214.975 11.7661 214.849 10.4708 214.888 7.98429C214.926 5.56062 212.327 1.09904 207.201 0.164415C202.074 -0.770347 198.06 2.48529 197.235 4.76746C196.066 8.00036 195.408 8.99652 195.019 10.4429C195.019 10.4429 186.56 6.63192 185.955 7.7588C185.827 7.99784 186.002 8.41448 186.476 8.94192C188.234 10.8969 194.132 14.3941 204.253 16.2384C214.357 18.0799 221.112 16.8968 223.459 15.6896C224.099 15.3624 224.414 15.0326 224.377 14.7629L224.377 14.7626Z" fill="currentColor"/>
<path d="M135 118.911C137.209 126.703 140.315 136.927 144.477 149.046C145.309 151.471 147.584 152.998 150.018 152.998C150.647 152.998 151.288 152.895 151.917 152.681C154.979 151.637 156.61 148.315 155.563 145.264C151.981 134.833 149.198 125.842 147.114 118.658C143.866 119.197 139.858 119.398 135 118.912L135 118.911Z" fill="currentColor"/>
<path d="M104.201 113.056C102.736 115.156 102.814 117.968 104.393 119.985L119.03 138.677C120.186 140.153 121.909 140.924 123.653 140.925C124.913 140.925 126.184 140.522 127.256 139.687C129.806 137.703 130.259 134.03 128.267 131.488L116.287 116.19L117.108 115.012C112.264 113.43 108.673 111.743 106.122 110.303L104.201 113.056Z" fill="currentColor"/>
<path d="M126.919 27.8453C122.809 27.5729 119.34 26.96 116.533 26.2122C115.372 28.6345 114.991 31.4493 115.649 34.2683C117.191 40.865 123.801 44.9672 130.417 43.4316C137.035 41.8946 141.151 35.302 139.608 28.7053C139.497 28.2299 139.353 27.7732 139.191 27.3258C136.025 27.8827 131.91 28.1751 126.919 27.8453H126.919Z" fill="currentColor"/>
<path d="M128.63 47.7823C130.315 47.8023 130.529 46.4576 130.6 45.842C130.268 45.8326 129.929 45.8286 129.582 45.8286C128.582 45.8286 127.628 45.854 126.713 45.8967C126.763 46.4616 126.91 47.7622 128.63 47.7822L128.63 47.7823Z" fill="currentColor"/>
<path d="M158.658 111.876L143.733 83.6867C143.163 82.3419 142.44 81.1415 141.736 79.9157L140.686 77.9313H140.674C139.985 76.4998 139.442 74.9228 139.289 72.9611C139.152 71.1864 139.455 69.0004 139.991 66.7035C139.365 66.8905 138.704 66.9946 138.017 66.9946C135.288 66.9946 132.941 65.3962 131.845 63.0914C133.146 64.7339 135.156 65.7914 137.418 65.7914C141.342 65.7914 144.523 62.6213 144.523 58.7072C144.523 58.4695 144.511 58.2345 144.487 58.0035C144.428 57.4173 144.293 56.8551 144.1 56.3196C145.894 57.2677 147.55 58.4014 148.593 59.4978C149.675 60.6368 150.029 61.5195 150.026 62.2727C150.019 62.9163 149.801 63.8604 148.584 65.352C147.376 66.8209 145.179 68.6851 141.722 70.7403C140.055 71.7338 139.512 73.8864 140.509 75.5488C141.166 76.6464 142.333 77.2554 143.529 77.2554C144.142 77.2554 144.765 77.0951 145.33 76.7573C149.236 74.4204 152.048 72.1689 154.006 69.8108C155.954 67.474 157.061 64.8765 157.055 62.2713C157.047 58.9115 155.296 56.2113 153.29 54.2658C150.228 51.316 146.263 49.4303 142.999 48.1018C139.738 46.7959 137.178 46.1389 137.079 46.1135C136.549 45.9773 136.016 45.9733 135.512 46.0748C133.372 48.4277 130.591 49.5227 130.591 49.5227C130.591 49.5227 131.756 51.224 131.921 53.1521C132.083 55.0817 130.539 56.799 130.539 56.799L128.549 54.3139L126.5 56.7496C126.5 56.7496 124.996 54.9976 125.206 53.072C125.415 51.1464 126.622 49.4747 126.622 49.4747C126.622 49.4747 124.173 48.4424 122.147 46.3099C118.817 46.7746 116.365 47.509 114.87 48.2354C114.739 48.2795 114.607 48.3303 114.478 48.393V48.3917C114.353 48.4571 111.29 49.9127 108.056 52.3671C106.438 53.6036 104.766 55.0859 103.383 56.91C102.024 58.7194 100.876 60.9773 100.861 63.6841C100.836 66.3161 102.104 69.0016 104.313 71.0982C106.529 73.2321 109.64 75.0364 113.982 76.7255C114.4 76.887 114.83 76.9631 115.253 76.9631C116.662 76.9631 117.992 76.1138 118.532 74.7264C119.235 72.9223 118.338 70.8912 116.528 70.19C112.732 68.7278 110.404 67.2389 109.216 66.0731C108.023 64.8686 107.919 64.2436 107.894 63.6841C107.882 63.1032 108.186 62.2019 109.004 61.1202C110.199 59.5085 112.381 57.7845 114.237 56.5962C114.923 56.1515 115.563 55.7722 116.092 55.4718C115.693 56.2449 115.428 57.0969 115.338 58.0023C115.315 58.2346 115.302 58.4696 115.302 58.7073C115.302 62.6198 118.481 65.7915 122.407 65.7915C124.669 65.7915 126.681 64.7339 127.981 63.0915C126.885 65.3976 124.538 66.9961 121.81 66.9961C121.065 66.9961 120.35 66.8732 119.679 66.6542C119.94 68.9137 120.016 71.0905 119.87 72.9624C119.719 74.9228 119.175 76.5013 118.487 77.9326H118.475L100.911 104.712C100.911 104.712 101.167 104.975 101.719 105.426C104.129 107.399 112.215 112.986 129.617 116.2C147.15 119.437 155.592 114.309 157.942 112.485C158.424 112.113 158.657 111.876 158.657 111.876L158.658 111.876Z" fill="currentColor"/>
<path d="M107.894 20.1059C107.793 20.3583 108.016 20.7509 108.547 21.2222C110.516 22.9636 116.779 25.7651 127.043 26.4434C137.293 27.1204 143.869 25.1734 146.061 23.7072C146.657 23.3093 146.932 22.946 146.866 22.6803C146.557 21.4398 137.419 23.0729 137.419 23.0729C137.397 21.576 137.003 20.4502 136.662 17.0303C136.422 14.6173 133.328 10.4818 128.129 10.1372C122.929 9.79401 119.315 13.485 118.757 15.8458C117.965 19.1909 117.427 20.255 117.207 21.7373C117.204 21.7386 108.362 18.9157 107.894 20.1055L107.894 20.1059Z" fill="currentColor"/>
</svg>
