<svg width="12" height="14" viewBox="0 0 12 14" fill="none" xmlns="http://www.w3.org/2000/svg">
<path d="M4.42936 0.0215913C3.85166 0.438977 0 3.40253 0 8.22343C0 8.98207 0.149425 9.73328 0.439744 10.4342C0.730062 11.1351 1.15559 11.7719 1.69203 12.3083C2.22847 12.8448 2.86531 13.2703 3.5662 13.5606C4.24684 13.8426 4.97493 13.9916 5.71119 14C3.91839 13.965 2.47583 12.5007 2.47583 10.6995C2.47583 10.5365 2.48765 10.3763 2.51047 10.2196C2.51145 10.2103 2.51263 10.2009 2.51403 10.1915C2.79084 8.33149 4.50213 6.75238 5.3297 6.08641C5.59414 5.8736 5.95986 5.87361 6.2243 6.08642C7.05184 6.75239 8.76306 8.3315 9.03987 10.1915C9.04126 10.2009 9.04245 10.2103 9.04342 10.2196C9.06624 10.3763 9.07806 10.5365 9.07806 10.6995C9.07806 12.5007 7.6355 13.965 5.8427 14C6.57896 13.9916 7.30705 13.8426 7.98769 13.5606C8.68858 13.2703 9.32542 12.8448 9.86186 12.3083C10.3983 11.7719 10.8238 11.1351 11.1141 10.4342C11.3946 9.75702 11.5436 9.03291 11.5534 8.3005C11.5537 8.29103 11.5539 8.28152 11.5539 8.27197L11.5538 8.24586L11.5539 8.2235C11.5321 4.72378 9.16419 2.81374 8.73255 2.49453C8.69208 2.4646 8.63827 2.46494 8.59781 2.49487C8.42472 2.62291 7.94256 3.00503 7.42478 3.64124C7.36573 3.7138 7.24967 3.69992 7.20971 3.61534C6.2369 1.55664 4.88921 0.307089 4.57085 0.0295957C4.52978 -0.00620458 4.47353 -0.0103167 4.42936 0.0215913Z" fill="white"/>
</svg>
