<svg width="21" height="18" viewBox="0 0 21 18" fill="none" xmlns="http://www.w3.org/2000/svg">
<path d="M2.95067 9.90821L9.90329 16.4395C10.1428 16.6644 10.2625 16.7769 10.4037 16.8046C10.4673 16.8171 10.5327 16.8171 10.5963 16.8046C10.7375 16.7769 10.8572 16.6644 11.0967 16.4395L18.0493 9.90821C20.0055 8.07059 20.243 5.0466 18.5978 2.92607L18.2885 2.52734C16.3203 -0.00942016 12.3696 0.416014 10.9867 3.31365C10.7913 3.72296 10.2087 3.72296 10.0133 3.31365C8.63037 0.416014 4.67972 -0.00941634 2.71154 2.52735L2.40219 2.92607C0.756947 5.0466 0.994498 8.07059 2.95067 9.90821Z" stroke="#4C5861" stroke-width="1.2"/>
</svg>
