<svg width="52" height="41" viewBox="0 0 52 41" fill="currentColor" xmlns="http://www.w3.org/2000/svg">
<path d="M7.50947 12.45C6.94322 12.5478 6.3858 12.6497 5.83608 12.7549L7.50947 12.5852V12.45ZM4.83663 17.2051C4.83663 15.8149 5.75594 14.688 6.89001 14.688C8.0237 14.688 8.94298 15.8149 8.94298 17.2051V19.4253C9.40364 19.3691 9.86874 19.3163 10.3358 19.2647V16.4306C10.3358 14.8266 11.3966 13.5263 12.7052 13.5263C14.0139 13.5263 15.0742 14.8266 15.0742 16.4306V18.8263C15.5607 18.7897 16.048 18.7539 16.5381 18.7227V16.2372C16.5381 14.4193 17.7403 12.9455 19.2234 12.9455C20.7061 12.9455 21.9083 14.4193 21.9083 16.2372V18.4772C23.1299 18.4435 24.3535 18.4252 25.5755 18.4215L24.0706 10.9295C19.6933 11.0028 15.5087 11.3239 11.6163 11.8301V11.8659C8.41917 12.445 5.59073 13.0635 3.2789 13.4612V20.2638C3.79196 20.1735 4.31106 20.0866 4.83704 20.0026L4.83663 17.2051ZM4.83663 25.9842C4.83663 24.6198 5.75594 23.5132 6.89001 23.5132C8.0237 23.5132 8.94298 24.6202 8.94298 25.9842V28.3008H10.3358V25.7945C10.3358 24.2196 11.3966 22.9434 12.7052 22.9434C14.0139 22.9434 15.0742 24.22 15.0742 25.7945V28.3008H16.5381V25.604C16.5381 23.8194 17.7403 22.373 19.2234 22.373C20.7061 22.373 21.9083 23.8194 21.9083 25.604V28.3008H23.3032V25.9842C23.3032 23.9899 24.6469 22.373 26.3046 22.373C27.9618 22.373 29.306 23.9896 29.306 25.9842V28.3008H30.7698V25.604C30.7698 23.8194 31.972 22.373 33.4551 22.373C34.9383 22.373 36.1404 23.8194 36.1404 25.604V28.3008H37.6043V25.7945C37.6043 24.2196 38.665 22.9434 39.9737 22.9434C41.2824 22.9434 42.3431 24.22 42.3431 25.7945V28.3008H43.736V25.4146C43.736 24.0498 44.6553 22.9433 45.7889 22.9433C46.923 22.9433 47.8423 24.0498 47.8423 25.4146V28.3008H50.6417L50.6405 21.7715C44.072 20.4338 35.6792 19.5806 26.0004 19.5806C16.6147 19.5806 8.44416 20.3842 1.96892 21.6526V28.3005H4.83687L4.83663 25.9842ZM5.11391 5.41301C5.1925 5.41301 5.27231 5.39553 5.34807 5.35934C5.46454 5.30402 5.58948 5.24786 5.71079 5.19212L4.76569 11.783C5.66081 11.6029 6.57651 11.434 7.50993 11.2751V7.91146C7.50993 6.52162 8.42924 5.39429 9.5629 5.39429C10.697 5.39429 11.6163 6.52162 11.6163 7.91146V10.6641C12.0773 10.6046 12.5412 10.548 13.0091 10.4943V7.71766C13.0091 6.11367 14.0699 4.81329 15.3785 4.81329C16.6872 4.81329 17.7475 6.11367 17.7475 7.71766V10.0501C18.932 9.96478 20.1307 9.89864 21.3389 9.84956L18.145 1.2128C18.2493 1.19492 18.3558 1.17453 18.4593 1.15831C18.7664 1.10964 18.9772 0.813038 18.9301 0.496053C18.8829 0.179067 18.5931 -0.0372402 18.2884 0.0101809C13.7782 0.724841 8.30423 2.68165 4.87986 4.30353C4.59734 4.43706 4.47321 4.78192 4.60298 5.07353C4.69689 5.28693 4.90082 5.41297 5.11402 5.41297L5.11391 5.41301ZM33.7604 12.5093C33.8809 12.4973 34.0026 12.4935 34.1235 12.4831L34.3089 18.6556C35.4156 18.7184 36.5151 18.7912 37.6041 18.8781V16.4309C37.6041 14.8269 38.6648 13.5265 39.9735 13.5265C41.2821 13.5265 42.3429 14.8269 42.3429 16.4309V19.3411C42.8108 19.3956 43.2743 19.453 43.7357 19.5117V17.2055C43.7357 15.8152 44.655 14.6883 45.7887 14.6883C46.9228 14.6883 47.8421 15.8152 47.8421 17.2055V20.1107C48.3451 20.1947 48.8404 20.2821 49.3309 20.3715L49.3301 14.1858C49.4563 14.2199 49.5747 14.2465 49.7021 14.2815C49.7505 14.2944 49.7992 14.301 49.8464 14.301C50.0954 14.3006 50.3236 14.1288 50.3905 13.8688C50.4699 13.5585 50.2909 13.2403 49.9902 13.1583C43.6353 11.4204 38.5967 10.8633 33.6536 11.3525C33.3445 11.3833 33.1171 11.667 33.147 11.9861C33.1768 12.3055 33.4537 12.5385 33.7608 12.5094L33.7604 12.5093ZM51.6828 37.3168C51.7131 37.3122 51.7453 37.3076 51.7755 37.303L51.7751 29.4621H0.833665V37.1703C0.77966 37.1595 0.723639 37.1504 0.67004 37.14C0.36455 37.0797 0.069533 37.2852 0.0102901 37.5996C-0.0485514 37.9145 0.150948 38.2195 0.455633 38.2806C8.03732 39.799 17.6817 40.0037 26.1162 40.0037C34.5709 40.0037 44.2027 39.8131 51.5405 38.4C51.846 38.3413 52.0475 38.0381 51.9903 37.7228C51.9564 37.5356 51.8359 37.3954 51.6828 37.3168L51.6828 37.3168ZM8.94273 38.2631C7.53903 38.1408 6.17352 37.9853 4.83668 37.8093V35.2114C4.83668 33.8212 5.75599 32.6943 6.89007 32.6943C8.02375 32.6943 8.94303 33.8212 8.94303 35.2114L8.94273 38.2631ZM15.074 38.6483C13.4809 38.5818 11.8961 38.4924 10.3356 38.3759V35.0181C10.3356 33.4141 11.3963 32.1137 12.705 32.1137C14.0137 32.1137 15.074 33.4141 15.074 35.0181V38.6483ZM21.9081 38.8197C20.1355 38.8002 18.3377 38.7648 16.5377 38.7041V34.8241C16.5377 33.0067 17.7399 31.5329 19.223 31.5329C20.7058 31.5329 21.908 33.0067 21.908 34.8241L21.9081 38.8197ZM29.3056 38.831C28.2291 38.8384 27.1639 38.8418 26.1169 38.8418C25.1927 38.8418 24.2525 38.8384 23.3033 38.8326V35.2115C23.3033 33.1798 24.6469 31.5329 26.3046 31.5329C27.9618 31.5329 29.306 33.1798 29.306 35.2115L29.3056 38.831ZM36.1397 38.6991C34.347 38.7594 32.5475 38.796 30.7693 38.8168V34.8242C30.7693 33.0068 31.9715 31.5329 33.4547 31.5329C34.9378 31.5329 36.14 33.0068 36.14 34.8242L36.1397 38.6991ZM42.3422 38.3755C40.7889 38.4907 39.2026 38.578 37.6038 38.6446V35.018C37.6038 33.414 38.6646 32.1136 39.9732 32.1136C41.2819 32.1136 42.3426 33.414 42.3426 35.018L42.3422 38.3755ZM47.8411 37.8159C46.5159 37.9923 45.144 38.1408 43.7351 38.2627V34.6308C43.7351 33.241 44.6544 32.1136 45.788 32.1136C46.9221 32.1136 47.8414 33.241 47.8414 34.6308L47.8411 37.8159Z" fill="currentColor"/>
</svg>
