<svg width="18" height="16" viewBox="0 0 18 16" fill="none" xmlns="http://www.w3.org/2000/svg">
<path d="M2.76054 9.32657L8.32263 14.5516C8.44906 14.6703 8.51227 14.7297 8.57951 14.7627C8.71856 14.8311 8.88144 14.8311 9.02049 14.7627C9.08773 14.7297 9.15094 14.6703 9.27737 14.5516L14.8395 9.32657C16.4044 7.85647 16.5944 5.43728 15.2782 3.74085L15.0308 3.42187C13.4562 1.39246 10.2957 1.73281 9.18933 4.05092C9.03305 4.37837 8.56695 4.37837 8.41067 4.05092C7.3043 1.73281 4.14378 1.39246 2.56924 3.42187L2.32175 3.74085C1.00556 5.43728 1.1956 7.85647 2.76054 9.32657Z" stroke="#4C5861" stroke-width="1.2"/>
</svg>
