<svg width="15" height="15" viewBox="0 0 15 15" fill="none" xmlns="http://www.w3.org/2000/svg">
<path d="M2.85634 8.62836L2.85634 8.62836C2.84453 8.64016 2.83275 8.65192 2.821 8.66363C2.66137 8.82281 2.50793 8.97582 2.39953 9.16727C2.29114 9.35872 2.23888 9.56902 2.18451 9.78779C2.18051 9.8039 2.17649 9.82005 2.17245 9.83624L1.62003 12.0459C1.61762 12.0556 1.61518 12.0653 1.61272 12.0751C1.57411 12.2292 1.53044 12.4034 1.51593 12.5517C1.49978 12.7168 1.50127 13.0161 1.74255 13.2573L2.16682 12.8331L1.74255 13.2573C1.98384 13.4986 2.28307 13.5001 2.4482 13.484C2.59646 13.4695 2.77072 13.4258 2.92479 13.3872C2.9346 13.3847 2.94434 13.3823 2.95397 13.3799L5.16365 12.8274C5.17984 12.8234 5.19599 12.8194 5.2121 12.8154C5.43087 12.761 5.64117 12.7088 5.83262 12.6004C6.02407 12.492 6.17708 12.3385 6.33626 12.1789C6.34798 12.1671 6.35973 12.1554 6.37153 12.1436L12.6465 5.8686L12.6701 5.84503C12.9441 5.57107 13.1863 5.32884 13.3599 5.10816C13.5468 4.87045 13.704 4.59756 13.7349 4.25455C13.7435 4.15904 13.7435 4.06296 13.7349 3.96746C13.704 3.62444 13.5468 3.35155 13.3599 3.11384C13.1863 2.89316 12.944 2.65092 12.67 2.37696L12.6465 2.35341L12.6229 2.32985C12.349 2.05585 12.1067 1.81357 11.886 1.64004C11.6483 1.45311 11.3755 1.2959 11.0324 1.265L10.9786 1.86258L11.0324 1.265C10.9369 1.2564 10.8408 1.2564 10.7453 1.265L10.7992 1.86258L10.7453 1.265C10.4023 1.2959 10.1294 1.45311 9.89173 1.64004C9.67105 1.81357 9.42881 2.05584 9.15485 2.32984L9.13129 2.3534L2.86881 8.61589L2.8688 8.61589L2.85634 8.62836Z" stroke="#4C5861" stroke-width="1.2"/>
<path d="M8.66669 2.77778L11.3334 1L14 3.66667L12.2222 6.33333L8.66669 2.77778Z" fill="#4C5861"/>
</svg>
