<svg width="40" height="54" viewBox="0 0 40 54" fill="currentColor" xmlns="http://www.w3.org/2000/svg">
<path fill-rule="evenodd" clip-rule="evenodd" d="M8.18287 8.1969C17.3339 4.08935 18.4883 14.9787 18.1532 16.9643C14.0054 9.05715 3.88546 12.0528 5.64662 17.8506C6.45576 9.68841 17.1147 13.4493 18.1064 20.5293C18.8 25.4814 18.756 32.4097 18.7936 37.2274C16.66 33.2924 14.981 31.8501 13.0667 30.664C18.8969 36.2579 20.0204 46.0467 16.6764 53.413C16.5579 53.674 18.5897 52.6434 19.7944 51.8276C21.0797 54.7304 20.4708 48.9565 23.6898 53.2829C22.8389 45.3978 19.5659 10.7221 36.2738 28.5866C36.4982 28.9815 26.6977 13.0398 21.377 31.5088C21.1096 23.9182 20.915 20.3204 21.4374 16.9194C23.5613 3.08881 33.4495 9.9955 34.1979 16.3112C33.0598 4.57495 20.248 4.14158 19.6562 18.0361C18.8082 8.70416 15.6683 3.46766 8.18431 8.19653L8.18287 8.1969Z" fill="currentColor"/>
<path fill-rule="evenodd" clip-rule="evenodd" d="M24.0236 35.2211C29.7212 36.8423 28.7755 29.637 31.8946 28.5721C28.0353 27.1764 22.0121 29.244 24.0236 35.2211Z" fill="currentColor"/>
<path fill-rule="evenodd" clip-rule="evenodd" d="M31.8809 9.53851C32.2631 8.14438 34.3176 8.99971 35.0156 10.2048C33.9361 9.55977 32.3108 10.9081 31.8809 9.53851Z" fill="currentColor"/>
<path fill-rule="evenodd" clip-rule="evenodd" d="M32.7437 10.7998C33.0792 9.79596 34.5469 10.5044 35.0088 11.4139C34.2455 10.8986 33.0023 11.8185 32.7437 10.7998Z" fill="currentColor"/>
<path fill-rule="evenodd" clip-rule="evenodd" d="M33.4326 11.9291C33.666 11.2311 34.6862 11.7236 35.0073 12.356C34.4767 11.9981 33.6127 12.6372 33.4326 11.9291Z" fill="currentColor"/>
<path fill-rule="evenodd" clip-rule="evenodd" d="M33.7957 12.8512C34.2107 12.2438 35.0575 12.9955 35.1943 13.6909C34.7815 13.2017 33.7759 13.5817 33.7957 12.8512Z" fill="currentColor"/>
<path fill-rule="evenodd" clip-rule="evenodd" d="M34.2907 14.0014C34.8194 13.4902 35.4973 14.3978 35.4905 15.1062C35.1852 14.5439 34.1236 14.7124 34.2907 14.0014Z" fill="currentColor"/>
<path fill-rule="evenodd" clip-rule="evenodd" d="M22.4889 22.7433C28.1865 24.3645 27.2408 17.1592 30.3599 16.0942C26.5006 14.699 20.4774 16.7662 22.4889 22.7433Z" fill="currentColor"/>
<path fill-rule="evenodd" clip-rule="evenodd" d="M16.2526 28.945C10.4317 30.0447 12.0253 22.9541 9.01514 21.6114C12.9848 20.5707 18.7955 23.1741 16.2526 28.945Z" fill="currentColor"/>
<path fill-rule="evenodd" clip-rule="evenodd" d="M30.3542 10.4352C28.9085 10.0138 28.5174 12.2074 29.1927 13.4413C29.2251 12.1843 31.3248 11.5299 30.3542 10.4352Z" fill="currentColor"/>
<path fill-rule="evenodd" clip-rule="evenodd" d="M31.3712 11.3974C30.3432 11.1454 30.1586 12.7647 30.6806 13.6406C30.6527 12.72 32.0943 12.1607 31.3712 11.3974Z" fill="currentColor"/>
<path fill-rule="evenodd" clip-rule="evenodd" d="M31.9171 12.6258C31.2027 12.4506 31.0744 13.5763 31.4372 14.1848C31.4178 13.545 32.4197 13.1561 31.9171 12.6258Z" fill="currentColor"/>
<path fill-rule="evenodd" clip-rule="evenodd" d="M32.5632 13.3141C31.8279 13.3402 32.011 14.458 32.5263 14.945C32.3332 14.335 33.1912 13.6877 32.5632 13.3141Z" fill="currentColor"/>
<path fill-rule="evenodd" clip-rule="evenodd" d="M33.2323 14.6467C32.5175 14.8212 32.9229 15.8787 33.5254 16.2515C33.213 15.6933 33.9225 14.8857 33.2323 14.6467Z" fill="currentColor"/>
<path fill-rule="evenodd" clip-rule="evenodd" d="M19.3758 10.0553C24.894 7.90048 19.783 2.73394 21.6227 0C17.7053 1.22298 14.1592 6.5115 19.3758 10.0553Z" fill="currentColor"/>
<path fill-rule="evenodd" clip-rule="evenodd" d="M24.1487 6.93994C27.0231 7.65437 27.6929 4.09193 27.9706 3.48531C26.0187 2.85291 23.0439 3.98682 24.1487 6.93994Z" fill="currentColor"/>
<path fill-rule="evenodd" clip-rule="evenodd" d="M29.223 7.29701C32.0975 8.01181 32.7672 4.449 33.045 3.84237C31.093 3.20961 28.1178 4.34389 29.223 7.29701Z" fill="currentColor"/>
<path fill-rule="evenodd" clip-rule="evenodd" d="M7.45269 12.0924C6.50298 9.28684 3.1423 10.6453 2.48193 10.7392C3.00283 12.724 5.56295 14.6167 7.45269 12.0924Z" fill="currentColor"/>
<path fill-rule="evenodd" clip-rule="evenodd" d="M13.9885 11.6761C14.3532 8.73672 10.7356 8.49923 10.1002 8.29639C9.70647 10.3103 11.1894 13.1277 13.9885 11.6761Z" fill="currentColor"/>
<path fill-rule="evenodd" clip-rule="evenodd" d="M4.97075 16.0537C4.02105 13.2481 0.65998 14.6066 0 14.7005C0.520901 16.6853 3.08102 18.578 4.97075 16.0537Z" fill="currentColor"/>
<path fill-rule="evenodd" clip-rule="evenodd" d="M7.47938 14.9312C5.6117 17.2299 8.55211 19.3497 8.98395 19.8583C10.3856 18.3597 10.6224 15.1847 7.47938 14.9312Z" fill="currentColor"/>
<path fill-rule="evenodd" clip-rule="evenodd" d="M11.7499 14.5522C9.88221 16.8506 12.8226 18.9704 13.2545 19.4794C14.6561 17.9808 14.8929 14.8058 11.7499 14.5522Z" fill="currentColor"/>
<path fill-rule="evenodd" clip-rule="evenodd" d="M12.8821 4.71916C13.2467 1.7798 9.62951 1.54231 8.99378 1.33984C8.60002 3.35338 10.0829 6.17114 12.8821 4.71916Z" fill="currentColor"/>
<path fill-rule="evenodd" clip-rule="evenodd" d="M8.89671 6.80756C9.26138 3.86819 5.64378 3.6307 5.00843 3.42786C4.61467 5.44178 6.09757 8.25915 8.89671 6.80756Z" fill="currentColor"/>
<path fill-rule="evenodd" clip-rule="evenodd" d="M30.8632 22.2678C33.7376 22.9826 34.4073 19.4198 34.6851 18.8132C32.7331 18.1804 29.758 19.3147 30.8632 22.2678Z" fill="currentColor"/>
<path fill-rule="evenodd" clip-rule="evenodd" d="M33.2839 24.3565C36.1584 25.0713 36.8281 21.5084 37.1059 20.9018C35.1539 20.2691 32.1791 21.4033 33.2839 24.3565Z" fill="currentColor"/>
<path fill-rule="evenodd" clip-rule="evenodd" d="M36.178 27.3929C39.0524 28.1077 39.7225 24.5449 39.9999 23.9383C38.048 23.3059 35.0732 24.4398 36.178 27.3929Z" fill="currentColor"/>
<path fill-rule="evenodd" clip-rule="evenodd" d="M12.5212 30.4274C13.1678 27.5369 9.59042 26.9511 8.97741 26.6882C8.39088 28.6544 9.59489 31.602 12.5212 30.4274Z" fill="currentColor"/>
<path fill-rule="evenodd" clip-rule="evenodd" d="M16.2975 36.6797C13.6277 41.9682 8.97091 36.3889 6.07422 37.9602C7.66375 34.177 13.2662 31.1496 16.2975 36.6797Z" fill="currentColor"/>
<path fill-rule="evenodd" clip-rule="evenodd" d="M17.609 22.3996C18.0978 20.2145 15.3934 19.7716 14.9299 19.5729C14.4866 21.0595 15.3968 23.2874 17.609 22.3996Z" fill="currentColor"/>
<path fill-rule="evenodd" clip-rule="evenodd" d="M17.7037 32.3652C18.1926 30.1801 15.4881 29.7372 15.0247 29.5381C14.5813 31.0247 15.4915 33.253 17.7037 32.3652Z" fill="currentColor"/>
<path fill-rule="evenodd" clip-rule="evenodd" d="M30.1998 24.4108C30.6887 26.5959 27.9842 27.0388 27.5208 27.2379C27.0774 25.7513 27.9876 23.523 30.1998 24.4108Z" fill="currentColor"/>
<path fill-rule="evenodd" clip-rule="evenodd" d="M32.1793 25.9181C32.5134 27.4115 30.6651 27.7138 30.3484 27.8499C30.0457 26.8338 30.6676 25.311 32.1793 25.9181Z" fill="currentColor"/>
<path fill-rule="evenodd" clip-rule="evenodd" d="M34.1724 27.0091C34.5065 28.5025 32.6582 28.8048 32.3416 28.9409C32.0388 27.9252 32.6608 26.4024 34.1724 27.0091Z" fill="currentColor"/>
<path fill-rule="evenodd" clip-rule="evenodd" d="M35.6379 28.7646C36.0235 30.258 33.89 30.5603 33.5241 30.6964C33.1743 29.6807 33.8925 28.1579 35.6379 28.7646Z" fill="currentColor"/>
<path fill-rule="evenodd" clip-rule="evenodd" d="M36.4673 28.7464C36.1944 30.7014 38.6024 30.8968 39.0237 31.0381C39.3067 29.7002 38.3473 27.8075 36.4673 28.7464Z" fill="currentColor"/>
</svg>
