<svg width="14" height="14" viewBox="0 0 14 14" fill="none" xmlns="http://www.w3.org/2000/svg">
<path d="M0 3.29412C0 2.08509 0 1.48057 0.252757 1.02679C0.433765 0.701817 0.701817 0.433765 1.02679 0.252757C1.48057 0 2.08509 0 3.29412 0H10.7059C11.9149 0 12.5194 0 12.9732 0.252757C13.2982 0.433765 13.5662 0.701817 13.7472 1.02679C14 1.48057 14 2.08509 14 3.29412C14 3.59638 14 3.74751 13.9368 3.86095C13.8916 3.9422 13.8245 4.00921 13.7433 4.05446C13.6299 4.11765 13.4787 4.11765 13.1765 4.11765H0.82353C0.521272 4.11765 0.370143 4.11765 0.256697 4.05446C0.175454 4.00921 0.108441 3.9422 0.0631892 3.86095C0 3.74751 0 3.59638 0 3.29412Z" fill="#4C5861"/>
<path fill-rule="evenodd" clip-rule="evenodd" d="M0 10C0 11.8856 0 12.8284 0.585786 13.4142C1.17157 14 2.11438 14 4 14H10C11.8856 14 12.8284 14 13.4142 13.4142C14 12.8284 14 11.8856 14 10V6.7647C14 6.2933 14 6.05759 13.8536 5.91115C13.7071 5.7647 13.4714 5.7647 13 5.7647H1C0.528596 5.7647 0.292893 5.7647 0.146447 5.91115C0 6.05759 0 6.2933 0 6.7647V10ZM3.5 8.23533C3.5 7.93308 3.5 7.78195 3.56318 7.6685C3.60844 7.58726 3.67545 7.52025 3.75669 7.47499C3.87014 7.4118 4.02127 7.4118 4.32353 7.4118H5.47647C5.77872 7.4118 5.92985 7.4118 6.0433 7.47499C6.12454 7.52025 6.19155 7.58726 6.23681 7.6685C6.3 7.78195 6.3 7.93308 6.3 8.23533C6.3 8.53759 6.3 8.68872 6.23681 8.80217C6.19155 8.88341 6.12454 8.95042 6.0433 8.99568C5.92985 9.05886 5.77872 9.05886 5.47646 9.05886H4.32352C4.02127 9.05886 3.87014 9.05886 3.75669 8.99568C3.67545 8.95042 3.60844 8.88341 3.56318 8.80217C3.5 8.68872 3.5 8.53759 3.5 8.23533ZM3.56318 10.9626C3.5 11.076 3.5 11.2271 3.5 11.5294C3.5 11.8317 3.5 11.9828 3.56318 12.0962C3.60844 12.1775 3.67545 12.2445 3.75669 12.2897C3.87014 12.3529 4.02127 12.3529 4.32352 12.3529H5.47646C5.77872 12.3529 5.92985 12.3529 6.0433 12.2897C6.12454 12.2445 6.19155 12.1775 6.23681 12.0962C6.3 11.9828 6.3 11.8317 6.3 11.5294C6.3 11.2271 6.3 11.076 6.23681 10.9626C6.19155 10.8813 6.12454 10.8143 6.0433 10.7691C5.92985 10.7059 5.77872 10.7059 5.47647 10.7059H4.32353C4.02127 10.7059 3.87014 10.7059 3.75669 10.7691C3.67545 10.8143 3.60844 10.8813 3.56318 10.9626ZM7.70001 8.23533C7.70001 7.93308 7.70001 7.78195 7.76319 7.6685C7.80845 7.58726 7.87546 7.52025 7.9567 7.47499C8.07015 7.4118 8.22128 7.4118 8.52354 7.4118H9.67648C9.97873 7.4118 10.1299 7.4118 10.2433 7.47499C10.3246 7.52025 10.3916 7.58726 10.4368 7.6685C10.5 7.78195 10.5 7.93308 10.5 8.23533C10.5 8.53759 10.5 8.68872 10.4368 8.80217C10.3916 8.88341 10.3246 8.95042 10.2433 8.99568C10.1299 9.05886 9.97873 9.05886 9.67647 9.05886H8.52353C8.22128 9.05886 8.07015 9.05886 7.9567 8.99568C7.87546 8.95042 7.80845 8.88341 7.76319 8.80217C7.70001 8.68872 7.70001 8.53759 7.70001 8.23533ZM7.76319 10.9626C7.70001 11.076 7.70001 11.2271 7.70001 11.5294C7.70001 11.8317 7.70001 11.9828 7.76319 12.0962C7.80845 12.1775 7.87546 12.2445 7.9567 12.2897C8.07015 12.3529 8.22128 12.3529 8.52353 12.3529H9.67647C9.97873 12.3529 10.1299 12.3529 10.2433 12.2897C10.3246 12.2445 10.3916 12.1775 10.4368 12.0962C10.5 11.9828 10.5 11.8317 10.5 11.5294C10.5 11.2271 10.5 11.076 10.4368 10.9626C10.3916 10.8813 10.3246 10.8143 10.2433 10.7691C10.1299 10.7059 9.97873 10.7059 9.67648 10.7059H8.52354C8.22128 10.7059 8.07015 10.7059 7.9567 10.7691C7.87546 10.8143 7.80845 10.8813 7.76319 10.9626Z" fill="#4C5861"/>
</svg>
