<svg width="177" height="160" viewBox="0 0 177 160" fill="none" xmlns="http://www.w3.org/2000/svg">
<g clip-path="url(#clip0_464_5136)">
<path d="M78.3813 116.99L91.75 123.522M79.0443 102.148C82.6557 112.303 77.4674 123.422 67.4557 126.982C57.444 130.543 46.4004 125.196 42.789 115.04C39.1776 104.885 44.366 93.7658 54.3777 90.2056C64.3893 86.6454 75.4329 91.9921 79.0443 102.148Z" stroke="#3880FF" stroke-opacity="0.51" stroke-width="6" stroke-linecap="round" stroke-linejoin="round"/>
</g>
<path d="M130.646 55.8734L120.348 46.0351C119.518 45.2521 118.41 44.7948 117.244 44.7536C116.077 44.7123 114.937 45.09 114.048 45.8122C112.676 46.9285 110.914 47.5114 109.113 47.4453C107.311 47.3793 105.602 46.6691 104.323 45.4555C103.053 44.2335 102.31 42.6006 102.241 40.8801C102.172 39.1596 102.781 37.4771 103.949 36.1657C104.705 35.3162 105.1 34.227 105.057 33.1127C105.014 31.9985 104.535 30.9402 103.716 30.1464L93.4091 20.2971C92.5381 19.4665 91.3577 19 90.1271 19C88.8965 19 87.7162 19.4665 86.8452 20.2971L70.4295 35.9784C69.416 36.9502 68.6517 38.1329 68.1964 39.434C68.1078 39.6841 67.96 39.9114 67.7645 40.0981C67.5691 40.2849 67.3312 40.4261 67.0694 40.5108C65.7071 40.9457 64.469 41.6768 63.4526 42.6465L21.3576 82.8643C20.4883 83.6965 20 84.8242 20 86C20 87.1757 20.4883 88.3034 21.3576 89.1356L31.6667 98.9738C32.4975 99.7568 33.6052 100.214 34.7714 100.255C35.9377 100.297 37.0778 99.9189 37.9669 99.1967C39.3364 98.0714 41.1004 97.482 42.9054 97.5468C44.7105 97.6115 46.4232 98.3256 47.7005 99.5459C48.9778 100.766 49.7252 102.403 49.7929 104.127C49.8607 105.852 49.2439 107.537 48.066 108.845C47.3101 109.695 46.9147 110.784 46.9579 111.898C47.0011 113.013 47.4797 114.071 48.2993 114.865L58.5967 124.703C59.4677 125.534 60.6481 126 61.8787 126C63.1093 126 64.2896 125.534 65.1606 124.703L107.256 84.4851C108.27 83.5145 109.035 82.3324 109.491 81.0318C109.579 80.7808 109.727 80.5528 109.923 80.3656C110.119 80.1784 110.358 80.0371 110.62 79.9528C111.981 79.5177 113.219 78.7875 114.235 77.8193L130.648 62.1357C131.514 61.3036 132 60.1776 132 59.004C132 57.8305 131.513 56.7049 130.646 55.8734ZM77.3575 49.2633C77.0108 49.5946 76.5991 49.8574 76.1461 50.0367C75.6931 50.216 75.2075 50.3083 74.7172 50.3083C74.2268 50.3083 73.7413 50.216 73.2882 50.0367C72.8352 49.8574 72.4236 49.5946 72.0769 49.2633L69.3911 46.6973C68.708 46.025 68.3292 45.1228 68.3366 44.1859C68.344 43.2489 68.737 42.3523 69.4306 41.6899C70.1242 41.0275 71.0628 40.6524 72.0435 40.6458C73.0242 40.6392 73.9683 41.0015 74.6717 41.6544L77.3575 44.2182C77.7042 44.5494 77.9793 44.9427 78.167 45.3755C78.3547 45.8083 78.4513 46.2722 78.4513 46.7407C78.4513 47.2092 78.3547 47.6731 78.167 48.106C77.9793 48.5388 77.7042 48.932 77.3575 49.2633ZM87.6245 59.0725C86.9244 59.7409 85.9752 60.1164 84.9854 60.1164C83.9957 60.1164 83.0464 59.7409 82.3463 59.0725L79.7796 56.6202C79.4328 56.2889 79.1578 55.8957 78.9701 55.4628C78.7825 55.03 78.6859 54.5661 78.6859 54.0977C78.6859 53.6292 78.7825 53.1653 78.9701 52.7325C79.1578 52.2997 79.4328 51.9064 79.7796 51.5751C80.4798 50.9061 81.4295 50.5303 82.4198 50.5303C82.9102 50.5303 83.3957 50.6225 83.8487 50.8018C84.3017 50.9811 84.7134 51.2439 85.0601 51.5751L87.6269 54.0274C87.9748 54.3586 88.251 54.7522 88.4395 55.1856C88.628 55.6189 88.7251 56.0836 88.7253 56.5528C88.7256 57.0221 88.6289 57.4869 88.4408 57.9204C88.2527 58.3539 87.9769 58.7477 87.6292 59.0792L87.6245 59.0725ZM97.8916 68.8817C97.5449 69.213 97.1333 69.4759 96.6803 69.6552C96.2272 69.8345 95.7417 69.9268 95.2513 69.9268C94.761 69.9268 94.2754 69.8345 93.8224 69.6552C93.3694 69.4759 92.9578 69.213 92.6111 68.8817L90.0443 66.4294C89.3612 65.7571 88.9824 64.855 88.9898 63.918C88.9971 62.9811 89.3901 62.0845 90.0837 61.4221C90.7774 60.7597 91.716 60.3846 92.6967 60.378C93.6774 60.3713 94.6214 60.7336 95.3248 61.3866L97.8916 63.8389C98.2405 64.1696 98.5177 64.5628 98.7072 64.996C98.8967 65.4293 98.9948 65.894 98.9959 66.3636C98.997 66.8331 98.901 67.2983 98.7135 67.7323C98.526 68.1663 98.2507 68.5607 97.9033 68.8929L97.8916 68.8817ZM108.259 78.8114C107.912 79.1427 107.501 79.4055 107.048 79.5848C106.595 79.7641 106.109 79.8564 105.619 79.8564C105.128 79.8564 104.643 79.7641 104.19 79.5848C103.737 79.4055 103.325 79.1427 102.978 78.8114L100.309 76.2476C99.955 75.9173 99.6732 75.5231 99.48 75.0879C99.2868 74.6527 99.1861 74.1851 99.1837 73.7123C99.1814 73.2396 99.2774 72.7711 99.4662 72.3341C99.655 71.8971 99.9329 71.5004 100.284 71.1669C100.634 70.8334 101.051 70.5699 101.509 70.3916C101.968 70.2134 102.458 70.1239 102.953 70.1285C103.448 70.133 103.937 70.2315 104.391 70.4182C104.846 70.6049 105.257 70.876 105.601 71.2159L108.273 73.7774C108.62 74.1088 108.895 74.5022 109.082 74.9351C109.269 75.368 109.366 75.8319 109.366 76.3004C109.365 76.7689 109.269 77.2328 109.081 77.6655C108.893 78.0983 108.618 78.4914 108.271 78.8225L108.259 78.8114Z" fill="#3880FF"/>
<g clip-path="url(#clip1_464_5136)">
<path d="M66.2096 96.8166L68.2336 65.3424" stroke="white" stroke-width="4" stroke-linecap="round" stroke-linejoin="round"/>
<path d="M51.4729 80.2681L82.9703 81.891" stroke="white" stroke-width="4" stroke-linecap="round" stroke-linejoin="round"/>
</g>
<defs>
<clipPath id="clip0_464_5136">
<rect width="57.7191" height="58.5494" fill="white" transform="translate(27 92.1736) rotate(-19.5756)"/>
</clipPath>
<clipPath id="clip1_464_5136">
<rect width="79" height="78" fill="white" transform="translate(27 42)"/>
</clipPath>
</defs>
</svg>
