<svg width="12" height="12" viewBox="0 0 12 12" fill="none" xmlns="http://www.w3.org/2000/svg">
<g clip-path="url(#clip0_40000039_4441)">
<path fill-rule="evenodd" clip-rule="evenodd" d="M5.5 3C4.67157 3 4 3.67158 4 4.5V8.5C4 8.77615 4.22386 9 4.5 9C4.77614 9 5 8.77615 5 8.5V7H6.00225C6.10745 6.99935 6.213 6.987 6.3166 6.96975C6.48995 6.94085 6.72875 6.8821 6.9736 6.7597C7.22045 6.63625 7.48245 6.4433 7.68165 6.1445C7.88295 5.84255 8 5.46245 8 4.99998C8 4.5375 7.88295 4.15739 7.68165 3.85546C7.48245 3.55666 7.2204 3.3637 6.9736 3.24029C6.72875 3.11786 6.48995 3.05914 6.3166 3.03025C6.2124 3.01288 6.10585 3.00005 6 3H5.5ZM5 6V4.5C5 4.22386 5.22385 4 5.5 4L6.0002 4.00009C6.18015 4.00609 6.3659 4.05446 6.5264 4.13472C6.6546 4.19881 6.76755 4.2871 6.8496 4.41016C6.92955 4.5301 7 4.71248 7 4.99998C7 5.2875 6.92955 5.46985 6.8496 5.5898C6.76755 5.7129 6.65455 5.80115 6.5264 5.86525C6.3659 5.9455 6.18015 5.9939 6.00015 5.9999L5 6Z" fill="#0F0F0F"/>
<path fill-rule="evenodd" clip-rule="evenodd" d="M10 0.5C10.8285 0.5 11.5 1.17158 11.5 2V10C11.5 10.8285 10.8285 11.5 10 11.5H2C1.17158 11.5 0.5 10.8285 0.5 10V2C0.5 1.17158 1.17158 0.5 2 0.5H10ZM10 1.5C10.2761 1.5 10.5 1.72386 10.5 2V10C10.5 10.2761 10.2761 10.5 10 10.5H2C1.72386 10.5 1.5 10.2761 1.5 10V2C1.5 1.72386 1.72386 1.5 2 1.5H10Z" fill="#0F0F0F"/>
</g>
<defs>
<clipPath id="clip0_40000039_4441">
<rect width="12" height="12" fill="white"/>
</clipPath>
</defs>
</svg>
