<svg width="16" height="16" viewBox="0 0 16 16" fill="none" xmlns="http://www.w3.org/2000/svg">
<path d="M13.4997 10.9998C12.6767 10.9998 11.9481 11.3999 11.4931 12.0139L4.90891 8.65877C4.96591 8.44827 4.99941 8.22876 4.99941 8.00025C4.99941 7.71424 4.94891 7.44073 4.86091 7.18522L11.4821 3.97212C11.9366 4.59414 12.6697 5.00016 13.4997 5.00016C14.8807 5.00016 15.9998 3.88062 15.9998 2.50008C15.9998 1.11954 14.8807 0 13.4997 0C12.1186 0 10.9996 1.11954 10.9996 2.50008C10.9996 2.69408 11.0241 2.88209 11.0661 3.0636L4.34989 6.3227C3.89238 5.81818 3.23436 5.49967 2.49983 5.49967C1.11929 5.49967 -0.000244141 6.61921 -0.000244141 7.99975C-0.000244141 9.38029 1.11929 10.4998 2.49983 10.4998C3.29486 10.4998 4.00188 10.1278 4.45989 9.5488L11.0711 12.9184C11.0261 13.1054 11.0001 13.2994 11.0001 13.4999C11.0001 14.8805 12.1191 16 13.5002 16C14.8812 16 16.0003 14.8805 16.0003 13.4999C16.0003 12.1194 14.8807 10.9998 13.4997 10.9998ZM13.4997 0.999531C14.3282 0.999531 14.9997 1.67105 14.9997 2.49958C14.9997 3.3281 14.3282 3.99962 13.4997 3.99962C12.6712 3.99962 11.9996 3.3281 11.9996 2.49958C11.9996 1.67105 12.6712 0.999531 13.4997 0.999531ZM2.49933 9.4998C1.67081 9.4998 0.999287 8.82828 0.999287 7.99975C0.999287 7.17122 1.67081 6.4997 2.49933 6.4997C3.32786 6.4997 3.99938 7.17172 3.99938 7.99975C3.99938 8.82778 3.32786 9.4998 2.49933 9.4998ZM13.4997 15C12.6712 15 11.9996 14.3284 11.9996 13.4999C11.9996 12.6714 12.6712 11.9999 13.4997 11.9999C14.3282 11.9999 14.9997 12.6714 14.9997 13.4999C14.9997 14.3284 14.3282 15 13.4997 15Z" fill="#4C5861"/>
</svg>
