<svg width="12" height="12" viewBox="0 0 12 12" fill="none" xmlns="http://www.w3.org/2000/svg">
<g clip-path="url(#clip0_40000032_4415)">
<path d="M5.53782 4.16107C5.43212 4.24141 5.41103 4.3901 5.49001 4.49386C5.56881 4.5982 5.71806 4.61775 5.82376 4.53764C5.92928 4.4573 5.95096 4.30802 5.87197 4.20427C5.7932 4.10009 5.64296 4.08091 5.53782 4.16107Z" fill="black"/>
<path d="M4.97412 4.88612C4.89532 4.78196 4.74549 4.76281 4.63997 4.84295C4.53427 4.9227 4.51318 5.07217 4.59197 5.17592C4.67096 5.28006 4.82021 5.29923 4.92572 5.21947C5.03143 5.13915 5.05292 4.9899 4.97412 4.88612Z" fill="black"/>
<path d="M4.07625 5.56797C3.99726 5.46421 3.84761 5.44504 3.74191 5.5248C3.63639 5.60514 3.6153 5.75422 3.6941 5.85855C3.77289 5.96233 3.92214 5.9815 4.02785 5.90134C4.13336 5.8214 4.15504 5.67212 4.07625 5.56797Z" fill="black"/>
<path d="M2.8444 6.20699C2.73832 6.28678 2.7172 6.43621 2.79621 6.54037C2.87501 6.64413 3.02463 6.6633 3.12996 6.58296C3.23545 6.50322 3.25753 6.35355 3.17815 6.24977C3.09937 6.14601 2.94951 6.12628 2.8444 6.20699Z" fill="black"/>
<path d="M1.94614 6.88868C1.84081 6.96903 1.81934 7.11809 1.89814 7.22187C1.97712 7.32622 2.12677 7.34539 2.23189 7.26523C2.33759 7.18529 2.35908 7.03604 2.28029 6.93188C2.20149 6.8277 2.05165 6.80893 1.94614 6.88868Z" fill="black"/>
<path d="M5.20835 3.80725C5.32298 3.75982 5.37599 3.62371 5.32607 3.50311C5.27631 3.3825 5.14253 3.32287 5.02753 3.37031C4.91254 3.41812 4.86009 3.5542 4.90982 3.67481C4.9596 3.79542 5.09336 3.85467 5.20835 3.80725Z" fill="black"/>
<path d="M4.22955 4.21147C4.34474 4.16406 4.39778 4.02737 4.34803 3.90735C4.29808 3.78655 4.1643 3.72749 4.04931 3.77493C3.93489 3.82236 3.88183 3.95844 3.93161 4.07905C3.98174 4.19966 4.11513 4.25891 4.22955 4.21147Z" fill="black"/>
<path d="M3.07112 4.17907C2.95611 4.22629 2.90366 4.36258 2.95342 4.48359C3.00357 4.6038 3.13693 4.66343 3.25194 4.61543C3.36655 4.56818 3.41959 4.43189 3.36983 4.31128C3.32005 4.19069 3.1861 4.13142 3.07112 4.17907Z" fill="black"/>
<path d="M2.09307 4.58316C1.97846 4.6306 1.92542 4.76668 1.97518 4.88729C2.02491 5.00851 2.15869 5.06752 2.27368 5.02008C2.38868 4.97227 2.44133 4.83617 2.39159 4.71556C2.34186 4.59497 2.20808 4.53535 2.09307 4.58316Z" fill="black"/>
<path d="M1.11463 4.98733C0.999649 5.03477 0.947172 5.17122 0.99693 5.29146C1.04706 5.41263 1.18045 5.47169 1.29545 5.42425C1.41044 5.37644 1.46348 5.24036 1.41334 5.11954C1.36361 4.99895 1.22983 4.93989 1.11463 4.98733Z" fill="black"/>
<path d="M0.137032 5.39127C0.0216495 5.43868 -0.0310146 5.57537 0.0187432 5.69558C0.0688995 5.81659 0.202282 5.87563 0.317267 5.8284C0.432274 5.78096 0.484915 5.64488 0.435157 5.52369C0.385399 5.40308 0.251618 5.34345 0.137032 5.39127Z" fill="black"/>
<path d="M6.58097 5.20412C6.66112 5.09842 6.64195 4.94877 6.53817 4.87037C6.43404 4.79099 6.28477 4.81267 6.20442 4.91819C6.12466 5.02389 6.14384 5.17314 6.24759 5.25231C6.35175 5.3313 6.501 5.30962 6.58097 5.20412Z" fill="black"/>
<path d="M5.52275 5.81614C5.4426 5.92184 5.46177 6.07109 5.56611 6.14989C5.66968 6.22927 5.81893 6.20778 5.89888 6.10208C5.97903 5.99694 5.95989 5.84673 5.8561 5.76793C5.75195 5.68913 5.6027 5.71062 5.52275 5.81614Z" fill="black"/>
<path d="M5.21731 6.99956C5.29706 6.89442 5.27789 6.74517 5.17413 6.66581C5.06998 6.58701 4.92073 6.60869 4.84076 6.71421C4.7606 6.81933 4.77977 6.96918 4.88393 7.04836C4.98769 7.12732 5.13696 7.10566 5.21731 6.99956Z" fill="black"/>
<path d="M4.15869 7.61152C4.07854 7.7176 4.09771 7.86687 4.20186 7.94564C4.30562 8.02444 4.45489 8.00297 4.53484 7.89783C4.61556 7.79213 4.5962 7.64288 4.49207 7.56371C4.38829 7.4847 4.23904 7.50638 4.15869 7.61152Z" fill="black"/>
<path d="M3.47669 8.51C3.39653 8.61514 3.41629 8.76439 3.51986 8.84375C3.62362 8.92311 3.77287 8.90105 3.85321 8.79535C3.93356 8.69023 3.9142 8.54096 3.81004 8.4616C3.70631 8.38262 3.55706 8.4043 3.47669 8.51Z" fill="black"/>
<path d="M7.23897 5.41565C7.11836 5.36591 6.98226 5.41893 6.93482 5.53415C6.88682 5.64855 6.94645 5.78195 7.06725 5.83209C7.18786 5.88184 7.32396 5.8292 7.3714 5.71419C7.41881 5.59919 7.35958 5.46597 7.23897 5.41565Z" fill="black"/>
<path d="M6.83475 6.39399C6.71414 6.34423 6.57806 6.39689 6.53062 6.51228C6.48279 6.62689 6.54241 6.76008 6.66302 6.8104C6.78363 6.86016 6.91971 6.80712 6.96715 6.6927C7.01461 6.57771 6.95536 6.44375 6.83475 6.39399Z" fill="black"/>
<path d="M6.43071 7.37201C6.3101 7.32226 6.17381 7.37492 6.12598 7.4903C6.07856 7.60491 6.13819 7.73867 6.2584 7.78843C6.37941 7.83816 6.5157 7.78552 6.5629 7.67051C6.61036 7.55555 6.5513 7.4218 6.43071 7.37201Z" fill="black"/>
<path d="M6.02648 8.35028C5.90587 8.30055 5.76977 8.35319 5.72177 8.4682C5.67452 8.58318 5.73416 8.71696 5.85477 8.7667C5.97538 8.81645 6.11146 8.76342 6.1589 8.64899C6.20631 8.53382 6.14709 8.40004 6.02648 8.35028Z" fill="black"/>
<path d="M5.62227 9.32856C5.50167 9.27881 5.36519 9.33147 5.31777 9.44645C5.27034 9.56146 5.32938 9.69485 5.4502 9.74442C5.57081 9.79476 5.70726 9.7417 5.7547 9.62709C5.80213 9.5121 5.74307 9.37832 5.62227 9.32856Z" fill="black"/>
<path d="M5.21769 10.3068C5.09764 10.2571 4.961 10.3097 4.91356 10.4247C4.86615 10.5397 4.92538 10.6729 5.04599 10.7229C5.16659 10.773 5.30328 10.7199 5.3507 10.6053C5.39792 10.4904 5.33886 10.3566 5.21769 10.3068Z" fill="black"/>
<path d="M9.82633 1.2583C9.22965 1.25811 8.68529 1.50029 8.29328 1.89095L8.29309 1.89076L7.85071 2.32112L8.41154 2.88156L8.84713 2.45818L8.85004 2.45528C9.10054 2.20515 9.44397 2.05145 9.82633 2.05126C10.2088 2.05145 10.5515 2.20515 10.8026 2.45565C11.0531 2.70655 11.2068 3.04921 11.207 3.43194V10.5081H12V3.43196C11.9998 2.2311 11.027 1.25849 9.82633 1.2583Z" fill="black"/>
<path d="M8.23963 3.04636L7.68245 2.48918L7.62808 2.43478L5.64529 2.43286L5.2041 2.87405L7.86658 5.53653L8.3072 5.09515L8.30582 3.11236L8.23963 3.04636Z" fill="black"/>
</g>
<defs>
<clipPath id="clip0_40000032_4415">
<rect width="12" height="12" fill="white"/>
</clipPath>
</defs>
</svg>
