<svg width="55" height="33" viewBox="0 0 55 33" fill="currentColor" xmlns="http://www.w3.org/2000/svg">
<path d="M47.8987 32.0038L49.8554 29.0542C50.2175 28.4645 51.232 28.4645 51.5946 29.0542L53.5513 32.0038L50.87 15.192L50.5079 15.3397L47.8987 32.0038Z" fill="currentColor"/>
<path d="M54.6385 11.2849L27.5365 0.00366211H27.3913H27.2462L0.289794 11.0636C0.0723354 11.1372 0 11.3585 0 11.4321C0 11.5057 4.72036e-07 11.727 0.289794 11.8006L27.464 23.0818C27.5363 23.1554 27.6815 23.1554 27.7538 23.0818L54.7102 12.0218C54.9277 11.9482 55 11.7269 55 11.6533C54.9281 11.5797 54.9281 11.3585 54.6383 11.2849H54.6385Z" fill="currentColor"/>
<path d="M27.5366 24.6306C27.3191 24.6306 27.0293 24.557 26.8119 24.4829L12.7537 18.6578V25.1463C12.7537 27.432 14.5652 29.2753 16.8117 29.2753H38.044C40.2904 29.2753 42.102 27.432 42.102 25.1463V18.7314L28.1894 24.4829C28.0443 24.557 27.8268 24.6306 27.537 24.6306H27.5366Z" fill="currentColor"/>
</svg>
