<svg width="12" height="13" viewBox="0 0 12 13" fill="none" xmlns="http://www.w3.org/2000/svg">
<g clip-path="url(#clip0_40000032_4072)">
<g clip-path="url(#clip1_40000032_4072)">
<path d="M6.08808 9.48691C6.15628 9.57908 6.27561 9.58925 6.35461 9.50969L6.41176 9.45222C6.49077 9.37265 6.4995 9.23344 6.43131 9.14127L5.49352 7.87307C5.42532 7.7809 5.30602 7.7707 5.22701 7.85001L5.16984 7.90751C5.09084 7.98705 5.08212 8.12627 5.15032 8.21843L6.08808 9.48691Z" fill="#4B4B4B"/>
<path d="M6.57062 9.05977L9.04738 7.01084L9.13075 7.12361C9.19895 7.21578 9.31826 7.22597 9.39726 7.14641L9.45444 7.08894C9.53344 7.00937 9.54216 6.87018 9.47398 6.77801L7.94392 4.70872C7.87574 4.61655 7.75641 4.60635 7.67741 4.68592L7.62023 4.74339C7.54123 4.82295 7.53251 4.96215 7.60071 5.05431L7.68406 5.16708L5.58337 7.72458L6.57062 9.05977Z" fill="#4B4B4B"/>
<path d="M2.53218 14.4898L2.57583 14.4907C2.97206 14.5108 3.15022 14.7146 3.27994 14.8635C3.36642 14.9627 3.41505 15.0146 3.48969 15.0219C3.66182 15.0379 3.75724 14.9418 3.88135 14.816C4.03457 14.6602 4.2281 14.464 4.60709 14.5012C4.64928 14.5053 4.68359 14.5147 4.71894 14.5235C4.67528 13.2208 4.75885 10.8789 5.79101 9.65119L5.01808 8.66602C5.01808 8.66602 1.92847 10.5112 1.67694 15.098C1.81081 14.8795 2.05676 14.4898 2.53218 14.4898ZM5.17462 9.70843C5.21682 9.75378 5.21973 9.83043 5.18086 9.87991C5.17754 9.88402 5.08542 10.0051 4.94762 10.2292C4.60669 10.7836 3.97846 11.9885 3.66454 13.7585C3.63439 13.9283 3.60717 14.1029 3.58325 14.2829C3.57536 14.3428 3.53108 14.3857 3.48077 14.3857C3.47558 14.3857 3.47016 14.3852 3.46477 14.3843C3.40823 14.3741 3.36914 14.3122 3.37788 14.246C3.75935 11.3526 4.97612 9.78123 5.02786 9.71574C5.06695 9.66648 5.13262 9.66357 5.17462 9.70843ZM4.87777 9.374C4.92538 9.33641 4.99003 9.35143 5.02205 9.40674C5.05408 9.46226 5.04179 9.53769 4.9942 9.57505C4.99025 9.57822 4.90753 9.64564 4.77779 9.76933C4.2774 10.2469 3.054 11.6014 2.68334 13.6719C2.66503 13.774 2.64466 13.8744 2.63075 13.98C2.62286 14.0399 2.57857 14.0828 2.52827 14.0828C2.52307 14.0828 2.51766 14.0823 2.51227 14.0813C2.45572 14.0712 2.41666 14.0093 2.42537 13.9431C2.80888 11.0339 4.85718 9.39023 4.87777 9.374Z" fill="#4B4B4B"/>
<path d="M9.44694 6.0532L11.4325 4.02877V1.7002L8.48566 4.71829L9.44694 6.0532Z" fill="#4B4B4B"/>
</g>
</g>
<defs>
<clipPath id="clip0_40000032_4072">
<rect width="12" height="13" fill="white"/>
</clipPath>
<clipPath id="clip1_40000032_4072">
<rect width="12" height="14" fill="white" transform="translate(0 1.7002)"/>
</clipPath>
</defs>
</svg>
