<svg width="316" height="193" viewBox="0 0 316 193" fill="none" xmlns="http://www.w3.org/2000/svg">
<g clip-path="url(#clip0_201_10120)">
<path d="M247.912 30.1455C247.912 30.1455 240.956 30.9295 240.507 41.699C240.131 50.6742 239.368 55.6754 243.021 57.5475C244.326 58.2166 245.86 58.274 247.256 57.8179L262.161 52.918C262.161 52.918 262.384 36.7654 257.223 32.8388C252.062 28.9121 247.912 30.1455 247.912 30.1455Z" fill="#36344E"/>
<path d="M256.128 54.8985L248.584 57.3789V46.5215H255.428L256.128 54.8985Z" fill="#FAAFB2"/>
<path d="M233.068 116.529C232.659 119.016 230.999 120.8 229.363 120.513C227.724 120.226 226.731 117.975 227.14 115.488C227.288 114.491 227.684 113.548 228.289 112.741L230.158 102.225L235.244 103.289L232.862 113.542C233.176 114.511 233.247 115.535 233.068 116.529Z" fill="#FAAFB2"/>
<path d="M250.338 186.455H243.275L239.175 148.709H250.098L250.338 186.455Z" fill="#FAAFB2"/>
<path d="M236.393 192.52C235.65 192.52 234.987 192.503 234.491 192.455C232.615 192.283 230.823 190.898 229.924 190.09C229.522 189.728 229.39 189.147 229.6 188.647C229.752 188.289 230.053 188.022 230.428 187.914L235.386 186.498L243.416 181.081L243.508 181.243C243.541 181.304 244.329 182.723 244.593 183.683C244.694 184.048 244.667 184.352 244.515 184.589C244.41 184.751 244.261 184.845 244.143 184.9C244.288 185.052 244.745 185.359 246.147 185.582C248.199 185.907 248.625 183.784 248.645 183.697L248.658 183.626L248.719 183.585C249.693 182.957 250.294 182.673 250.5 182.733C250.629 182.771 250.845 182.838 251.426 188.617C251.484 188.799 251.893 190.127 251.616 191.401C251.315 192.787 245.269 192.31 244.059 192.199C244.025 192.202 239.499 192.523 236.397 192.523H236.393V192.52Z" fill="#36344E"/>
<path d="M266.301 186.455H259.234L255.137 148.709H266.057L266.301 186.455Z" fill="#FAAFB2"/>
<path d="M252.356 192.52C251.612 192.52 250.95 192.503 250.453 192.455C248.577 192.283 246.786 190.898 245.887 190.09C245.485 189.728 245.353 189.147 245.563 188.647C245.715 188.289 246.016 188.022 246.391 187.914L251.349 186.498L259.379 181.081L259.47 181.243C259.504 181.304 260.292 182.723 260.555 183.683C260.657 184.048 260.63 184.352 260.477 184.589C260.373 184.751 260.224 184.845 260.106 184.9C260.251 185.052 260.707 185.359 262.11 185.582C264.161 185.907 264.587 183.784 264.608 183.697L264.621 183.626L264.682 183.585C265.659 182.957 266.257 182.673 266.463 182.733C266.591 182.771 266.808 182.838 267.389 188.617C267.447 188.799 267.855 190.127 267.578 191.401C267.278 192.787 261.231 192.31 260.021 192.199C259.987 192.202 255.462 192.523 252.359 192.523H252.356V192.52Z" fill="#36344E"/>
<path d="M268.332 93.7462H234.004L246.343 53.1416H260.031L268.332 93.7462Z" fill="#DFDFE0"/>
<path d="M248.503 53.1448C248.503 53.1448 239.976 52.9218 239.08 55.1656C238.185 57.4094 227.636 110.804 227.636 110.804H234.592L248.503 53.1482V53.1448Z" fill="#DFDFE0"/>
<path d="M249.517 49.5258C253.668 49.5258 257.033 46.1611 257.033 42.0105C257.033 37.8599 253.668 34.4951 249.517 34.4951C245.366 34.4951 242 37.8599 242 42.0105C242 46.1611 245.366 49.5258 249.517 49.5258Z" fill="#FAAFB2"/>
<path d="M247.462 32.9502C247.462 32.9502 243.325 49.7449 247.925 57.5947L241.446 56.2194C241.446 56.2194 238.935 37.8399 243.984 34.4979L247.462 32.9502Z" fill="#36344E"/>
<path d="M261.197 93.7461H238.668L226.342 144.329C226.116 146.465 227.471 148.459 229.546 149.016C236.309 150.828 252.538 153.392 277.099 146.245C279.462 145.559 280.803 143.066 280.063 140.717L261.197 93.7461Z" fill="#36344E"/>
<path d="M252.089 53.1415L259.095 52.834C262.13 53.0638 264.874 54.7128 266.5 57.2844C271.451 65.1106 280.715 81.6045 272.445 83.8652C261.542 86.8423 256.259 70.2673 256.259 70.2673L252.089 53.1415Z" fill="#DFDFE0"/>
<path d="M249.686 58.0544C248.246 55.9864 248.195 53.55 249.568 52.6139C250.943 51.6779 253.225 52.6004 254.664 54.6685C255.252 55.4862 255.624 56.4392 255.753 57.4394L261.738 66.2862L257.348 69.0673L251.913 60.0516C251.011 59.5751 250.247 58.8891 249.686 58.0544Z" fill="#FAAFB2"/>
<path d="M253.228 65.2086L258.172 60.6602L267.95 69.7604L258.859 75.9747L253.228 65.2086Z" fill="#DFDFE0"/>
<path d="M10.9538 42.791H166.172C172.222 42.791 177.126 47.6942 177.126 53.743C177.126 59.7918 172.222 64.695 166.172 64.695H10.9538C4.90402 64.695 0 59.7918 0 53.743C0 47.6942 4.90402 42.791 10.9538 42.791Z" fill="#2F7AFF"/>
<path d="M68.7137 192.597C68.7137 192.82 68.8929 193 69.1159 193H315.598C315.821 193 316 192.82 316 192.597C316 192.374 315.821 192.195 315.598 192.195H69.1159C68.8929 192.195 68.7137 192.374 68.7137 192.597Z" fill="#484565"/>
<path d="M143.511 31.748H175.737C176.507 31.748 177.129 32.3698 177.129 33.1369C177.129 33.904 176.507 34.5258 175.737 34.5258H143.511C142.74 34.5258 142.119 33.904 142.119 33.1369C142.119 32.3698 142.74 31.748 143.511 31.748Z" fill="#DFDFE0"/>
<path d="M1.39246 0H33.6184C34.389 0 35.0108 0.621774 35.0108 1.38885C35.0108 2.15593 34.389 2.77771 33.6184 2.77771H1.39246C0.621874 2.78109 0 2.15931 0 1.38885C0 0.621774 0.621874 0 1.39246 0Z" fill="#DFDFE0"/>
<path d="M1.39246 12.1348H95.9816C96.7521 12.1348 97.374 12.7565 97.374 13.527C97.374 14.2941 96.7521 14.9159 95.9816 14.9159H1.39246C0.621874 14.9159 0 14.2941 0 13.527C0 12.7599 0.621874 12.1348 1.39246 12.1348Z" fill="#DFDFE0"/>
<path d="M79.0085 88.1563C79.0085 95.4419 84.9163 101.349 92.203 101.349C94.41 101.349 96.4886 100.808 98.3136 99.8517L111.099 120.127C111.883 121.367 113.556 121.678 114.732 120.799C115.831 119.978 116.067 118.431 115.266 117.315L101.203 97.8005C103.782 95.3912 105.398 91.9613 105.398 88.1563C105.398 80.8707 99.4898 74.9639 92.203 74.9639C84.9163 74.9639 79.0085 80.8707 79.0085 88.1563ZM80.82 88.1563C80.82 81.871 85.9167 76.7717 92.2064 76.7717C98.4961 76.7717 103.593 81.8676 103.593 88.1563C103.593 94.4416 98.4961 99.5408 92.2064 99.5408C85.9201 99.5408 80.82 94.445 80.82 88.1563Z" fill="#484662"/>
</g>
<defs>
<clipPath id="clip0_201_10120">
<rect width="316" height="193" fill="white"/>
</clipPath>
</defs>
</svg>
