<svg width="56" height="40" viewBox="0 0 56 40" fill="currentColor" xmlns="http://www.w3.org/2000/svg">
<path d="M51.2486 35.928V34.1717H50.6091L49.8104 12.7746L51.2477 10.7787H55.2071V7.0261L27.9435 0L0.67985 7.02647V10.7791H4.63928L6.0761 12.775L5.27784 34.172H4.63932V35.9283H0V40H55.8868V35.9283H51.2489L51.2486 35.928ZM11.3451 35.928V34.1717L10.7061 34.1712L9.90783 12.7741L11.3447 10.7783H14.6142L16.051 12.7741L15.2528 34.1712H14.6133V35.9275L11.3451 35.928ZM21.3213 35.928V34.1717H20.6818L19.8831 12.7746L21.3204 10.7787H24.5894L26.0263 12.7746L25.228 34.1717L24.5904 34.1712V35.9275L21.3213 35.928ZM31.297 35.928V34.1717H30.6575L29.8592 12.7746L31.296 10.7787H34.5651L36.0024 12.7746L35.2037 34.1717H34.5642V35.928H31.297ZM41.2726 35.928V34.1717H40.6332L39.8349 12.7746L41.2717 10.7787H44.5413L45.9781 12.7746L45.1813 34.1717H44.5418V35.928H41.2726Z" fill="currentColor"/>
</svg>
