<svg width="63" height="40" viewBox="0 0 63 40" fill="currentColor" xmlns="http://www.w3.org/2000/svg">
<path d="M62.8609 16.5743C62.4781 15.6516 61.4196 15.2145 60.4991 15.596C54.3795 18.1334 49.4651 18.2876 45.6642 17.4374C45.5725 17.4081 45.4797 17.3905 45.3864 17.3773C38.9011 15.8221 35.76 11.3442 35.5471 11.0296C34.992 10.2008 33.8699 9.97705 33.0438 10.529C32.2123 11.0824 31.9852 12.2047 32.5389 13.0356C32.5921 13.1167 35.7323 17.6767 42.0691 20.0685C41.2517 22.392 39.864 26.8547 39.4905 31.3307C39.4905 31.3307 39.8664 31.4035 40.5007 31.5056C40.1911 34.5608 40.112 36.8891 40.1072 37.1088C40.0764 38.1071 40.8606 38.9404 41.8571 38.9712C41.8762 38.9712 41.8957 38.9727 41.9138 38.9727C42.8869 38.9727 43.6881 38.1995 43.7189 37.2207C43.7208 37.1689 43.7965 34.9118 44.0905 31.9514C45.1061 32.0418 46.2121 32.1097 47.3341 32.1195C49.481 37.0028 52.3658 39.4298 52.5635 39.592C52.899 39.865 53.3028 39.9979 53.7031 39.9979C54.228 39.9979 54.7481 39.7713 55.1074 39.3322C55.7368 38.5585 55.6206 37.4199 54.8462 36.7884C54.8105 36.7596 52.9115 35.1541 51.2183 31.8694C52.2173 31.7092 53.1382 31.4635 53.9112 31.0991C53.9112 31.0991 52.1177 25.6194 51.9967 21.4179C54.9498 21.1917 58.2412 20.4454 61.8833 18.9356C62.8071 18.5547 63.2447 17.4962 62.8609 16.574L62.8609 16.5743ZM29.96 10.5363C29.1324 9.98193 28.0118 10.2022 27.4542 11.0277C27.2525 11.3266 24.112 15.8206 17.613 17.3777C17.5183 17.3919 17.4246 17.41 17.3323 17.4388C13.5321 18.2877 8.61899 18.1328 2.49993 15.596C1.57807 15.2135 0.519453 15.6512 0.138582 16.5743C-0.244226 17.4965 0.193269 18.5554 1.11562 18.9369C5.57895 20.7876 9.52028 21.5046 12.9495 21.5046C12.9895 21.5046 13.0266 21.4992 13.0662 21.4992C13.2918 22.9538 13.5452 25.1307 13.4988 27.4278C11.8298 33.6392 8.34848 36.6273 8.14436 36.7959C7.3763 37.426 7.26253 38.561 7.89095 39.3343C8.24886 39.7734 8.76789 40 9.29331 40C9.69516 40 10.0985 39.8671 10.4344 39.5941C10.6668 39.4041 14.6385 36.0589 16.7273 29.2384C17.3235 29.1237 17.9451 29.0348 18.558 28.9947C19.1473 33.2788 19.2782 37.1535 19.2801 37.2214C19.3109 38.1997 20.1131 38.9739 21.0852 38.9739C21.1043 38.9739 21.1223 38.9724 21.1428 38.9724C22.1389 38.9417 22.9221 38.1084 22.8923 37.11C22.8845 36.8257 22.7571 33.0277 22.1628 28.6802C22.1745 26.6986 22.1584 22.7765 21.9079 19.6745C27.59 17.2089 30.4104 13.1129 30.4611 13.0357C31.0114 12.2064 30.7868 11.0908 29.9601 10.5365L29.96 10.5363ZM15.3827 16.8712C19.1293 16.8712 22.1659 13.8337 22.1659 10.0859C22.1659 6.33814 19.1293 3.30059 15.3827 3.30059C11.6361 3.30059 8.599 6.33814 8.599 10.0859C8.599 13.8337 11.6371 16.8712 15.3827 16.8712ZM43.4274 4.92621C43.5592 5.16017 43.527 5.45713 43.3517 5.6613C42.6393 6.48772 42.1217 7.49436 41.8756 8.64758C41.0616 12.4603 43.6202 16.2085 47.5405 16.7828C51.0439 17.2952 54.415 14.9326 55.1465 11.4682C55.3872 10.3292 55.3252 9.20238 55.0137 8.16106C54.938 7.9061 55.0303 7.62476 55.2431 7.46505C57.1758 6.0086 55.355 12.7699 62.2807 11.2377C58.0092 10.2379 60.1273 6.32795 59.6025 4.74884C59.1 3.27089 56.4644 1.95699 54.1005 5.71154C54.0151 5.84928 53.8232 5.86051 53.7206 5.73547C52.7832 4.59547 51.4848 3.76412 49.9297 3.43101C48.3862 3.10035 46.8511 3.326 45.5401 3.97415C45.3951 4.04644 45.2257 3.95804 45.2032 3.79783C44.5704 -0.588268 41.6256 -0.468606 40.5636 0.675744C39.4381 1.90171 39.7721 6.33623 35.4655 5.50147C41.1417 9.72889 42.2536 2.83666 43.4273 4.9261L43.4274 4.92621Z" fill="currentColor"/>
</svg>
