<svg width="16" height="16" viewBox="0 0 16 16" fill="none" xmlns="http://www.w3.org/2000/svg">
<path d="M7.22222 2.55566V2.55566C5.14955 2.55566 4.11322 2.55566 3.30953 2.93043C2.45723 3.32787 1.7722 4.01289 1.37477 4.86519C1 5.66888 1 6.70522 1 8.77789V13.0001C1 13.9429 1 14.4143 1.29289 14.7072C1.58579 15.0001 2.05719 15.0001 3 15.0001H7.22223C9.29489 15.0001 10.3312 15.0001 11.1349 14.6253C11.9872 14.2279 12.6722 13.5429 13.0697 12.6906C13.4444 11.8869 13.4444 10.8505 13.4444 8.77788V8.77788" stroke="#4C5861" stroke-width="1.2"/>
<path d="M4.88904 7.22266L9.55571 7.22266" stroke="#4C5861" stroke-width="1.2" stroke-linecap="round" stroke-linejoin="round"/>
<path d="M4.88904 10.333H7.22237" stroke="#4C5861" stroke-width="1.2" stroke-linecap="round" stroke-linejoin="round"/>
<path d="M12.6667 5.66666L12.6667 1M10.3334 3.33333H15" stroke="#4C5861" stroke-width="1.2" stroke-linecap="round" stroke-linejoin="round"/>
</svg>
