<svg width="42" height="41" viewBox="0 0 42 41" fill="currentColor" xmlns="http://www.w3.org/2000/svg">
<path d="M19.2085 12.5945H14.0739L8.66064 15.6636H13.7963L19.2085 12.5945Z" fill="currentColor"/>
<path d="M26.5172 12.5945H21.3819L15.9697 15.6636H21.1039L26.5172 12.5945Z" fill="currentColor"/>
<path d="M25.9945 5.97085L20.1045 3.98975L15.0625 4.96989L20.9516 6.95062L25.9945 5.97085Z" fill="currentColor"/>
<path d="M40.3473 3.18191L34.4582 1.20117L29.417 2.18095L35.3053 4.16242L40.3473 3.18191Z" fill="currentColor"/>
<path d="M33.1709 4.57729L27.2809 2.59619L22.2383 3.5756L28.1287 5.55633L33.1709 4.57729Z" fill="currentColor"/>
<path d="M37.8965 15.6636H42.0001V13.3367L37.8965 15.6636Z" fill="currentColor"/>
<path d="M0.48877 14.9212L4.59206 12.594H0.48877V14.9212Z" fill="currentColor"/>
<path d="M1.354 15.6636H6.48784L11.9008 12.5945H6.76619L1.354 15.6636Z" fill="currentColor"/>
<path d="M41.1356 12.5945H36.0007L30.5889 15.6636H35.7224L41.1356 12.5945Z" fill="currentColor"/>
<path d="M33.8259 12.5945H28.6921L23.2788 15.6636H28.4127L33.8259 12.5945Z" fill="currentColor"/>
<path d="M40.6221 0.00366211L36.5923 0.786238L41.0572 2.28772L40.6221 0.00366211Z" fill="currentColor"/>
<path d="M4.46393 10.1537L0 8.65186L0.434771 10.9366L4.46393 10.1537Z" fill="currentColor"/>
<path d="M0.48877 40.0036H41.9989V17.2754H0.48877V40.0036ZM17.2707 23.9552C17.2707 23.8617 17.3185 23.7757 17.3969 23.7264C17.4746 23.6771 17.5729 23.6731 17.6556 23.7152L26.9365 28.3998C27.026 28.4455 27.083 28.5384 27.083 28.6402C27.083 28.7413 27.026 28.8349 26.9365 28.8798L17.6556 33.5652C17.6178 33.5835 17.5772 33.5936 17.5362 33.5936C17.4877 33.5936 17.4393 33.5807 17.3969 33.5537C17.3185 33.5044 17.2707 33.4177 17.2707 33.3248V23.9552Z" fill="currentColor"/>
<path d="M11.639 8.75991L5.74961 6.77881L0.708008 7.75821L6.59706 9.73932L11.639 8.75991Z" fill="currentColor"/>
<path d="M18.8163 7.36526L12.928 5.38379L7.88428 6.36393L13.7747 8.34504L18.8163 7.36526Z" fill="currentColor"/>
<path d="M5.74584 12.5559L0.351074 15.6153L0.353925 15.6146L5.74011 12.5595L5.74584 12.5559Z" fill="currentColor"/>
</svg>
