<svg width="40" height="39" viewBox="0 0 40 39" fill="currentColor" xmlns="http://www.w3.org/2000/svg">
<path d="M21.1984 13.735C20.6515 12.4491 19.8523 11.2875 18.8431 10.2918C17.8336 9.2961 16.6559 8.50812 15.3521 7.96874C14.006 7.38797 12.5341 7.09741 11.0619 7.09741C9.58961 7.09741 8.11772 7.38795 6.77164 7.96874C5.46784 8.50813 4.29016 9.2964 3.28063 10.2918C2.27111 11.2875 1.47219 12.4491 0.925328 13.735C0.294543 15.104 0 16.5145 0 17.9666C0 20.4558 1.76653 24.3968 5.25754 29.7897C7.82322 33.7307 10.4309 37.0495 10.4309 37.0495L11.0197 37.7961L11.6086 37.0495C11.6505 37.0082 14.2162 33.7307 16.7819 29.7897C20.2729 24.3966 22.0394 20.4556 22.0394 17.9666C22.0817 16.5144 21.7874 15.104 21.1986 13.735H21.1984ZM11.861 21.6171C8.83267 22.1979 6.26699 19.626 6.81385 16.6391C7.15037 14.9798 8.49611 13.6522 10.1788 13.3202C13.2071 12.7394 15.7728 15.3114 15.2259 18.2983C14.9314 19.9992 13.5434 21.3269 11.861 21.6171Z" fill="currentColor"/>
<path d="M39.5789 3.11506C39.3266 2.49291 38.9481 1.95349 38.4854 1.49716C38.0227 1.04081 37.4759 0.667537 36.8451 0.418628C36.2143 0.169764 35.5413 0.00366211 34.8682 0.00366211C34.1952 0.00366211 33.5221 0.128094 32.8914 0.418628C32.2606 0.667492 31.7137 1.04078 31.251 1.49716C30.7884 1.9535 30.4099 2.49287 30.1575 3.11506C29.9052 3.73722 29.7368 4.40102 29.7368 5.06485C29.7368 6.22642 30.5779 8.05175 32.1763 10.541C33.354 12.3664 34.5739 13.9012 34.5739 13.9012L34.8685 14.2331L35.163 13.9012C35.163 13.9012 36.3826 12.3663 37.5606 10.541C39.201 8.05175 40.0001 6.18501 40.0001 5.06485C39.9995 4.40102 39.8731 3.7786 39.5788 3.11506H39.5789ZM35.2467 6.80721C33.8587 7.05607 32.639 5.89454 32.8914 4.48413C33.0595 3.69585 33.6906 3.07373 34.4475 2.94927C35.8355 2.70041 37.0552 3.86194 36.8028 5.27234C36.6767 6.01892 36.0459 6.64112 35.2467 6.80721Z" fill="currentColor"/>
<path d="M15.1835 38.0036L14.5527 36.4687C14.8051 36.3443 15.1835 36.3029 16.3612 36.1782L17.0342 36.0952L17.2446 37.7544L16.5715 37.7964C15.9827 37.8791 15.3519 37.9622 15.1835 38.0035L15.1835 38.0036ZM20.1046 37.3401L19.81 35.6808C20.6092 35.5564 21.3242 35.432 21.9972 35.2659L22.3757 36.8838C21.661 37.0496 20.9037 37.174 20.1046 37.3401L20.1046 37.3401ZM25.194 36.1785L24.6894 34.5606C25.4044 34.3531 26.1194 34.1042 26.7504 33.8554L27.3812 35.3902C26.7082 35.6805 25.9509 35.971 25.194 36.1785L25.194 36.1785ZM30.0308 34.0626L29.1055 32.6522C29.7363 32.2373 30.2412 31.8226 30.7039 31.3663L31.9235 32.5278C31.4188 33.0672 30.7881 33.6064 30.0308 34.0627V34.0626ZM33.5638 29.8311L31.9235 29.3334C32.0496 28.877 32.1338 28.4207 32.1338 27.923V27.4666L33.8161 27.3422C33.8161 27.5497 33.858 27.7572 33.858 27.923C33.8164 28.5868 33.7322 29.2089 33.5638 29.8311L33.5638 29.8311ZM31.4608 25.0191C31.2085 24.4383 30.872 23.7745 30.4935 23.1524L31.9657 22.281C32.3865 22.9862 32.765 23.6914 33.0592 24.3967L31.4608 25.0191ZM29.3158 20.3312C29.1896 19.7091 29.1054 19.1283 29.1054 18.5476C29.1054 18.3401 29.1054 18.0912 29.1474 17.8837L30.8296 18.0495C30.8296 18.2154 30.7877 18.3815 30.7877 18.5473C30.7877 19.0036 30.8296 19.5013 30.9558 19.9994L29.3158 20.3312ZM31.6711 15.8925L30.325 14.8554C30.8297 14.1916 31.5027 13.6525 32.3019 13.1962L33.143 14.6483C32.5122 15.0213 32.0076 15.4363 31.671 15.8926L31.6711 15.8925Z" fill="currentColor"/>
</svg>
