<svg width="40" height="41" viewBox="0 0 40 41" fill="currentColor" xmlns="http://www.w3.org/2000/svg">
<path d="M27.0903 6.77197C25.8961 6.5845 24.676 6.87587 23.6982 7.58191C22.7202 8.28826 22.0649 9.35145 21.8762 10.5376C21.1041 15.3874 28.7294 22.7692 28.7294 22.7692C28.7294 22.7692 38.2744 18.085 39.0464 13.2349C39.2642 11.8664 38.8395 10.4743 37.8938 9.4563C36.9481 8.43829 35.5853 7.9063 34.1947 8.01246C32.8045 8.11859 31.5395 8.85127 30.7613 10.0009C30.5228 9.17128 30.0504 8.4265 29.4002 7.85416C28.7497 7.28222 27.9485 6.90667 27.0904 6.77189L27.0903 6.77197Z" fill="currentColor"/>
<path d="M18.045 21.3243C19.5565 20.2306 21.0079 19.0571 22.3927 17.809C20.8838 15.4072 19.7267 12.671 20.1098 10.2612C20.3394 8.77606 21.0977 7.42218 22.2472 6.44573C23.3963 5.46896 24.8604 4.93486 26.3726 4.9399C26.7065 4.94022 27.0397 4.96627 27.3695 5.01807C28.298 5.16455 29.182 5.51503 29.9569 6.04405C29.9061 4.16485 29.0009 2.40995 27.4956 1.27147C25.9898 0.133311 24.0463 -0.266085 22.2098 0.185696C20.3734 0.637535 18.8421 1.89171 18.0451 3.59675C17.2391 1.87357 15.6835 0.61218 13.8231 0.172356C11.9624 -0.267403 10.0019 0.163141 8.50126 1.34102C7.00032 2.51887 6.125 4.3142 6.125 6.2143C6.125 12.948 18.0452 21.3238 18.0452 21.3238L18.045 21.3243Z" fill="currentColor"/>
<path d="M30.0392 29.0822C25.7341 32.1649 15.4016 28.8432 22.42 28.1626C29.2067 27.5042 28.7298 22.7698 25.1568 23.9721C21.9749 25.0429 19.8589 23.3554 14.2666 24.2972C10.58 24.918 9.18298 25.4617 7.05235 27.7489C7.04467 27.7572 3.526 29.1683 0.789573 30.4536H0.788933C0.552585 30.5648 0.352695 30.7408 0.213254 30.9607C0.0734936 31.1806 -0.000390378 31.4354 0.000248246 31.6953V40.4414C-7.15575e-05 40.6377 0.10355 40.8198 0.273055 40.9205C0.442561 41.0216 0.653004 41.0267 0.827308 40.9336C4.65529 38.873 10.6024 35.0755 10.9626 35.2443C14.6435 36.9668 20.935 36.8025 26.4804 35.3603C28.8096 34.7547 30.0387 34.4105 31.901 33.3614C33.9179 32.2251 35.2205 29.7966 37.9841 27.9307C40.8014 26.0287 38.5419 22.9936 30.039 29.0825L30.0392 29.0822Z" fill="currentColor"/>
</svg>
