<svg width="21" height="20" viewBox="0 0 21 20" fill="none" xmlns="http://www.w3.org/2000/svg">
<path d="M2.72558 11.4082L9.67819 17.9395C9.91768 18.1644 10.0374 18.2769 10.1786 18.3046C10.2422 18.3171 10.3076 18.3171 10.3712 18.3046C10.5124 18.2769 10.6321 18.1644 10.8716 17.9395L17.8242 11.4082C19.7804 9.57059 20.018 6.5466 18.3727 4.42607L18.0634 4.02734C16.0952 1.49058 12.1445 1.91601 10.7616 4.81365C10.5662 5.22296 9.98359 5.22296 9.78824 4.81365C8.40527 1.91601 4.45462 1.49058 2.48644 4.02735L2.17709 4.42607C0.53185 6.5466 0.7694 9.57059 2.72558 11.4082Z" fill="#E83940" stroke="#E83940" stroke-width="1.2"/>
</svg>
