<svg width="28" height="53" viewBox="0 0 28 53" fill="currentColor" xmlns="http://www.w3.org/2000/svg">
<path fill-rule="evenodd" clip-rule="evenodd" d="M28 52.0039H0V48.9266H6.12057L8.40005 16.2259H5.73012V4.81236H3.64623V2.44029L13.9994 0.00390625L24.3536 2.44029V4.81236H22.2697V16.2259H19.6L21.8785 48.9266H27.9996L28 52.0039ZM12.958 32.7042L10.809 30.3954L10.2883 35.6532L12.958 32.7042ZM18.7534 48.9903L17.9718 38.795L13.9996 34.3074L10.0276 38.795L9.24603 48.9903H18.7534ZM15.0413 32.7042L17.7113 35.6533L17.1906 30.3955L15.0413 32.7042ZM13.9996 30.9088L17.125 27.382L16.3434 16.2251H11.6557L10.8743 27.382L13.9996 30.9088Z" fill="currentColor"/>
</svg>
