<svg width="20" height="20" viewBox="0 0 20 20" fill="none" xmlns="http://www.w3.org/2000/svg">
<path d="M17.5 13.862V4.83129C17.5 4.51293 17.1785 4.29524 16.8829 4.41348L13.4684 5.77925C13.3806 5.81438 13.2839 5.82094 13.1922 5.798L6.80783 4.20192C6.71606 4.17897 6.61939 4.18554 6.53156 4.22067L2.78287 5.72014C2.61203 5.78848 2.5 5.95395 2.5 6.13796V15.1686C2.5 15.487 2.82154 15.7047 3.11713 15.5864L6.53156 14.2207C6.61939 14.1855 6.71606 14.179 6.80783 14.2019L13.1922 15.798C13.2839 15.8209 13.3806 15.8144 13.4684 15.7793L17.2171 14.2798C17.388 14.2114 17.5 14.046 17.5 13.862Z" stroke="white" stroke-width="1.5" stroke-linejoin="round"/>
<path d="M13.3333 15.8334V5.83337" stroke="white" stroke-width="1.5"/>
<path d="M6.66667 14.1666L6.66667 4.16663" stroke="white" stroke-width="1.5"/>
</svg>
