<svg width="40" height="42" viewBox="0 0 40 42" fill="currentColor" xmlns="http://www.w3.org/2000/svg">
<path d="M22.5172 29.6216L31.1466 15.6106C31.3714 15.2569 31.641 14.8592 31.9554 14.5497L31.9557 1.51103C31.9557 1.06892 31.7761 0.671174 31.4165 0.406059C31.1017 0.140913 30.6525 0.00834045 30.248 0.0524288L29.8884 0.0965164C20.6298 1.20149 11.2364 1.20149 2.02276 0.0965164L1.75282 0.00833967C1.30325 -0.0357479 0.854012 0.0968243 0.539239 0.36197C0.224788 0.671205 0 1.06922 0 1.51106V15.7873C0 18.5276 0.539239 21.2237 1.57322 23.7873C3.95496 29.5776 9.61831 33.3785 16.0004 33.3785C16.8093 33.3785 17.5737 33.3344 18.3825 33.2018C18.5621 32.8482 18.7421 32.5389 18.9217 32.2294C19.8209 30.9475 21.0793 30.0636 22.5174 29.6215L22.5172 29.6216ZM22.0228 8.40614C25.0341 8.40614 26.1128 10.8372 26.2025 12.1632C26.2473 12.4283 26.1577 12.6935 25.9777 12.8705C25.7981 13.0471 25.5733 13.18 25.3037 13.18L18.7868 13.1797C18.5172 13.1797 18.2924 13.0912 18.1127 12.8701C17.9331 12.6935 17.8431 12.428 17.8879 12.1629C17.9779 10.8372 19.0116 8.40614 22.0228 8.40614L22.0228 8.40614ZM6.02252 12.826C5.84288 12.6494 5.7529 12.3839 5.79773 12.1188C5.93254 10.8372 6.92135 8.36171 9.97742 8.36171C12.9438 8.36171 14.0223 10.7927 14.1571 12.1188C14.2019 12.3839 14.1123 12.6491 13.9323 12.826C13.7527 13.0027 13.4827 13.1356 13.2131 13.1356H6.69657C6.47209 13.1356 6.20216 13.0471 6.02253 12.826H6.02252ZM16.0002 24.9807C13.3034 24.9807 10.9214 23.6106 9.5733 21.3122C9.16888 20.605 9.39366 19.6769 10.1125 19.2789C10.8317 18.8812 11.7754 19.1022 12.1802 19.8092C12.989 21.1352 14.4274 21.975 16.0006 21.975C17.5738 21.975 19.0119 21.1796 19.731 19.8536C20.1354 19.1022 21.0794 18.8812 21.7986 19.2789C22.5178 19.6766 22.7874 20.6049 22.383 21.3122C21.1239 23.6106 18.6971 24.9807 16.0003 24.9807L16.0002 24.9807Z" fill="currentColor"/>
<path d="M38.4724 15.8317C36.8096 14.6826 34.4724 15.1688 33.4387 16.9367L25.7083 29.4892C26.6071 29.6217 27.4611 29.9754 28.2251 30.5056C28.989 31.0359 29.6183 31.6547 30.1127 32.406L39.2814 20.8259C40.495 19.2351 40.1355 16.9367 38.4726 15.8317H38.4724Z" fill="currentColor"/>
<path d="M26.7419 32.6272C24.8991 31.3896 22.3823 31.8318 21.079 33.6437C19.7306 35.5885 21.079 38.2402 18.6969 40.8038C18.2474 41.246 18.5621 41.9973 19.1913 41.9973C23.6409 42.0858 26.4274 40.0525 27.7308 38.1521C29.034 36.3398 28.5848 33.8648 26.742 32.6272H26.7419Z" fill="currentColor"/>
</svg>
