<svg width="16" height="16" viewBox="0 0 16 16" fill="none" xmlns="http://www.w3.org/2000/svg">
<rect x="1" y="1" width="14" height="14" rx="2" stroke="#4C5861" stroke-width="1.2"/>
<path d="M1 4.73333C1 3.10562 1 2.29176 1.44571 1.74136C1.53366 1.63275 1.63275 1.53366 1.74136 1.44571C2.29176 1 3.10562 1 4.73333 1H11.2667C12.8944 1 13.7082 1 14.2586 1.44571C14.3672 1.53366 14.4663 1.63275 14.5543 1.74136C15 2.29176 15 3.10562 15 4.73333H1Z" fill="#4C5861"/>
<rect x="4.11133" y="6.60004" width="3.11111" height="1.86667" rx="0.5" fill="#4C5861"/>
<rect x="4.11133" y="10.3333" width="3.11111" height="1.86667" rx="0.5" fill="#4C5861"/>
<rect x="8.77783" y="6.60004" width="3.11111" height="1.86667" rx="0.5" fill="#4C5861"/>
<rect x="8.77783" y="10.3333" width="3.11111" height="1.86667" rx="0.5" fill="#4C5861"/>
</svg>
