<svg width="326" height="55" viewBox="0 0 326 55" fill="none" xmlns="http://www.w3.org/2000/svg">
<path d="M78.5644 0.604973L78.6933 0.814918L78.5 0.933599V0.644533L78.5644 0.604973ZM71.1406 0.5H76.0469V1H78.3918L78.2672 1.0765L78.3316 1.18148C79.0442 2.3422 80.0008 3.21104 81.0794 3.78728L81.315 3.34626C83.4453 4.48432 86.079 4.39014 88.1226 3.10283L88.3891 3.52589C89.3456 2.92338 90.1801 2.07893 90.7968 1H92.9807V0.5H97.9423V1H102.904V0.5H107.865V1H112.827V0.5H117.788V1H122.75V0.5H127.712V1H132.673V0.5H137.635V1H142.596V0.5H147.558V1H152.519V0.5H157.481V1H162.442V0.5H167.404V1H172.365V0.5H177.327V1H182.288V0.5H187.25V1H192.212V0.5H197.173V1H202.135V0.5H207.096V1H212.058V0.5H217.019V1H219.22C219.959 2.19482 220.945 3.09712 222.057 3.70446L222.296 3.26564C224.512 4.47556 227.256 4.42751 229.427 3.14076L229.682 3.57092C230.702 2.96644 231.603 2.10765 232.285 1H234.611V0.5H239.833V1H245.056V0.5H250.278V1H255.5V0.5H260.722V1H265.944V0.5H271.167V1H276.389V0.5H281.611V1H286.833V0.5H292.056V1H297.278V0.5H302.5V1H307.722V0.5H312.944V1H318.167V0.5H323.389V1H325.5V3.2H326V8.6H325.5V14H326V19.4H325.5V24.8H326V30.2H325.5V35.6H326V41H325.5V46.4H326V51.8H325.5V54H323.389V54.5H318.167V54H312.944V54.5H307.722V54H302.5V54.5H297.278V54H292.056V54.5H286.833V54H281.611V54.5H276.389V54H271.167V54.5H265.944V54H260.722V54.5H255.5V54H250.278V54.5H245.056V54H239.833V54.5H234.611V54H232.285C231.603 52.8924 230.702 52.0336 229.682 51.4291L229.427 51.8592C227.256 50.5725 224.512 50.5244 222.296 51.7344L222.057 51.2955C220.945 51.9029 219.959 52.8052 219.22 54H217.019V54.5H212.058V54H207.096V54.5H202.135V54H197.173V54.5H192.212V54H187.25V54.5H182.288V54H177.327V54.5H172.365V54H167.404V54.5H162.442V54H157.481V54.5H152.519V54H147.558V54.5H142.596V54H137.635V54.5H132.673V54H127.712V54.5H122.75V54H117.788V54.5H112.827V54H107.865V54.5H102.904V54H97.9423V54.5H92.9808V54H90.7968C90.1801 52.9211 89.3456 52.0766 88.3891 51.4741L88.1226 51.8972C86.079 50.6099 83.4453 50.5157 81.315 51.6537L81.0794 51.2127C80.0008 51.789 79.0442 52.6578 78.3316 53.8185L78.2672 53.9235L78.3918 54H76.0469V54.5H71.1406V54H66.2344V54.5H61.3281V54H56.4219V54.5H51.5156V54H46.6094V54.5H41.7031V54H36.7969V54.5H31.8906V54H26.9844V54.5H22.0781V54H17.1719V54.5H12.2656V54H7.35938V54.5H2.45312V54H0.5V51.8H0V46.4H0.5V41H0V35.6H0.5V30.2H0V24.8H0.5V19.4H0V14H0.5V8.6H0V3.2H0.5V1H2.45312V0.5H7.35938V1H12.2656V0.5H17.1719V1H22.0781V0.5H26.9844V1H31.8906V0.5H36.7969V1H41.7031V0.5H46.6094V1H51.5156V0.5H56.4219V1H61.3281V0.5H66.2344V1H71.1406V0.5ZM219.533 0.554141L219.6 0.662429L219.5 0.723641V0.574544L219.533 0.554141ZM219.5 54.2764L219.6 54.3376L219.533 54.4459L219.5 54.4254V54.2764ZM78.5 54.0664L78.6933 54.1851L78.5644 54.395L78.5 54.3555V54.0664Z" stroke="#4C5861" stroke-opacity="0.5" stroke-dasharray="5 5"/>
</svg>
