<svg width="18" height="18" viewBox="0 0 18 18" fill="none" xmlns="http://www.w3.org/2000/svg">
<path fill-rule="evenodd" clip-rule="evenodd" d="M18 9C18 13.9706 13.9706 18 9 18C4.02944 18 0 13.9706 0 9C0 4.02944 4.02944 0 9 0C13.9706 0 18 4.02944 18 9ZM10 14C10 14.5523 9.55228 15 9 15C8.44771 15 8 14.5523 8 14C8 13.4477 8.44771 13 9 13C9.55228 13 10 13.4477 10 14ZM8.4 3C6.52223 3 5 4.52223 5 6.4H7C7 5.6268 7.6268 5 8.4 5H9.73791C10.4349 5 11 5.56506 11 6.26209V6.44758C11 6.90999 10.6891 7.31462 10.2423 7.43377C8.92004 7.78638 8 8.98391 8 10.3524V12H10V10.3524C10 9.89001 10.3109 9.48538 10.7577 9.36623C12.08 9.01362 13 7.81609 13 6.44758V6.26209C13 4.46049 11.5395 3 9.73791 3H8.4Z" fill="#22CA3D"/>
</svg>
