<svg width="16" height="16" viewBox="0 0 16 16" fill="none" xmlns="http://www.w3.org/2000/svg">
<path d="M6.35306 10.8823L6.35306 8.41173" stroke="#4C5861" stroke-width="1.2" stroke-linecap="round"/>
<path d="M9.64691 10.8823L9.64691 8.41173" stroke="#4C5861" stroke-width="1.2" stroke-linecap="round"/>
<path d="M0.588226 4.29395H15.4118V4.29395C14.9745 4.29395 14.7558 4.29395 14.5737 4.328C13.762 4.47973 13.127 5.11474 12.9752 5.92645C12.9412 6.10862 12.9412 6.32726 12.9412 6.76453V10.9998C12.9412 12.8855 12.9412 13.8283 12.3554 14.4141C11.7696 14.9998 10.8268 14.9998 8.94118 14.9998H7.05882C5.1732 14.9998 4.23039 14.9998 3.6446 14.4141C3.05882 13.8283 3.05882 12.8855 3.05882 10.9998V6.76453C3.05882 6.32726 3.05882 6.10862 3.02476 5.92645C2.87303 5.11474 2.23803 4.47973 1.42632 4.328C1.24414 4.29395 1.0255 4.29395 0.588226 4.29395V4.29395Z" stroke="#4C5861" stroke-width="1.2" stroke-linecap="round"/>
<path d="M6.40891 1.30519C6.50275 1.21764 6.70953 1.14027 6.99718 1.08509C7.28483 1.02991 7.63728 1 7.99985 1C8.36243 1 8.71487 1.02991 9.00252 1.08509C9.29017 1.14027 9.49695 1.21764 9.59079 1.30519" stroke="#4C5861" stroke-width="1.2" stroke-linecap="round"/>
</svg>
