<svg width="25" height="24" viewBox="0 0 25 24" fill="none" xmlns="http://www.w3.org/2000/svg">
<path d="M12.875 14.75C14.6164 14.75 16.2992 15.17 17.6943 15.9336L17.9697 16.0908C19.0211 16.7184 19.8374 17.5172 20.375 18.4043L20.4785 18.583C20.4805 18.5866 20.4818 18.5893 20.4824 18.5908C20.4821 18.5925 20.4807 18.5967 20.4775 18.6025C20.4685 18.6193 20.4478 18.6425 20.4131 18.6582L20.373 18.6709C15.7364 19.6371 10.9598 19.698 6.30566 18.8525L5.37598 18.6709C5.31716 18.6585 5.28452 18.6249 5.27246 18.6025C5.26935 18.5967 5.26793 18.5925 5.26758 18.5908L5.27148 18.583C5.73836 17.7445 6.45012 16.9776 7.37207 16.3506L7.78027 16.0908C9.1359 15.2818 10.7949 14.8115 12.5273 14.7559L12.875 14.75Z" stroke="#181818" stroke-width="1.5" stroke-linecap="round"/>
<circle cx="12.875" cy="8" r="4.25" stroke="#181818" stroke-width="1.5" stroke-linecap="round"/>
</svg>
