<svg width="40" height="27" viewBox="0 0 40 27" fill="currentColor" xmlns="http://www.w3.org/2000/svg">
<path d="M40 1.06878V0.00366211H0V26.0037H40V1.06878ZM33.8501 1.06878V5.47469C32.3489 5.23273 30.315 5.52302 28.7169 6.20085V1.06847L33.8501 1.06878ZM28.1842 19.5644V23.6314C28.1359 23.5345 28.0389 23.3408 27.9422 23.0506C27.4093 21.0654 28.1842 19.5644 28.1842 19.5644V19.5644ZM28.1842 1.06878V6.44308C27.9906 6.54005 27.7969 6.68504 27.6033 6.782C25.5694 7.89568 25.6177 9.44503 23.0513 9.68696V1.02003H28.1842L28.1842 1.06878ZM22.5667 1.06878V9.78395C21.8887 9.83228 21.0171 9.73562 19.9515 9.59033C18.983 9.44503 18.1597 9.3967 17.4818 9.34837V1.06896L22.5667 1.06878ZM11.8164 13.0763C11.9134 16.5141 12.8817 15.4487 12.8333 17.0466C12.8333 17.9663 12.2523 18.5475 11.8164 18.9834V13.0763ZM12.8333 19.9032L13.8502 19.3707C13.5112 20.9686 13.7532 22.5662 13.7532 22.5662C13.7532 22.5662 14.0438 24.0671 13.3172 23.002C12.6879 22.0337 12.8333 19.9032 12.8333 19.9032L12.8333 19.9032ZM15.0125 22.9534C15.0125 22.9534 14.8671 21.2105 15.4484 18.8378C16.078 18.5958 16.5623 18.2569 16.9013 17.918V23.8249C16.514 23.5343 15.7874 23.7279 15.4484 23.5829C14.9641 23.3893 15.0125 22.9534 15.0125 22.9534V22.9534ZM16.9013 1.06901V9.34842C13.8989 9.34842 13.0756 10.4135 11.7681 11.5755V1.11734H16.9013V1.06901ZM11.2838 1.06901V12.0595C9.73422 13.6087 9.87952 15.6909 8.62028 17.821C7.99068 18.8862 7.07075 19.7579 6.15052 20.2418V1.11664L11.2838 1.11694V1.06901ZM0.533505 24.9875V1.11804H5.66675V20.4369C4.89182 20.6789 4.06857 20.6789 3.39061 20.2433C3.43895 18.2098 2.08304 18.8876 2.08304 18.8876C2.08304 18.8876 0.388202 19.8074 3.1969 20.6791C4.11682 20.9697 4.94007 20.9697 5.66667 20.8244V24.9884L0.533505 24.9875ZM6.15075 24.9875V20.6782C7.36135 20.2423 8.28158 19.3225 8.81423 18.5964C10.4124 17.0954 9.83112 16.1757 11.284 13.8515V19.5648C11.2357 19.6617 11.187 19.7584 11.187 19.8554C11.187 20.2913 11.2353 20.7268 11.284 21.1144V24.9878L6.15075 24.9875ZM11.8166 24.9875V23.6318C12.0586 24.5033 12.3009 24.9875 12.3009 24.9875H11.8166ZM17.4342 24.9875V17.289C17.8215 16.8048 18.0152 16.3206 18.1605 16.0786C18.4511 15.5944 19.6134 15.0619 20.4849 16.0303C20.9209 16.5145 21.5988 17.047 22.5671 17.4829V24.9877L17.4342 24.9875ZM23.0998 24.9875V17.7249C24.0683 18.0639 25.2306 18.2575 26.5865 18.2092C25.3273 21.8406 26.7318 25.0361 26.7318 25.0361H23.0998L23.0998 24.9875ZM31.8647 24.9875C31.9616 23.6318 31.0414 23.9708 30.5088 23.9224C29.9761 23.874 29.9761 23.0993 29.9761 23.0993C29.9761 23.0993 30.2668 21.1141 30.4604 18.2574C32.0586 17.6279 33.1722 16.8534 33.8502 16.127V24.9876L31.8647 24.9875ZM39.4674 24.9875H34.3342V15.4973C35.3511 14.1899 35.2541 13.0279 35.2541 12.9796C35.2541 12.8343 35.5447 12.3988 35.7867 12.8343C36.0774 13.2702 36.7067 13.2216 36.7067 13.2216C36.7067 13.2216 38.1595 12.5437 38.1595 11.7206C38.0142 11.1397 36.8036 9.73543 36.8036 9.73543C36.8036 9.73543 36.9489 9.25121 36.8036 8.67031C36.6583 8.0894 35.8351 7.75055 35.8351 7.75055C36.271 6.63687 35.5444 5.91063 34.3339 5.62008V1.11721H39.4671L39.4674 24.9875Z" fill="currentColor"/>
</svg>
