<svg width="23" height="18" viewBox="0 0 23 18" fill="none" xmlns="http://www.w3.org/2000/svg">
<path d="M21.7857 14.4096V1.66466C21.7857 1.34631 21.4641 1.12861 21.1685 1.24685L16.2065 3.23167C16.1186 3.26681 16.022 3.27337 15.9302 3.25042L7.06968 1.03529C6.97791 1.01235 6.88125 1.01891 6.79342 1.05404L1.49711 3.17256C1.32626 3.2409 1.21423 3.40637 1.21423 3.59038V16.3353C1.21423 16.6537 1.53577 16.8714 1.83136 16.7532L6.79342 14.7683C6.88125 14.7332 6.97791 14.7266 7.06968 14.7496L15.9302 16.9647C16.022 16.9877 16.1186 16.9811 16.2065 16.946L21.5028 14.8274C21.6736 14.7591 21.7857 14.5936 21.7857 14.4096Z" stroke="#4C5861" stroke-width="1.2" stroke-linejoin="round"/>
<path d="M16.0714 16.9999V3.28564" stroke="#4C5861" stroke-width="1.2"/>
<path d="M6.92859 14.7143L6.92859 1" stroke="#4C5861" stroke-width="1.2"/>
</svg>
